<?xml version="1.0" encoding="UTF-8" standalone="no"?>
<!-- Created with Inkscape (http://www.inkscape.org/) -->

<svg
   xmlns:dc="http://purl.org/dc/elements/1.1/"
   xmlns:cc="http://creativecommons.org/ns#"
   xmlns:rdf="http://www.w3.org/1999/02/22-rdf-syntax-ns#"
   xmlns:svg="http://www.w3.org/2000/svg"
   xmlns="http://www.w3.org/2000/svg"
   xmlns:sodipodi="http://sodipodi.sourceforge.net/DTD/sodipodi-0.dtd"
   xmlns:inkscape="http://www.inkscape.org/namespaces/inkscape"
   width="210mm"
   height="297mm"
   viewBox="0 0 744.09448819 1052.3622047"
   id="svg2"
   version="1.1"
   inkscape:version="0.91 r13725"
   inkscape:export-xdpi="90"
   inkscape:export-ydpi="90"
   sodipodi:docname="drawing.svg">
  <defs
     id="defs4" />
  <sodipodi:namedview
     id="base"
     pagecolor="#ffffff"
     bordercolor="#666666"
     borderopacity="1.0"
     inkscape:pageopacity="0.0"
     inkscape:pageshadow="2"
     inkscape:zoom="1"
     inkscape:cx="-28.13492"
     inkscape:cy="683.73474"
     inkscape:document-units="px"
     inkscape:current-layer="layer1"
     showgrid="false"
     inkscape:window-width="1536"
     inkscape:window-height="803"
     inkscape:window-x="-8"
     inkscape:window-y="-8"
     inkscape:window-maximized="1" />
  <metadata
     id="metadata7">
    <rdf:RDF>
      <cc:Work
         rdf:about="">
        <dc:format>image/svg+xml</dc:format>
        <dc:type
           rdf:resource="http://purl.org/dc/dcmitype/StillImage" />
        <dc:title />
      </cc:Work>
    </rdf:RDF>
  </metadata>
  <g
     inkscape:label="Layer 1"
     inkscape:groupmode="layer"
     id="layer1">
    <g
       id="g6001"
       inkscape:export-filename="loading.png"
       inkscape:export-xdpi="90"
       inkscape:export-ydpi="90">
      <g
         transform="translate(-24.833753,31.567268)"
         id="g5666">
        <rect
           style="opacity:0.46799999;fill:none;fill-opacity:1;stroke:none;stroke-width:3.37589359;stroke-miterlimit:4;stroke-dasharray:none"
           id="rect4535"
           width="47.472069"
           height="47.472069"
           x="266.31958"
           y="161.18193" />
        <path
           style="fill:#3364a3;fill-opacity:1;fill-rule:evenodd;stroke:#000000;stroke-width:1.0009172;stroke-linecap:butt;stroke-linejoin:miter;stroke-miterlimit:4;stroke-dasharray:none;stroke-opacity:1"
           d="m 283.4235,174.31166 -2.83102,-5.45983 c -2.93191,-4.0213 -2.89853,-3.30018 -7.6842,-4.44874 -4.36183,1.99812 -3.52366,1.52938 -5.25761,5.86425 l -0.80887,4.44875 1.81994,3.63989 c 2.98673,2.22425 3.39404,2.21924 6.87534,2.6288 l 5.66204,-0.40443 z"
           id="path4313"
           inkscape:connector-curvature="0"
           sodipodi:nodetypes="ccccccccc" />
        <path
           style="fill:#719ece;fill-opacity:1;fill-rule:evenodd;stroke:#000000;stroke-width:1.0009172;stroke-linecap:butt;stroke-linejoin:miter;stroke-miterlimit:4;stroke-dasharray:none;stroke-opacity:1"
           d="m 282.00799,175.52496 c -2.53804,-3.28392 -2.69586,-4.08567 -6.26869,-5.45983 -3.10522,1.16146 -2.41234,0.97543 -3.63989,4.04431 0.24166,3.94983 4.46174,3.69099 7.27977,4.04432 l 2.42659,0 z"
           id="path4315"
           inkscape:connector-curvature="0"
           sodipodi:nodetypes="cccccc" />
        <path
           style="fill:#3364a3;fill-opacity:1;fill-rule:evenodd;stroke:#000000;stroke-width:1.0009172;stroke-linecap:butt;stroke-linejoin:miter;stroke-miterlimit:4;stroke-dasharray:none;stroke-opacity:1"
           d="m 303.03843,178.15376 3.43767,0.60665 c 6.9413,-0.36355 8.06212,-3.53415 5.66204,-8.8975 -1.48721,-1.21845 -2.77247,-2.61349 -4.04432,-4.04432 -5.62269,-1.69753 -7.19193,2.20535 -8.08863,5.86426 l -2.22437,3.84211 z"
           id="path4317"
           inkscape:connector-curvature="0"
           sodipodi:nodetypes="ccccccc" />
        <path
           style="fill:#719ece;fill-opacity:1;fill-rule:evenodd;stroke:#000000;stroke-width:1.0009172;stroke-linecap:butt;stroke-linejoin:miter;stroke-miterlimit:4;stroke-dasharray:none;stroke-opacity:1"
           d="m 308.09382,173.70501 c -0.1684,-5.17408 -4.28758,-3.35673 -5.66204,-0.80886 l -1.21329,3.23545 c 3.72042,1.68726 5.73058,0.0652 6.87533,-2.42659 z"
           id="path4319"
           inkscape:connector-curvature="0"
           sodipodi:nodetypes="cccc" />
        <path
           style="fill:#000102;fill-opacity:1;fill-rule:evenodd;stroke:#000000;stroke-width:0.20018344px;stroke-linecap:butt;stroke-linejoin:miter;stroke-opacity:1"
           d="m 279.98583,195.54432 -1.61773,1.61773 -2.22437,0.60665 -1.61773,0.60664 -3.43766,1.61773 -1.2133,1.41551 -0.60665,2.22437 -1.01108,1.01108 -1.21329,0.40443 3.03323,-1.21329 c 0,0 1.2133,-2.62881 2.02216,-2.83102 0.80887,-0.20222 5.86426,-1.81995 5.86426,-1.81995 l 3.63989,-2.42659 z"
           id="path4321"
           inkscape:connector-curvature="0" />
        <path
           style="fill:#366baf;fill-opacity:1;fill-rule:evenodd;stroke:#000000;stroke-width:1.0009172;stroke-linecap:butt;stroke-linejoin:miter;stroke-miterlimit:4;stroke-dasharray:none;stroke-opacity:1"
           d="m 282.00799,197.16205 -3.03324,3.03323 -1.21329,2.4266 0,2.02215 4.44875,0.80887 2.83102,-0.40444 0.20221,-3.03323 1.01108,-2.02216 0.40443,-1.61773 z"
           id="path4323"
           inkscape:connector-curvature="0" />
        <path
           style="fill:#366baf;fill-opacity:1;fill-rule:evenodd;stroke:#000000;stroke-width:1.0009172;stroke-linecap:butt;stroke-linejoin:miter;stroke-miterlimit:4;stroke-dasharray:none;stroke-opacity:1"
           d="m 302.83622,196.95983 1.81994,2.22437 1.81994,1.2133 0.80886,3.23545 -1.61772,1.41551 -4.04432,0 -2.22437,-0.60664 -1.01108,-2.22438 -1.01108,-3.8421 z"
           id="path4325"
           inkscape:connector-curvature="0" />
        <path
           style="fill:#366baf;fill-opacity:1;fill-rule:evenodd;stroke:#000000;stroke-width:1.0009172;stroke-linecap:butt;stroke-linejoin:miter;stroke-miterlimit:4;stroke-dasharray:none;stroke-opacity:1"
           d="m 305.06059,185.43353 c 3.86165,-0.27973 3.08365,-0.65732 5.86426,1.61773 0.40934,2.25498 0.0346,4.27551 -0.40443,6.4709 -2.29591,0.0688 -4.58425,-0.0816 -6.87534,-0.20221 l 0.20222,-4.65097 z"
           id="path4327"
           inkscape:connector-curvature="0"
           sodipodi:nodetypes="cccccc" />
        <path
           style="fill:#366baf;fill-opacity:1;fill-rule:evenodd;stroke:#000000;stroke-width:1.0009172;stroke-linecap:butt;stroke-linejoin:miter;stroke-miterlimit:4;stroke-dasharray:none;stroke-opacity:1"
           d="m 278.57032,184.22024 -4.24653,2.02215 -1.81995,1.2133 c -0.34668,3.2456 -0.96411,2.89364 0.80887,5.25761 l 2.02215,2.42659 c 3.57462,0.21598 3.27451,-0.36033 6.06648,-2.62881 l 0.60665,-0.80886 z"
           id="path4329"
           inkscape:connector-curvature="0"
           sodipodi:nodetypes="cccccccc" />
        <path
           style="fill:#3465a4;fill-opacity:1;fill-rule:evenodd;stroke:#000000;stroke-width:1.0009172;stroke-linecap:butt;stroke-linejoin:miter;stroke-miterlimit:4;stroke-dasharray:none;stroke-opacity:1"
           d="m 294.34315,200.80193 c 7.56377,-0.61334 8.87412,-2.31814 11.5263,-9.70636 1.39828,-5.84746 0.20216,-9.52956 -2.6288,-14.55953 -3.42069,-6.65056 -8.12309,-6.62091 -15.57062,-7.27977 -5.95201,2.9055 -8.92435,5.93563 -10.313,11.93073 -0.85925,7.90537 0.34714,8.83923 3.23545,15.97505 4.78888,3.02193 8.08891,4.27811 13.75067,3.63988 z"
           id="path4331"
           inkscape:connector-curvature="0"
           sodipodi:nodetypes="ccccccc" />
        <path
           style="fill:#000102;fill-opacity:1;fill-rule:evenodd;stroke:#000000;stroke-width:0.20018344px;stroke-linecap:butt;stroke-linejoin:miter;stroke-opacity:1"
           d="m 293.53429,184.62467 -1.81994,1.41551 -0.40444,2.22437 3.84211,0.60665 1.41551,-2.62881 -0.40443,-1.01108 z"
           id="path4333"
           inkscape:connector-curvature="0" />
        <path
           style="fill:#000102;fill-opacity:1;fill-rule:evenodd;stroke:#000000;stroke-width:0.20018344px;stroke-linecap:butt;stroke-linejoin:miter;stroke-opacity:1"
           d="m 289.18665,184.22024 0.10111,-3.18491 c -0.34776,-1.39958 -0.1524,-1.25508 -1.51662,-1.3144 -1.12939,-0.30507 -0.95501,-0.18267 -0.10111,-0.80886 0.26685,-0.45032 0.14828,-0.77523 0.0505,-1.26385 l -1.4155,-0.0506 c -1.04706,-0.10382 -1.3529,0.23014 -2.07272,0.90997 -0.50139,1.84424 0.1267,3.38956 0.60665,5.00484 0.82228,0.14318 1.01409,0.39261 1.41551,1.06163 1.14311,0.16992 1.95234,0.16483 2.93213,-0.35387 z"
           id="path4335"
           inkscape:connector-curvature="0"
           sodipodi:nodetypes="cccccccccc" />
        <path
           style="fill:none;fill-rule:evenodd;stroke:#000000;stroke-width:0.60055035;stroke-linecap:butt;stroke-linejoin:miter;stroke-miterlimit:4;stroke-dasharray:none;stroke-opacity:1"
           d="m 297.98304,188.26455 4.75207,-0.45498 4.04431,0.6572 0,0"
           id="path4337"
           inkscape:connector-curvature="0" />
        <path
           style="fill:none;fill-rule:evenodd;stroke:#000000;stroke-width:0.60055035;stroke-linecap:butt;stroke-linejoin:miter;stroke-miterlimit:4;stroke-dasharray:none;stroke-opacity:1"
           d="m 298.1347,186.44461 1.51662,-0.40443 0.90997,-0.96053 1.9716,-0.10111 0.6572,-0.96052 2.62881,0.20222 0.75831,-0.80887"
           id="path4339"
           inkscape:connector-curvature="0" />
        <path
           style="fill:none;fill-rule:evenodd;stroke:#000000;stroke-width:0.60055035;stroke-linecap:butt;stroke-linejoin:miter;stroke-miterlimit:4;stroke-dasharray:none;stroke-opacity:1"
           d="m 297.42694,184.01802 2.57825,-0.85942 1.46607,-0.96052 2.37604,-1.3144 0,0"
           id="path4341"
           inkscape:connector-curvature="0" />
        <path
           style="fill:none;fill-rule:evenodd;stroke:#000000;stroke-width:0.60055035;stroke-linecap:butt;stroke-linejoin:miter;stroke-miterlimit:4;stroke-dasharray:none;stroke-opacity:1"
           d="m 289.69219,186.39406 -0.90997,-0.0506 -0.70776,0.80887 -2.88157,0 c 0,0 -1.06164,-0.20222 -1.36496,-0.15167 -0.30332,0.0506 -2.62881,0.20222 -2.62881,0.20222"
           id="path4343"
           inkscape:connector-curvature="0" />
        <path
           style="fill:none;fill-rule:evenodd;stroke:#000000;stroke-width:0.60055035;stroke-linecap:butt;stroke-linejoin:miter;stroke-miterlimit:4;stroke-dasharray:none;stroke-opacity:1"
           d="m 290.70327,189.47785 -1.61773,-0.25277 -0.30332,-0.45499 -2.72991,0.20222 -1.61773,0.6572 -1.92105,0 -0.45499,0.0505 -1.46606,0.75831"
           id="path4345"
           inkscape:connector-curvature="0" />
        <path
           style="fill:none;fill-rule:evenodd;stroke:#000000;stroke-width:0.60055035;stroke-linecap:butt;stroke-linejoin:miter;stroke-miterlimit:4;stroke-dasharray:none;stroke-opacity:1"
           d="m 288.32723,190.28671 -1.71883,0.0505 -0.75831,0.90998 -1.11219,0.60664"
           id="path4347"
           inkscape:connector-curvature="0" />
        <path
           style="fill:#000102;fill-opacity:1;fill-rule:evenodd;stroke:#000000;stroke-width:0.20018344px;stroke-linecap:butt;stroke-linejoin:miter;stroke-opacity:1"
           d="m 294.49481,194.63435 -1.56717,0 -0.75831,0.45499 0.35388,0.85941 2.02216,0 0.50554,-0.75831 z"
           id="path4349"
           inkscape:connector-curvature="0" />
        <path
           style="fill:#000102;fill-opacity:1;fill-rule:evenodd;stroke:#000000;stroke-width:0.20018344px;stroke-linecap:butt;stroke-linejoin:miter;stroke-opacity:1"
           d="m 297.09834,182.07169 -0.0505,-2.35076 c 0.18501,-0.9584 0.11074,-1.45085 -0.37916,-2.22437 l -0.88469,0.80886 c 0,0 -0.93525,0.0758 -0.96052,-0.0253 -0.0253,-0.1011 0.0505,-0.70775 0.17693,-0.7583 0.94117,-0.64183 0.64456,-0.84773 0.0506,-1.61773 l -2.02216,0.0505 -0.0253,2.17382 c 1.6889,0.62354 0.97498,1.24749 0.83414,3.00796 l 0.83414,0.37916 0.37916,0.73303 2.09799,-0.0758"
           id="path4351"
           inkscape:connector-curvature="0"
           sodipodi:nodetypes="ccccscccccccc" />
        <path
           sodipodi:nodetypes="ccccccccc"
           inkscape:connector-curvature="0"
           id="path4353"
           d="m 283.4235,174.31166 -2.83102,-5.45983 c -2.93191,-4.0213 -2.89853,-3.30018 -7.6842,-4.44874 -4.36183,1.99812 -3.52366,1.52938 -5.25761,5.86425 l -0.80887,4.44875 1.81994,3.63989 c 2.98673,2.22425 3.39404,2.21924 6.87534,2.6288 l 5.66204,-0.40443 z"
           style="fill:#608fcd;fill-opacity:1;fill-rule:evenodd;stroke:#000000;stroke-width:1.0009172;stroke-linecap:butt;stroke-linejoin:miter;stroke-miterlimit:4;stroke-dasharray:none;stroke-opacity:1" />
        <path
           sodipodi:nodetypes="cccccc"
           inkscape:connector-curvature="0"
           id="path4355"
           d="m 282.00799,175.52496 c -2.53804,-3.28392 -2.69586,-4.08567 -6.26869,-5.45983 -3.10522,1.16146 -2.41234,0.97543 -3.63989,4.04431 0.24166,3.94983 4.46174,3.69099 7.27977,4.04432 l 2.42659,0 z"
           style="fill:#b5cce5;fill-opacity:1;fill-rule:evenodd;stroke:#000000;stroke-width:1.0009172;stroke-linecap:butt;stroke-linejoin:miter;stroke-miterlimit:4;stroke-dasharray:none;stroke-opacity:1" />
        <path
           sodipodi:nodetypes="ccccccc"
           inkscape:connector-curvature="0"
           id="path4357"
           d="m 303.03843,178.15376 3.43767,0.60665 c 6.9413,-0.36355 8.06212,-3.53415 5.66204,-8.8975 -1.48721,-1.21845 -2.77247,-2.61349 -4.04432,-4.04432 -5.62269,-1.69753 -7.19193,2.20535 -8.08863,5.86426 l -2.22437,3.84211 z"
           style="fill:#608fcd;fill-opacity:1;fill-rule:evenodd;stroke:#000000;stroke-width:1.0009172;stroke-linecap:butt;stroke-linejoin:miter;stroke-miterlimit:4;stroke-dasharray:none;stroke-opacity:1" />
        <path
           sodipodi:nodetypes="cccc"
           inkscape:connector-curvature="0"
           id="path4359"
           d="m 308.09382,173.70501 c -0.1684,-5.17408 -4.28758,-3.35673 -5.66204,-0.80886 l -1.21329,3.23545 c 3.72042,1.68726 5.73058,0.0652 6.87533,-2.42659 z"
           style="fill:#b5cce5;fill-opacity:1;fill-rule:evenodd;stroke:#000000;stroke-width:1.0009172;stroke-linecap:butt;stroke-linejoin:miter;stroke-miterlimit:4;stroke-dasharray:none;stroke-opacity:1" />
        <path
           inkscape:connector-curvature="0"
           id="path4361"
           d="m 279.98583,195.54432 -1.61773,1.61773 -2.22437,0.60665 -1.61773,0.60664 -3.43766,1.61773 -1.2133,1.41551 -0.60665,2.22437 -1.01108,1.01108 -1.21329,0.40443 3.03323,-1.21329 c 0,0 1.2133,-2.62881 2.02216,-2.83102 0.80887,-0.20222 5.86426,-1.81995 5.86426,-1.81995 l 3.63989,-2.42659 z"
           style="fill:#000102;fill-opacity:1;fill-rule:evenodd;stroke:#000000;stroke-width:0.20018344px;stroke-linecap:butt;stroke-linejoin:miter;stroke-opacity:1" />
        <path
           inkscape:connector-curvature="0"
           id="path4363"
           d="m 282.00799,197.16205 -3.03324,3.03323 -1.21329,2.4266 0,2.02215 4.44875,0.80887 2.83102,-0.40444 0.20221,-3.03323 1.01108,-2.02216 0.40443,-1.61773 z"
           style="fill:#608fcd;fill-opacity:1;fill-rule:evenodd;stroke:#000000;stroke-width:1.0009172;stroke-linecap:butt;stroke-linejoin:miter;stroke-miterlimit:4;stroke-dasharray:none;stroke-opacity:1" />
        <path
           inkscape:connector-curvature="0"
           id="path4365"
           d="m 302.83622,196.95983 1.81994,2.22437 1.81994,1.2133 0.80886,3.23545 -1.61772,1.41551 -4.04432,0 -2.22437,-0.60664 -1.01108,-2.22438 -1.01108,-3.8421 z"
           style="fill:#608fcd;fill-opacity:1;fill-rule:evenodd;stroke:#000000;stroke-width:1.0009172;stroke-linecap:butt;stroke-linejoin:miter;stroke-miterlimit:4;stroke-dasharray:none;stroke-opacity:1" />
        <path
           sodipodi:nodetypes="cccccc"
           inkscape:connector-curvature="0"
           id="path4367"
           d="m 305.06059,185.43353 c 3.86165,-0.27973 3.08365,-0.65732 5.86426,1.61773 0.40934,2.25498 0.0346,4.27551 -0.40443,6.4709 -2.29591,0.0688 -4.58425,-0.0816 -6.87534,-0.20221 l 0.20222,-4.65097 z"
           style="fill:#608fcd;fill-opacity:1;fill-rule:evenodd;stroke:#000000;stroke-width:1.0009172;stroke-linecap:butt;stroke-linejoin:miter;stroke-miterlimit:4;stroke-dasharray:none;stroke-opacity:1" />
        <path
           sodipodi:nodetypes="cccccccc"
           inkscape:connector-curvature="0"
           id="path4369"
           d="m 278.57032,184.22024 -4.24653,2.02215 -1.81995,1.2133 c -0.34668,3.2456 -0.96411,2.89364 0.80887,5.25761 l 2.02215,2.42659 c 3.57462,0.21598 3.27451,-0.36033 6.06648,-2.62881 l 0.60665,-0.80886 z"
           style="fill:#608fcd;fill-opacity:1;fill-rule:evenodd;stroke:#000000;stroke-width:1.0009172;stroke-linecap:butt;stroke-linejoin:miter;stroke-miterlimit:4;stroke-dasharray:none;stroke-opacity:1" />
        <path
           sodipodi:nodetypes="ccccccc"
           inkscape:connector-curvature="0"
           id="path4371"
           d="m 294.34315,200.80193 c 7.56377,-0.61334 8.87412,-2.31814 11.5263,-9.70636 1.39828,-5.84746 0.20216,-9.52956 -2.6288,-14.55953 -3.42069,-6.65056 -8.12309,-6.62091 -15.57062,-7.27977 -5.95201,2.9055 -8.92435,5.93563 -10.313,11.93073 -0.85925,7.90537 0.34714,8.83923 3.23545,15.97505 4.78888,3.02193 8.08891,4.27811 13.75067,3.63988 z"
           style="fill:#608fcd;fill-opacity:1;fill-rule:evenodd;stroke:#000000;stroke-width:1.0009172;stroke-linecap:butt;stroke-linejoin:miter;stroke-miterlimit:4;stroke-dasharray:none;stroke-opacity:1" />
        <path
           inkscape:connector-curvature="0"
           id="path4373"
           d="m 293.53429,184.62467 -1.81994,1.41551 -0.40444,2.22437 3.84211,0.60665 1.41551,-2.62881 -0.40443,-1.01108 z"
           style="fill:#000102;fill-opacity:1;fill-rule:evenodd;stroke:#000000;stroke-width:0.20018344px;stroke-linecap:butt;stroke-linejoin:miter;stroke-opacity:1" />
        <path
           sodipodi:nodetypes="cccccccccc"
           inkscape:connector-curvature="0"
           id="path4375"
           d="m 289.18665,184.22024 0.10111,-3.18491 c -0.34776,-1.39958 -0.1524,-1.25508 -1.51662,-1.3144 -1.12939,-0.30507 -0.95501,-0.18267 -0.10111,-0.80886 0.26685,-0.45032 0.14828,-0.77523 0.0505,-1.26385 l -1.4155,-0.0506 c -1.04706,-0.10382 -1.3529,0.23014 -2.07272,0.90997 -0.50139,1.84424 0.1267,3.38956 0.60665,5.00484 0.82228,0.14318 1.01409,0.39261 1.41551,1.06163 1.14311,0.16992 1.95234,0.16483 2.93213,-0.35387 z"
           style="fill:#000000;fill-opacity:1;fill-rule:evenodd;stroke:none;stroke-width:1px;stroke-linecap:butt;stroke-linejoin:miter;stroke-opacity:1" />
        <path
           inkscape:connector-curvature="0"
           id="path4377"
           d="m 297.98304,188.26455 4.75207,-0.45498 4.04431,0.6572 0,0"
           style="fill:none;fill-rule:evenodd;stroke:#000000;stroke-width:0.60055035;stroke-linecap:butt;stroke-linejoin:miter;stroke-miterlimit:4;stroke-dasharray:none;stroke-opacity:1" />
        <path
           inkscape:connector-curvature="0"
           id="path4379"
           d="m 298.1347,186.44461 1.51662,-0.40443 0.90997,-0.96053 1.9716,-0.10111 0.6572,-0.96052 2.62881,0.20222 0.75831,-0.80887"
           style="fill:none;fill-rule:evenodd;stroke:#000000;stroke-width:0.60055035;stroke-linecap:butt;stroke-linejoin:miter;stroke-miterlimit:4;stroke-dasharray:none;stroke-opacity:1" />
        <path
           inkscape:connector-curvature="0"
           id="path4381"
           d="m 297.42694,184.01802 2.57825,-0.85942 1.46607,-0.96052 2.37604,-1.3144 0,0"
           style="fill:none;fill-rule:evenodd;stroke:#000000;stroke-width:0.60055035;stroke-linecap:butt;stroke-linejoin:miter;stroke-miterlimit:4;stroke-dasharray:none;stroke-opacity:1" />
        <path
           inkscape:connector-curvature="0"
           id="path4383"
           d="m 289.69219,186.39406 -0.90997,-0.0506 -0.70776,0.80887 -2.88157,0 c 0,0 -1.06164,-0.20222 -1.36496,-0.15167 -0.30332,0.0506 -2.62881,0.20222 -2.62881,0.20222"
           style="fill:none;fill-rule:evenodd;stroke:#000000;stroke-width:0.60055035;stroke-linecap:butt;stroke-linejoin:miter;stroke-miterlimit:4;stroke-dasharray:none;stroke-opacity:1" />
        <path
           inkscape:connector-curvature="0"
           id="path4385"
           d="m 290.70327,189.47785 -1.61773,-0.25277 -0.30332,-0.45499 -2.72991,0.20222 -1.61773,0.6572 -1.92105,0 -0.45499,0.0505 -1.46606,0.75831"
           style="fill:none;fill-rule:evenodd;stroke:#000000;stroke-width:0.60055035;stroke-linecap:butt;stroke-linejoin:miter;stroke-miterlimit:4;stroke-dasharray:none;stroke-opacity:1" />
        <path
           inkscape:connector-curvature="0"
           id="path4387"
           d="m 288.32723,190.28671 -1.71883,0.0505 -0.75831,0.90998 -1.11219,0.60664"
           style="fill:none;fill-rule:evenodd;stroke:#000000;stroke-width:0.60055035;stroke-linecap:butt;stroke-linejoin:miter;stroke-miterlimit:4;stroke-dasharray:none;stroke-opacity:1" />
        <path
           inkscape:connector-curvature="0"
           id="path4389"
           d="m 294.49481,194.63435 -1.56717,0 -0.75831,0.45499 0.35388,0.85941 2.02216,0 0.50554,-0.75831 z"
           style="fill:#000102;fill-opacity:1;fill-rule:evenodd;stroke:#000000;stroke-width:0.20018344px;stroke-linecap:butt;stroke-linejoin:miter;stroke-opacity:1" />
        <path
           sodipodi:nodetypes="ccccscccccccc"
           inkscape:connector-curvature="0"
           id="path4391"
           d="m 297.09834,182.07169 -0.0505,-2.35076 c 0.18501,-0.9584 0.11074,-1.45085 -0.37916,-2.22437 l -0.88469,0.80886 c 0,0 -0.93525,0.0758 -0.96052,-0.0253 -0.0253,-0.1011 0.0505,-0.70775 0.17693,-0.7583 0.94117,-0.64183 0.64456,-0.84773 0.0506,-1.61773 l -2.02216,0.0505 -0.0253,2.17382 c 1.6889,0.62354 0.97498,1.24749 0.83414,3.00796 l 0.83414,0.37916 0.37916,0.73303 2.09799,-0.0758"
           style="fill:#000000;fill-opacity:1;fill-rule:evenodd;stroke:none;stroke-width:1px;stroke-linecap:butt;stroke-linejoin:miter;stroke-opacity:1" />
        <path
           sodipodi:nodetypes="cccccccccc"
           inkscape:connector-curvature="0"
           id="path4393"
           d="m 287.9537,169.83907 c 3.37022,0.99307 6.55046,2.40784 9.74055,3.852 1.82956,1.33709 3.1522,3.12745 4.57562,4.8616 l 2.55644,2.32102 -2.52472,-5.02763 -1.97882,-2.55007 -2.3584,-1.82482 -3.23229,-0.9696 -3.61528,-0.55991 z"
           style="fill:#ffffff;fill-opacity:0.30357145;fill-rule:evenodd;stroke:none;stroke-width:1px;stroke-linecap:butt;stroke-linejoin:miter;stroke-opacity:1" />
        <path
           inkscape:connector-curvature="0"
           id="path4395"
           d="m 278.0962,192.04411 4.00367,6.00551 6.29147,2.57378 6.00551,0.57196 4.57562,-1.42988 -8.29331,-1.14391 -3.7177,-0.57195 -4.28964,-2.28781 -3.14574,-2.57379 z"
           style="fill:#000000;fill-opacity:0.20238097;fill-rule:evenodd;stroke:none;stroke-width:1px;stroke-linecap:butt;stroke-linejoin:miter;stroke-opacity:1" />
        <path
           inkscape:connector-curvature="0"
           id="path4397"
           d="m 278.38217,202.05328 4.57563,1.14391 2.85976,0.28598 -0.57195,2.00183 -6.29148,0 -1.14391,-1.1439 z"
           style="fill:#000000;fill-opacity:0.20392157;fill-rule:evenodd;stroke:none;stroke-width:1px;stroke-linecap:butt;stroke-linejoin:miter;stroke-opacity:1" />
        <path
           inkscape:connector-curvature="0"
           id="path4399"
           d="m 297.82856,200.90938 1.42989,3.43172 3.71769,0.85793 2.28781,-0.28598 1.71586,-1.14391 -2.85976,-0.85792 -3.43172,-0.28598 -1.71586,-2.57379 z"
           style="fill:#000000;fill-opacity:0.20392157;fill-rule:evenodd;stroke:none;stroke-width:1px;stroke-linecap:butt;stroke-linejoin:miter;stroke-opacity:1" />
      </g>
      <text
         sodipodi:linespacing="125%"
         id="text5425"
         y="263.73306"
         x="193.36646"
         style="font-style:normal;font-variant:normal;font-weight:normal;font-stretch:normal;font-size:31.70523834px;line-height:125%;font-family:'Pipe Dream';-inkscape-font-specification:'Pipe Dream, Normal';text-align:start;letter-spacing:0px;word-spacing:0px;writing-mode:lr-tb;text-anchor:start;fill:#ff6600;fill-opacity:1;stroke:none;stroke-width:1px;stroke-linecap:butt;stroke-linejoin:miter;stroke-opacity:1"
         xml:space="preserve"><tspan
           y="263.73306"
           x="193.36646"
           id="tspan5427"
           sodipodi:role="line">LOADING</tspan></text>
    </g>
    <g
       id="g6153"
       transform="matrix(0.69448725,0,0,0.69448725,24.650951,128.57404)"
       inkscape:export-xdpi="90"
       inkscape:export-ydpi="90"
       inkscape:export-filename="mono.png">
      <g
         id="g6155"
         style="stroke:#ff6600">
        <path
           transform="matrix(-0.00433086,0.99999062,0.99999062,0.00433086,-82.645072,691.14509)"
           d="m -282.6524,375.28395 c 8.1875,7.22451 7.452,20.08446 0.21627,27.67601 -6.12815,6.4295 -15.70098,8.46616 -24.07211,5.78335"
           sodipodi:t0="0.67612386"
           sodipodi:argument="-18.814787"
           sodipodi:radius="25.18152"
           sodipodi:revolution="1.3130248"
           sodipodi:expansion="1"
           sodipodi:cy="385.86221"
           sodipodi:cx="-295.99329"
           id="path6157"
           style="fill:none;fill-rule:evenodd;stroke:#ff6600;stroke-width:5;stroke-linecap:butt;stroke-linejoin:miter;stroke-miterlimit:4;stroke-dasharray:none;stroke-opacity:1"
           sodipodi:type="spiral" />
        <path
           sodipodi:type="spiral"
           style="fill:none;fill-rule:evenodd;stroke:#ff6600;stroke-width:5;stroke-linecap:butt;stroke-linejoin:miter;stroke-miterlimit:4;stroke-dasharray:none;stroke-opacity:1"
           id="path6159"
           sodipodi:cx="-295.99329"
           sodipodi:cy="385.86221"
           sodipodi:expansion="1"
           sodipodi:revolution="1.3130248"
           sodipodi:radius="25.18152"
           sodipodi:argument="-18.814787"
           sodipodi:t0="0.67612386"
           d="m -282.6524,375.28395 c 8.1875,7.22451 7.452,20.08446 0.21627,27.67601 -6.12815,6.4295 -15.70098,8.46616 -24.07211,5.78335"
           transform="matrix(0.00433086,-0.99999062,-0.99999062,-0.00433086,738.17063,83.188561)" />
      </g>
      <path
         style="opacity:1;fill:#ff6600;fill-opacity:1;stroke:#ff6600;stroke-width:3;stroke-miterlimit:4;stroke-dasharray:none;stroke-opacity:1"
         id="path6161"
         sodipodi:type="arc"
         sodipodi:cx="286.55502"
         sodipodi:cy="395.81357"
         sodipodi:rx="9.0156116"
         sodipodi:ry="23.688078"
         sodipodi:start="0"
         sodipodi:end="6.277129"
         sodipodi:open="true"
         d="m 295.57063,395.81357 a 9.0156116,23.688078 0 0 1 -9.00196,23.68805 9.0156116,23.688078 0 0 1 -9.02922,-23.61632 9.0156116,23.688078 0 0 1 8.97462,-23.75957 9.0156116,23.688078 0 0 1 9.0564,23.54438" />
      <path
         d="m 295.84672,396.69745 a 9.2916946,15.302104 0 0 1 -9.27763,15.30209 9.2916946,15.302104 0 0 1 -9.30572,-15.25575 9.2916946,15.302104 0 0 1 9.24945,-15.34829 9.2916946,15.302104 0 0 1 9.33373,15.20928"
         sodipodi:open="true"
         sodipodi:end="6.277129"
         sodipodi:start="0"
         sodipodi:ry="15.302104"
         sodipodi:rx="9.2916946"
         sodipodi:cy="396.69745"
         sodipodi:cx="286.55502"
         sodipodi:type="arc"
         id="path6163"
         style="opacity:1;fill:#ff9900;fill-opacity:1;stroke:#ff6600;stroke-width:2.44783306;stroke-miterlimit:4;stroke-dasharray:none;stroke-opacity:1" />
      <path
         style="opacity:1;fill:#ff6600;fill-opacity:1;stroke:none;stroke-width:3;stroke-miterlimit:4;stroke-dasharray:none"
         id="path6165"
         sodipodi:type="arc"
         sodipodi:cx="287.28354"
         sodipodi:cy="363.56442"
         sodipodi:rx="24.719643"
         sodipodi:ry="15.278556"
         sodipodi:start="0"
         sodipodi:end="6.277129"
         sodipodi:open="true"
         d="m 312.00318,363.56442 a 24.719643,15.278556 0 0 1 -24.68221,15.27854 24.719643,15.278556 0 0 1 -24.75696,-15.23227 24.719643,15.278556 0 0 1 24.60725,-15.32467 24.719643,15.278556 0 0 1 24.83147,15.18587" />
      <path
         style="opacity:1;fill:#ff6600;fill-opacity:1;stroke:none;stroke-width:3;stroke-miterlimit:4;stroke-dasharray:none"
         id="path6167"
         sodipodi:type="arc"
         sodipodi:cx="286.48804"
         sodipodi:cy="345.7605"
         sodipodi:rx="17.67767"
         sodipodi:ry="22.728432"
         sodipodi:start="0"
         sodipodi:end="6.277129"
         sodipodi:open="true"
         d="m 304.16571,345.7605 a 17.67767,22.728432 0 0 1 -17.65091,22.7284 17.67767,22.728432 0 0 1 -17.70435,-22.65958 17.67767,22.728432 0 0 1 17.59729,-22.79702 17.67767,22.728432 0 0 1 17.75764,22.59055" />
      <path
         style="opacity:1;fill:#ff6600;fill-opacity:1;stroke:none;stroke-width:3;stroke-miterlimit:4;stroke-dasharray:none"
         id="path6169"
         sodipodi:type="arc"
         sodipodi:cx="269.45819"
         sodipodi:cy="329.85059"
         sodipodi:rx="7.5761442"
         sodipodi:ry="7.8286824"
         sodipodi:start="0"
         sodipodi:end="6.277129"
         sodipodi:open="true"
         d="m 277.03434,329.85059 a 7.5761442,7.8286824 0 0 1 -7.56468,7.82867 7.5761442,7.8286824 0 0 1 -7.58758,-7.80497 7.5761442,7.8286824 0 0 1 7.5417,-7.85231 7.5761442,7.8286824 0 0 1 7.61042,7.78119" />
      <path
         d="m 310.62192,330.10315 a 7.5761442,7.8286824 0 0 1 -7.56467,7.82867 7.5761442,7.8286824 0 0 1 -7.58758,-7.80496 7.5761442,7.8286824 0 0 1 7.54169,-7.85231 7.5761442,7.8286824 0 0 1 7.61042,7.78119"
         sodipodi:open="true"
         sodipodi:end="6.277129"
         sodipodi:start="0"
         sodipodi:ry="7.8286824"
         sodipodi:rx="7.5761442"
         sodipodi:cy="330.10315"
         sodipodi:cx="303.04578"
         sodipodi:type="arc"
         id="path6171"
         style="opacity:1;fill:#ff6600;fill-opacity:1;stroke:none;stroke-width:3;stroke-miterlimit:4;stroke-dasharray:none" />
      <path
         d="m 302.1454,343.23514 a 15.657364,17.425133 0 0 1 -15.63366,17.42511 15.657364,17.425133 0 0 1 -15.68099,-17.37235 15.657364,17.425133 0 0 1 15.58617,-17.47772 15.657364,17.425133 0 0 1 15.72819,17.31943"
         sodipodi:open="true"
         sodipodi:end="6.277129"
         sodipodi:start="0"
         sodipodi:ry="17.425133"
         sodipodi:rx="15.657364"
         sodipodi:cy="343.23514"
         sodipodi:cx="286.48804"
         sodipodi:type="arc"
         id="path6173"
         style="opacity:1;fill:#ff9900;fill-opacity:1;stroke:none;stroke-width:3;stroke-miterlimit:4;stroke-dasharray:none" />
      <path
         d="m 307.91207,363.05936 a 20.199207,12.248098 0 0 1 -20.16863,12.24808 20.199207,12.248098 0 0 1 -20.22969,-12.21099 20.199207,12.248098 0 0 1 20.10736,-12.28507 20.199207,12.248098 0 0 1 20.29059,12.1738"
         sodipodi:open="true"
         sodipodi:end="6.277129"
         sodipodi:start="0"
         sodipodi:ry="12.248098"
         sodipodi:rx="20.199207"
         sodipodi:cy="363.05936"
         sodipodi:cx="287.71286"
         sodipodi:type="arc"
         id="path6175"
         style="opacity:1;fill:#ff9900;fill-opacity:1;stroke:none;stroke-width:3;stroke-miterlimit:4;stroke-dasharray:none" />
      <path
         style="opacity:1;fill:#ffffff;fill-opacity:1;stroke:none;stroke-width:3;stroke-miterlimit:4;stroke-dasharray:none"
         id="path6177"
         sodipodi:type="arc"
         sodipodi:cx="280.06479"
         sodipodi:cy="338.56317"
         sodipodi:rx="3.0304577"
         sodipodi:ry="3.6618028"
         sodipodi:start="0"
         sodipodi:end="6.277129"
         sodipodi:open="true"
         d="m 283.09525,338.56317 a 3.0304577,3.6618028 0 0 1 -3.02587,3.6618 3.0304577,3.6618028 0 0 1 -3.03504,-3.65071 3.0304577,3.6618028 0 0 1 3.01668,-3.67285 3.0304577,3.6618028 0 0 1 3.04417,3.63958" />
      <path
         d="m 282.08511,338.8157 a 1.8940362,2.6516502 0 0 1 -1.89117,2.65165 1.8940362,2.6516502 0 0 1 -1.8969,-2.64362 1.8940362,2.6516502 0 0 1 1.88543,-2.65965 1.8940362,2.6516502 0 0 1 1.9026,2.63557"
         sodipodi:open="true"
         sodipodi:end="6.277129"
         sodipodi:start="0"
         sodipodi:ry="2.6516502"
         sodipodi:rx="1.8940362"
         sodipodi:cy="338.8157"
         sodipodi:cx="280.19107"
         sodipodi:type="arc"
         id="path6179"
         style="opacity:1;fill:#000000;fill-opacity:1;stroke:none;stroke-width:3;stroke-miterlimit:4;stroke-dasharray:none" />
      <g
         id="g6181"
         transform="translate(7.5761441,-12.626907)">
        <path
           style="opacity:1;fill:#ffffff;fill-opacity:1;stroke:none;stroke-width:3;stroke-miterlimit:4;stroke-dasharray:none"
           id="path6183"
           sodipodi:type="arc"
           sodipodi:cx="283.85287"
           sodipodi:cy="351.69516"
           sodipodi:rx="3.0304577"
           sodipodi:ry="3.6618028"
           sodipodi:start="0"
           sodipodi:end="6.277129"
           sodipodi:open="true"
           d="m 286.88333,351.69516 a 3.0304577,3.6618028 0 0 1 -3.02587,3.6618 3.0304577,3.6618028 0 0 1 -3.03503,-3.65071 3.0304577,3.6618028 0 0 1 3.01668,-3.67286 3.0304577,3.6618028 0 0 1 3.04417,3.63959" />
        <path
           d="m 285.87319,351.94769 a 1.8940362,2.6516502 0 0 1 -1.89117,2.65165 1.8940362,2.6516502 0 0 1 -1.89689,-2.64362 1.8940362,2.6516502 0 0 1 1.88542,-2.65965 1.8940362,2.6516502 0 0 1 1.90261,2.63556"
           sodipodi:open="true"
           sodipodi:end="6.277129"
           sodipodi:start="0"
           sodipodi:ry="2.6516502"
           sodipodi:rx="1.8940362"
           sodipodi:cy="351.94769"
           sodipodi:cx="283.97916"
           sodipodi:type="arc"
           id="path6185"
           style="opacity:1;fill:#000000;fill-opacity:1;stroke:none;stroke-width:3;stroke-miterlimit:4;stroke-dasharray:none" />
      </g>
      <path
         style="opacity:1;fill:#cc0000;fill-opacity:1;stroke:none;stroke-width:3;stroke-miterlimit:4;stroke-dasharray:none"
         d="m 286.71484,346.77148 a 9.2176418,3.5355339 0 0 0 -9.17578,3.54493 9.2176418,3.5355339 0 0 0 0.75391,1.3789 l 1.25976,-0.67187 3.30469,-0.35742 2.14258,1.07031 -0.91211,1.95312 a 9.2176418,3.5355339 0 0 0 2.68359,0.15235 9.2176418,3.5355339 0 0 0 1.76368,-0.0684 l 1.19726,-2.39258 3.21485,-0.17969 1.25,1.18555 a 9.2176418,3.5355339 0 0 0 1.77734,-2.08008 l 0,-0.0215 a 9.2176418,3.5355339 0 0 0 -9.25977,-3.51368 z"
         id="path6187"
         inkscape:connector-curvature="0" />
      <path
         style="opacity:1;fill:#ff9900;fill-opacity:1;stroke:none;stroke-width:3;stroke-miterlimit:4;stroke-dasharray:none"
         id="path6189"
         sodipodi:type="arc"
         sodipodi:cx="268.87735"
         sodipodi:cy="330.31778"
         sodipodi:rx="3.1819806"
         sodipodi:ry="2.9168155"
         sodipodi:start="0"
         sodipodi:end="6.277129"
         sodipodi:open="true"
         d="m 272.05933,330.31778 a 3.1819806,2.9168155 0 0 1 -3.17716,2.91681 3.1819806,2.9168155 0 0 1 -3.18679,-2.90798 3.1819806,2.9168155 0 0 1 3.16752,-2.92562 3.1819806,2.9168155 0 0 1 3.19637,2.89912" />
      <path
         style="opacity:1;fill:#ff9900;fill-opacity:1;stroke:none;stroke-width:3;stroke-miterlimit:4;stroke-dasharray:none"
         id="path6191"
         sodipodi:type="arc"
         sodipodi:cx="304.48019"
         sodipodi:cy="329.34552"
         sodipodi:rx="3.0759144"
         sodipodi:ry="3.1819806"
         sodipodi:start="0"
         sodipodi:end="6.277129"
         sodipodi:open="true"
         d="m 307.55611,329.34552 a 3.0759144,3.1819806 0 0 1 -3.07126,3.18198 3.0759144,3.1819806 0 0 1 -3.08056,-3.17234 3.0759144,3.1819806 0 0 1 3.06193,-3.19159 3.0759144,3.1819806 0 0 1 3.08983,3.16268" />
      <path
         style="opacity:1;fill:#ffffff;fill-opacity:1;stroke:#cc0000;stroke-width:2.462291;stroke-miterlimit:4;stroke-dasharray:none;stroke-opacity:1"
         id="path6193"
         sodipodi:type="arc"
         sodipodi:cx="287.11426"
         sodipodi:cy="372.92517"
         sodipodi:rx="7.9097819"
         sodipodi:ry="1.7163162"
         sodipodi:start="0"
         sodipodi:end="6.277129"
         sodipodi:open="true"
         d="m 295.02404,372.92517 a 7.9097819,1.7163162 0 0 1 -7.89781,1.71632 7.9097819,1.7163162 0 0 1 -7.92172,-1.71112 7.9097819,1.7163162 0 0 1 7.87382,-1.7215 7.9097819,1.7163162 0 0 1 7.94556,1.70591" />
      <path
         style="fill:#ff6600;fill-opacity:1;fill-rule:evenodd;stroke:none;stroke-width:1px;stroke-linecap:butt;stroke-linejoin:miter;stroke-opacity:1"
         d="m 277.89297,380.96432 -55.86144,-14.49569 -2.47487,7.42462 59.04341,11.31371 z"
         id="path6195"
         inkscape:connector-curvature="0" />
      <path
         style="fill:#ff6600;fill-opacity:1;fill-rule:evenodd;stroke:none;stroke-width:1px;stroke-linecap:butt;stroke-linejoin:miter;stroke-opacity:1"
         d="m 294.86353,380.96432 48.08326,-15.55635 1.06066,6.71751 -49.85103,12.37437 z"
         id="path6197"
         inkscape:connector-curvature="0" />
      <path
         style="fill:#ff6600;fill-rule:evenodd;stroke:none;stroke-width:1px;stroke-linecap:butt;stroke-linejoin:miter;stroke-opacity:1"
         d="m 281.07495,415.9661 -20.85965,38.18377 8.13172,1.41421 15.55635,-38.53732 -4.94974,-1.06066 z"
         id="path6199"
         inkscape:connector-curvature="0" />
      <path
         style="fill:#ff6600;fill-rule:evenodd;stroke:none;stroke-width:1px;stroke-linecap:butt;stroke-linejoin:miter;stroke-opacity:1"
         d="m 293.80287,412.07701 33.94112,38.53732 -7.77817,3.88909 -28.63783,-39.95153 z"
         id="path6201"
         inkscape:connector-curvature="0" />
    </g>
    <text
       xml:space="preserve"
       style="font-style:normal;font-variant:normal;font-weight:normal;font-stretch:normal;font-size:57.20912552px;line-height:125%;font-family:'Pipe Dream';-inkscape-font-specification:'Pipe Dream, Normal';text-align:start;letter-spacing:0px;word-spacing:0px;writing-mode:lr-tb;text-anchor:start;fill:#ff6600;fill-opacity:1;stroke:none;stroke-width:1px;stroke-linecap:butt;stroke-linejoin:miter;stroke-opacity:1"
       x="91.358894"
       y="538.52014"
       id="text6209"
       sodipodi:linespacing="125%"
       inkscape:export-xdpi="90"
       inkscape:export-ydpi="90"
       inkscape:export-filename="tap-to-start.png"><tspan
         sodipodi:role="line"
         id="tspan6211"
         x="91.358894"
         y="538.52014">tap to start</tspan></text>
  </g>
</svg>
