<?xml version="1.0" encoding="utf-8"?>
<!-- Generator: Adobe Illustrator 18.0.0, SVG Export Plug-In . SVG Version: 6.00 Build 0)  -->
<!DOCTYPE svg PUBLIC "-//W3C//DTD SVG 1.1//EN" "http://www.w3.org/Graphics/SVG/1.1/DTD/svg11.dtd">
<svg version="1.1" id="Layer_1" xmlns="http://www.w3.org/2000/svg" xmlns:xlink="http://www.w3.org/1999/xlink" x="0px" y="0px"
	 viewBox="0 0 612 792" enable-background="new 0 0 612 792" xml:space="preserve">
<g>
	<path fill="#FFFFFF" d="M581.5,161.5L581.5,161.5c-6.1-3.5-12.9-4.6-20.5-3.2h0c-7.5,1.3-13.6,4.8-18.1,10.2h0v0
		c-3.7,4.5-5.6,9.3-5.6,14.5c-16.3,2.2-31.6,6.5-46,12.8c-3.4-14.4-11.3-25-23.4-31.7c-0.3-0.2-0.6-0.4-1-0.5l16.7-13.6
		c3.5,2.5,7.7,3.8,12.6,4c4,0.1,7.3-0.3,10-1.3c2.9-1,5.8-2.6,8.5-4.8c5.7-4.6,8.9-10.3,9.8-17.1c0.8-7-0.9-13.2-5.4-18.4
		c-4.5-5.2-10.3-8-17.5-8.5h-0.1c-7-0.3-13.3,1.7-18.8,6.3l0,0c-5.6,4.5-8.8,10.2-9.7,17v0c-0.7,5.9,0.4,11.1,3.5,15.8l-19.8,16.1
		c-8.4-2.8-17.8-4.1-28.1-3.8c-14.7,0.2-30.4,3.6-47.1,10c-5.2,1.9-10.4,4.1-15.6,6.6c-1.9-7.3-4.5-13-7.9-16.8
		c-5.3-6.2-11.1-7.8-17.2-4.8c-5.3,2.1-9.6,7.7-12.9,16.9v0c-2.9,8.2-4.6,18.5-4.9,30.9c-13.8,10.5-27.3,22.8-40.5,36.9
		c-27.7,0.9-53.7,5.8-78,14.9h371.8c-1.2-0.8-2.4-1.6-3.8-2.3c-8.2-4.7-19.1-8-32.7-10.1c-14.4-2.2-30.4-2.8-47.9-1.8
		c0.9-5.4,1.4-10.6,1.7-15.4c0.2-5,0.2-9.7-0.2-14.1c14.2-6.5,29.5-10.9,45.8-13.1c1.5,3,4.2,6,8.3,8.9c0.3,0.2,0.6,0.4,1,0.6
		l1.1,0.6c6.1,3.5,12.9,4.6,20.5,3.2c7.5-1.3,13.6-4.8,18.1-10.2c4.8-5.8,6.6-12.1,5.3-18.9C592,170.4,588.1,165.2,581.5,161.5
		L581.5,161.5z M483.5,144.1l-0.3-0.4C483.3,143.8,483.4,143.9,483.5,144.1L483.5,144.1L483.5,144.1z"/>
	<path fill="#FFFFFF" d="M631.4,259.5c-5.2-0.8-9.9,0-14.1,2.4l0,0l0,0c-2.4,1.4-4.3,3.2-5.7,5.3c-7.6-1-15.3-1.5-22.9-1.5
		c-1.8-6.1-6.1-11.4-12.7-15.9H204c-15.2,5.6-29.7,12.8-43.5,21.5c-0.3-6,0.5-11.8,2.5-17.4c2.8-0.1,5.6-0.9,8.4-2.4l0.3-0.2
		l0.5-0.3c0.5-0.3,1.1-0.7,1.7-1.1h-36.2c-1.8,1.5-3.7,3-5.6,4.2c-0.1,0-0.2,0.1-0.2,0.2c-7.2,4.5-15.3,6.9-24.5,7.3
		c2.9-3.6,5.6-7.6,8.2-11.7H-36.5c1,4.2,2.7,8.2,4.8,11.8c4,7,11.7,12.9,23.1,17.7c9.5,4.1,20.8,6.9,33.6,8.6c3.2,0.4,6.5,0.7,9.7,1
		c-8.1,4.6-15.2,9.9-21.2,15.9C4.4,314,0,322.7,0.4,331c-1,0.4-2,0.9-3,1.4l-10,4.8l10.4,4.2c7.5,2.9,14.2,6.9,20.2,11.9
		c0,1.5,0.3,3.1,1,4.7V358c1.2,3.1,3.4,5.6,6.7,7.3h0c3.2,1.6,6.5,2,9.8,1.2h0c2.5-0.6,4.5-1.8,6-3.5c2.4-2.6,3.3-5.9,2.8-9.9
		l-0.1-0.7c-0.1-0.4-0.3-0.9-0.4-1.3c0,0,0-0.1,0-0.1c0-0.1-0.1-0.3-0.1-0.4c0,0,0,0,0-0.1c0,0,0-0.1-0.1-0.2
		c-1-2.2-2.4-4.1-4.3-5.5l0,0c-0.7-0.6-1.5-1.1-2.3-1.5c0,0,0,0,0,0c-2-1-4-1.5-6-1.6c-0.8-1.5-1.5-3-1.8-4.3
		c-0.3-1.5-0.4-2.9,0-4.2c2.2-6.6,12.3-12.2,30.1-16.5c0,0.1,0.1,0.2,0.2,0.4l5.1,11.7l9.9,18.6c-4.6,2.8-9.3,5.7-13.9,8.6
		c-0.1,0-0.2,0.1-0.3,0.2C41.2,368.2,22.5,381.8,4,396.8h599.6c0-0.4,0-0.8,0-1.2l-0.1-1.8l-1.2-1.3c-22.1-24.4-45.6-44.8-70.4-61.3
		l-6.3-4.2l-1.6,8.8c-11.9-5.5-23.8-10.6-35.8-15.4c24.6-5.2,45-10.9,61.2-16.9c23.6-8.8,36.8-18,39.6-27.5c6.7,0,13.4,0.3,20.1,1.2
		c0.2,3.3,1.7,6.4,4.3,9.3l0.1,0c3.1,3.6,7.3,5.8,12.6,6.7c5.2,0.8,9.9,0,14.1-2.4h0c4.7-2.7,7.4-6.5,8-11.3v0
		c0.8-4.7-0.5-9.1-4.1-13.2C640.9,262.5,636.6,260.3,631.4,259.5L631.4,259.5z M146.7,279.7l0.8,0.5c-4.6,3.3-9.1,6.8-13.6,10.6
		l0.8,1l-0.8-1l-1-1.3l-0.7-0.9l0.7,0.9c1.3-0.7,2.5-1.4,3.8-2.2C140.3,285,143.7,282.5,146.7,279.7L146.7,279.7z"/>
	<path fill="#FFFFFF" d="M247.6,150.4c0-4-1.4-7.5-4.3-10.3c-2.8-2.8-6.3-4.3-10.3-4.3c-4,0-7.5,1.4-10.3,4.2v0h0
		c-2.8,2.8-4.2,6.3-4.2,10.3c0,0.3,0,0.7,0,1c-1.3,0.9-2.5,1.7-3.8,2.6c-2.4-2.1-5-3.8-7.8-5.1c-1.4-0.6-3.3-1.3-5.8-2
		c-7.2-1.7-13.7-0.6-19.3,3.3h0c-5.8,3.9-9.2,9.6-10.2,17.2c-0.6,0.2-1.3,0.4-2,0.7l-1.5,0.6c-0.6,0.2-1.5,0.6-2.6,1.3l-0.1,0
		c-6.1,3.2-11.5,6.7-16.1,10.5l-0.5,0.4c-5.5,4.5-10,9.5-13.4,14.9c-1.8,2.9-3.3,5.7-4.3,8.4c0.2-6.1-0.3-12.1-1.6-17.9
		c-2.8-12.6-10.4-22.5-22.7-29.7c-8.1-4.8-20.9-9.3-38.3-13.5h0c-9.4-2.1-16.5-3.8-21.3-5c-8.3-2-15.4-4-21.3-5.9
		c-15.4-5-27.7-11.6-36.8-19.6l-11.6-9.9l3.4,14.8c2.7,11.4,2.8,24.1,0.4,38.2v0c-1.4,8.1-4.6,20.6-9.8,37.4
		c-4.8,15.9-7.7,27.7-8.5,35.4v0c-0.8,7.7-0.4,14.7,1.1,21h152.1c2-3.4,3.9-6.9,5.7-10.6c3.6-7.6,6.2-15,7.7-22.2
		c0.4,2.6,1.3,5,2.9,7.4l0.2,0.4l0.3,0.3c3.5,4.2,8.3,6.6,14.3,7c-0.9,2.9-1.1,5.7-0.5,8.4c-2.6,3.5-5.4,6.6-8.4,9.2H174
		c2.8-2.1,4.9-4.9,6.3-8.2v0l0-0.1c0.1-0.2,0.2-0.5,0.3-0.8c1.8-4.8,1.6-9.4-0.4-13.8c-0.2-0.7-0.8-1.6-1.7-2.9l-0.3-0.3
		c-0.2-0.2-0.4-0.4-0.5-0.6c0,0,0,0,0-0.1c5.5-3.5,11-7.9,16.4-13.3h0c1.5-1.5,2.9-3.1,4.2-4.8c6.7,1.3,12.7,0.1,18-3.5
		c6.1-4.1,9.5-10.3,10.2-18.5c0.1-1.7,0.1-3.5,0-5.2c-0.1-2.1-0.5-4.2-1.1-6.3v0c-0.3-1.3-0.8-2.5-1.3-3.8c1.2-1,2.5-2,3.9-3.1
		c1.5,0.5,3.1,0.8,4.9,0.8c4,0,7.4-1.4,10.3-4.2c0,0,0,0,0.1-0.1C246.2,157.9,247.6,154.5,247.6,150.4L247.6,150.4z M189.5,165.3
		c0.4-0.6,1-1.2,1.7-1.6c2.1-1.4,4.6-1.7,7.4-0.8C195.3,164.1,192.2,164.9,189.5,165.3L189.5,165.3z M207,186.7
		c-0.2,0.1-0.4,0.2-0.5,0.3c0.4-0.7,0.8-1.5,1.3-2.3l0-0.1l0.1-0.1c0.1-0.1,0.2-0.3,0.3-0.5c0,0,0,0,0,0c0.6-0.8,1.2-1.7,1.9-2.5
		C209.8,183.6,208.7,185.4,207,186.7L207,186.7z M206.5,186l0-0.2C206.5,185.9,206.5,186,206.5,186S206.5,186,206.5,186L206.5,186z"
		/>
	<path fill="#FFFFFF" d="M-15.2,413l-1.5,1.3l-0.1,2c-2.8,40.2,2.7,80.4,16.8,120.5c0.3,0.8,0.8,1.6,1.4,2.1c0.5,0.4,1.1,0.7,1.8,1
		l0.2,0c0,0,0.1,0,0.2,0l13.9,3.5h467.5c3-4.9,5.8-10,8.4-15.1c3-5.6,5.6-11.4,7.7-17.4l9.2,1.5l5.3-6.3l3.6,37.3h13l17.6-1.3
		c0.1,0,0.2,0,0.3,0h0.1l0.2,0c0.2,0,0.4-0.1,0.7-0.1l39.7-11.9L581,465.8l15.1-12.1l0,0c0,0,0,0,0.1-0.1c0.8-0.6,1.3-1.5,1.6-2.5
		c4.5-17.4,6.4-35.5,5.7-54.2H4C-2.4,402-8.8,407.4-15.2,413L-15.2,413z"/>
	<path fill="#FFFFFF" d="M93,566.4C92.9,566.4,92.9,566.4,93,566.4l-0.1,0.1c-3.5,1.9-5.6,5.1-6.3,9.3v0c-0.7,3.8-0.1,7.5,2,11.1v0
		c0.6,1.1,1.3,2.1,2.2,2.9l-3.5,9.7c-4.7-2.5-9.4-4.7-14.1-6.6h0c-1.7-0.7-3.3-1.3-5-1.9l-6-2.2l-3.5,34.4
		c-8.1,9.7-12.5,19-13.2,27.9v0c-1,10.8,3.1,20.4,12.7,28.8c9.9,8.7,20.7,12,32.4,9.9c10.9-1.9,20.2-8.2,27.7-19.1l35.6-10l-4.5-5.8
		c-3.1-4-6.3-7.9-9.5-11.6l13.3-6.4c0.7,0.4,1.6,0.9,2.5,1.2c3.3,1.3,6.8,1.4,10.2,0.4h0c3.4-1,5.9-2.9,7.5-5.6
		c31.2,15.2,66.1,22.8,104.7,22.8c39.2,0,75.1-7.8,107.7-23.6l8.1-4.1c16.9-9,33-20.3,48.1-33.7c17.6-15.6,32-32.5,43.2-50.6H17.6
		l50.3,12.7l10.8-11.9C82.8,551.9,87.6,559.3,93,566.4L93,566.4z M112.7,589.1c1.7,1.7,3.4,3.4,5.2,5c2.2,2.1,4.5,4.2,6.8,6.2
		l-12.4,16.2l0,0c0,0-0.1-0.1-0.2-0.1c-0.2-0.2-0.4-0.3-0.6-0.5h0c-3.6-2.9-8.8-6.6-15.5-11.1l3.6-10c3.1,0.5,6.1,0.1,8.8-1.6h0
		C110.2,592.1,111.6,590.8,112.7,589.1L112.7,589.1z M132.4,606.8c5.4,4.4,11.1,8.5,16.9,12.3c-0.4,0.5-0.8,1.1-1.1,1.8v0
		c-1.3,2.5-1.6,5-1,7.6l-14.3,6.9c-0.1-0.1-0.2-0.2-0.3-0.3c-4.1-4.3-8.3-8.3-12.5-12.1L132.4,606.8L132.4,606.8z"/>
	<polygon fill="#FFFFFF" points="519.5,543.6 519.6,544.6 532.5,543.6 519.5,543.6 	"/>
	<path fill="none" stroke="#FFFFFF" stroke-width="4.998000e-002" stroke-miterlimit="10" d="M132.9,289.5l-0.7-0.9 M134.7,291.9
		l-0.8-1"/>
	
		<path fill="none" stroke="#000000" stroke-width="4.998" stroke-linecap="round" stroke-linejoin="round" stroke-miterlimit="10" d="
		M620.3,273.8c-14.2-2.8-28.5-3.6-42.7-2.5"/>
	<path fill="#00746B" d="M547.6,298.6c27-10.1,39.2-20.2,36.5-30.3c-1.7-6.4-6.5-11.9-14.5-16.3c-7.8-4.4-18.1-7.5-31-9.5
		c-27.3-4.1-60.5-2.5-99.5,4.8l-10.5,78.5C480.5,317.8,520.2,308.7,547.6,298.6L547.6,298.6z"/>
	<path fill="#2A5953" d="M580.8,269.5c-1.6-5.3-6.3-9.6-13.9-13c-7.5-3.2-17.4-5.3-29.8-6.2c-26.3-1.9-58.2,1.4-95.8,9.9l-10.1,67.2
		c50-9.8,88.2-19.8,114.5-30C571.7,287.3,583.4,278,580.8,269.5L580.8,269.5z"/>
	
		<path fill="none" stroke="#000000" stroke-width="4.998" stroke-linecap="round" stroke-linejoin="round" stroke-miterlimit="10" d="
		M428.6,325.7c51.9-7.9,91.6-17,119-27.1c27-10.1,39.2-20.2,36.5-30.3c-1.7-6.4-6.5-11.9-14.5-16.3c-7.8-4.4-18.1-7.5-31-9.5
		c-27.3-4.1-60.5-2.5-99.5,4.8"/>
	<path fill="#F26D7D" d="M640.3,269.5c-2.4-2.7-5.6-4.4-9.7-5c-4-0.6-7.6,0-10.8,1.8c-3.2,1.9-5,4.5-5.6,7.7c-0.5,3.2,0.5,6.3,2.9,9
		c2.4,2.7,5.6,4.4,9.7,5.1c4,0.6,7.6,0,10.8-1.8c3.2-1.8,5.1-4.4,5.6-7.7C643.8,275.3,642.8,272.3,640.3,269.5L640.3,269.5z"/>
	<path fill="#B25963" d="M639.6,274.4c-1.6-1.8-3.7-2.9-6.4-3.3c-2.6-0.4-5,0-7.1,1.2c-2.1,1.2-3.3,2.9-3.7,5.1
		c-0.3,2.1,0.3,4.1,1.9,6c1.6,1.8,3.7,2.9,6.4,3.3c2.6,0.4,5,0,7.2-1.2c2.1-1.2,3.3-2.9,3.6-5C641.9,278.3,641.2,276.3,639.6,274.4
		L639.6,274.4z"/>
	
		<path fill="none" stroke="#000000" stroke-width="4.998" stroke-linecap="round" stroke-linejoin="round" stroke-miterlimit="10" d="
		M630.6,264.4c-4-0.6-7.6,0-10.8,1.8c-3.2,1.9-5,4.5-5.6,7.7c-0.5,3.2,0.5,6.3,2.9,9c2.4,2.7,5.6,4.4,9.7,5.1s7.6,0,10.8-1.8
		c3.2-1.8,5.1-4.4,5.6-7.7c0.5-3.2-0.4-6.3-2.9-9.1C637.8,266.7,634.6,265.1,630.6,264.4L630.6,264.4z"/>
	<path fill="#FFD064" d="M554.8,266.2c0-4.1-2-7.6-5.9-10.6s-8.7-4.4-14.3-4.4c-5.6,0-10.4,1.4-14.3,4.4c-3.9,2.9-5.9,6.4-5.9,10.6
		s1.9,7.6,5.9,10.6c3.9,2.9,8.7,4.4,14.3,4.4c5.6,0,10.3-1.4,14.3-4.4S554.8,270.4,554.8,266.2L554.8,266.2z"/>
	
		<path fill="none" stroke="#000000" stroke-width="2.9988" stroke-linecap="round" stroke-linejoin="round" stroke-miterlimit="10" d="
		M548.8,255.6c-3.9-2.9-8.7-4.4-14.3-4.4s-10.4,1.4-14.3,4.4c-3.9,2.9-5.9,6.4-5.9,10.6c0,4.1,1.9,7.6,5.9,10.6s8.7,4.4,14.3,4.4
		c5.6,0,10.3-1.4,14.3-4.4s5.9-6.4,5.9-10.6C554.8,262.1,552.8,258.6,548.8,255.6L548.8,255.6z"/>
	<path fill="#2F211E" d="M538.3,265.1c0-1.4-0.7-2.6-2.2-3.7c-1.4-1-3.2-1.5-5.3-1.5c-2.1,0-3.9,0.5-5.3,1.5c-1.4,1-2.1,2.2-2.1,3.7
		c0,1.4,0.7,2.6,2.1,3.7c1.4,1,3.2,1.5,5.3,1.5c2,0,3.8-0.5,5.3-1.5C537.5,267.8,538.3,266.6,538.3,265.1L538.3,265.1z"/>
	
		<path fill="none" stroke="#000000" stroke-width="2.9988" stroke-linecap="round" stroke-linejoin="round" stroke-miterlimit="10" d="
		M536.1,261.4c-1.4-1-3.2-1.5-5.3-1.5c-2.1,0-3.9,0.5-5.3,1.5c-1.4,1-2.1,2.2-2.1,3.7c0,1.4,0.7,2.6,2.1,3.7c1.4,1,3.2,1.5,5.3,1.5
		c2,0,3.8-0.5,5.3-1.5c1.4-1,2.2-2.2,2.2-3.7C538.3,263.7,537.5,262.5,536.1,261.4L536.1,261.4z"/>
	
		<path fill="none" stroke="#000000" stroke-width="4.998" stroke-linecap="round" stroke-linejoin="round" stroke-miterlimit="10" d="
		M549.1,186.8c-22.3,1.7-42.9,7.1-61.6,16.2 M485.6,141.8l-31.3,25.4"/>
	<path fill="#7CC576" d="M428.3,160.3c-14.1,0.2-29.3,3.5-45.5,9.6c-7,2.6-14,5.7-20.9,9.3c-1.6-9.5-4.4-16.5-8.2-20.9
		c-3.5-4.1-7.3-5.3-11.3-3.5c-4.1,1.8-7.5,6.5-10.2,14c-2.9,8.3-4.5,18.9-4.6,31.8c-14.8,11-29.2,24.1-43.2,39.2
		c36.7,43.2,94.8,69.4,174.3,78.6c4.2-9.5,8.3-19.4,12.2-29.6c10.4,0.8,19.2-0.1,26.2-2.6c6.3-2.3,10.1-5.4,11.4-9.4
		c1.2-3.9-0.4-7.6-4.9-10.8c-5-3.6-12.5-5.9-22.6-6.9c4.2-14.8,6.6-27.8,7.2-39.1c1.3-25.1-6.2-42.2-22.8-51.4
		C454.9,162.7,442.6,160,428.3,160.3L428.3,160.3z"/>
	<path fill="#6F9B64" d="M455.6,177.7c-18.9-6.7-40.7-4.3-65.3,7.3c-24.5,11.5-44.8,30-61.1,55.2c34.9,14.3,78,37.9,129.3,70.9
		c2.9-4.7,5.1-8.7,6.8-11.9c2-3.9,3.8-8,5.2-12.1c7.9,0.5,15-0.3,21.1-2.6c6.5-2.5,9.5-5.8,8.8-10c-0.8-5-9.4-7.7-25.7-8.1
		c1.9-9.7,3.1-18.2,3.7-25.7c0.9-11.4,0.7-21.3-0.5-29.8c-1.1-7.1-3-12.9-5.5-17.4c-2.2-3.8-4.9-7.2-8-10.1
		C461.4,180.7,458.5,178.8,455.6,177.7L455.6,177.7z"/>
	<path fill="none" stroke="#000000" stroke-width="4.998" stroke-linecap="round" stroke-miterlimit="10" d="M458.6,318.5
		c4.2-9.5,8.3-19.4,12.2-29.6c10.4,0.8,19.2-0.1,26.2-2.6c6.3-2.3,10.1-5.4,11.4-9.4c1.2-3.9-0.4-7.6-4.9-10.8
		c-5-3.6-12.5-5.9-22.6-6.9c4.2-14.8,6.6-27.8,7.2-39.1c1.3-25.1-6.2-42.2-22.8-51.4c-10.3-5.7-22.7-8.5-37-8.2
		c-14.1,0.2-29.3,3.5-45.5,9.6c-7,2.6-14,5.7-20.9,9.3c-1.6-9.5-4.4-16.5-8.2-20.9c-3.5-4.1-7.3-5.3-11.3-3.5
		c-4.1,1.8-7.5,6.5-10.2,14c-2.9,8.3-4.5,18.9-4.6,31.8c-14.8,11-29.2,24.1-43.2,39.2"/>
	
		<path fill="none" stroke="#7CC576" stroke-width="7.9968" stroke-linecap="round" stroke-linejoin="round" stroke-miterlimit="10" d="
		M421.7,179c-9.9-0.6-18.9,1.9-27.2,7.6c-8.2,5.8-13.3,13.1-15.1,21.8c-1.7,8.8,0.2,16.5,5.9,23.1c5.7,6.7,13.5,10.3,23.4,10.9
		c9.9,0.6,19-1.9,27.2-7.7c8.2-5.7,13.2-13,15-21.8c1.8-8.7-0.1-16.5-5.8-23.1C439.3,183.3,431.5,179.7,421.7,179L421.7,179z"/>
	<path fill="#FFF356" d="M451.2,212.5c1.8-8.7-0.1-16.5-5.8-23.1c-5.7-6.6-13.5-10.2-23.4-10.8c-9.9-0.6-18.9,1.9-27.2,7.6
		c-8.2,5.8-13.3,13.1-15.1,21.8c-1.7,8.8,0.2,16.5,5.9,23.1c5.7,6.7,13.5,10.3,23.4,10.9c9.9,0.6,19-1.9,27.2-7.7
		C444.4,228.5,449.4,221.3,451.2,212.5L451.2,212.5z"/>
	<path fill="#CBBB4E" d="M400.9,195.3c-7,4.8-11.3,10.9-13,18.3c-1.6,7.3-0.1,13.8,4.5,19.3c4.7,5.6,11.2,8.6,19.4,9.1
		c8.3,0.5,15.9-1.6,22.9-6.5c7-4.8,11.3-10.9,12.9-18.2c1.6-7.3,0.1-13.8-4.5-19.4c-4.7-5.5-11.2-8.5-19.5-9
		C415.4,188.4,407.8,190.5,400.9,195.3L400.9,195.3z"/>
	
		<path fill="none" stroke="#000000" stroke-width="2.9988" stroke-linecap="round" stroke-linejoin="round" stroke-miterlimit="10" d="
		M421.9,178.5c-9.9-0.6-18.9,1.9-27.2,7.6c-8.2,5.8-13.3,13.1-15.1,21.8c-1.7,8.8,0.2,16.5,5.9,23.1c5.7,6.7,13.5,10.3,23.4,10.9
		c9.9,0.6,19-1.9,27.2-7.7c8.2-5.7,13.2-13,15-21.8c1.8-8.7-0.1-16.5-5.8-23.1C439.6,182.8,431.8,179.2,421.9,178.5L421.9,178.5z"/>
	<path fill="#FFF356" d="M402.1,186.6c-2.2,1.5-3.5,3.4-4,5.7c-0.5,2.3,0,4.3,1.4,6c1.4,1.7,3.5,2.6,6,2.8c2.5,0.1,4.9-0.5,7.1-2
		c2.1-1.5,3.5-3.4,4-5.7c0.5-2.2,0-4.2-1.4-6c-1.4-1.7-3.5-2.7-6-2.8C406.6,184.4,404.2,185.1,402.1,186.6L402.1,186.6z"/>
	<path fill="#6F4D4A" d="M407.4,201.3c-4.4-0.2-8.4,0.7-12.1,2.8c-3.6,2.1-5.9,4.8-6.7,8s0.1,6,2.6,8.4c2.5,2.4,6,3.8,10.4,4
		c4.3,0.2,8.4-0.7,12.1-2.8c3.6-2.1,5.8-4.7,6.6-8c0.8-3.2,0-6-2.6-8.5S411.8,201.5,407.4,201.3L407.4,201.3z"/>
	
		<path fill="none" stroke="#000000" stroke-width="2.9988" stroke-linecap="round" stroke-linejoin="round" stroke-miterlimit="10" d="
		M395.3,204.1c-3.6,2.1-5.9,4.8-6.7,8c-0.8,3.2,0.1,6,2.6,8.4c2.5,2.4,6,3.8,10.4,4c4.3,0.2,8.4-0.7,12.1-2.8c3.6-2.1,5.8-4.7,6.6-8
		c0.8-3.2,0-6-2.6-8.5c-2.5-2.4-6-3.7-10.4-4C403,201.1,399,202,395.3,204.1L395.3,204.1z"/>
	<path fill="#F26D7D" d="M501.1,108.8c-5.7-0.2-10.9,1.4-15.5,5.2c-4.5,3.6-7.2,8.3-7.9,13.8c-0.7,5.5,0.7,10.4,4.3,14.5
		c3.6,4.2,8.3,6.4,14.1,6.7c5.7,0.3,10.9-1.4,15.4-5.1c4.6-3.7,7.3-8.3,8-13.9c0.7-5.5-0.7-10.4-4.3-14.5
		C511.6,111.4,506.9,109.1,501.1,108.8L501.1,108.8z"/>
	<path fill="#C25E69" d="M513.7,123.2c-2.6-2.9-6-4.6-10.1-4.8c-4.1-0.2-7.8,1-11.1,3.7c-3.3,2.6-5.2,5.9-5.7,9.9
		c-0.5,4,0.5,7.5,3.1,10.5c2.6,3,6,4.6,10.1,4.8c4.1,0.2,7.8-1,11.1-3.6c3.3-2.7,5.2-6,5.7-10C517.3,129.7,516.3,126.2,513.7,123.2
		L513.7,123.2z"/>
	
		<path fill="none" stroke="#000000" stroke-width="4.998" stroke-linecap="round" stroke-linejoin="round" stroke-miterlimit="10" d="
		M485.6,114c-4.5,3.6-7.2,8.3-7.9,13.8c-0.7,5.5,0.7,10.4,4.3,14.5c3.6,4.2,8.3,6.4,14.1,6.7c5.7,0.3,10.9-1.4,15.4-5.1
		c4.6-3.7,7.3-8.3,8-13.9s-0.7-10.4-4.3-14.5c-3.6-4.1-8.3-6.4-14.1-6.7C495.3,108.5,490.2,110.2,485.6,114L485.6,114z"/>
	<path fill="#F26D7D" d="M561.8,163.1c-6.3,1.1-11.4,4-15.2,8.5c-3.7,4.5-5.1,9.5-4.2,14.8c0.9,5.3,4,9.4,9.1,12.3
		c5.1,2.9,10.8,3.8,17.2,2.6c6.3-1.1,11.4-3.9,15.2-8.5c3.8-4.5,5.2-9.5,4.2-14.8c-0.9-5.3-4-9.4-9.2-12.3
		C573.9,162.9,568.2,162,561.8,163.1L561.8,163.1z"/>
	<path fill="#C25E69" d="M567.9,173.5c-4.4-0.1-8.4,1-12,3.4c-3.5,2.4-5.6,5.5-6.1,9.2c-0.5,3.6,0.5,6.9,3.3,9.6
		c2.8,2.7,6.4,4.2,10.9,4.4c4.4,0.2,8.4-0.9,11.9-3.3c3.6-2.5,5.6-5.6,6.2-9.2s-0.6-6.9-3.3-9.6
		C576.1,175.3,572.4,173.8,567.9,173.5L567.9,173.5z"/>
	
		<path fill="none" stroke="#000000" stroke-width="4.998" stroke-linecap="round" stroke-linejoin="round" stroke-miterlimit="10" d="
		M546.7,171.7c-3.7,4.5-5.1,9.5-4.2,14.8c0.9,5.3,4,9.4,9.1,12.3c5.1,2.9,10.8,3.8,17.2,2.6s11.4-3.9,15.2-8.5
		c3.8-4.5,5.2-9.5,4.2-14.8c-0.9-5.3-4-9.4-9.2-12.3c-5.1-2.9-10.8-3.8-17.2-2.7C555.5,164.3,550.5,167.1,546.7,171.7L546.7,171.7z"
		/>
	<path fill="#6F9B64" d="M350.7,172.3c-1.8-2.1-3.7-2.5-5.8-1.2c-4.5,3-7.6,11.8-9.3,26.4l19.7-13.3
		C354.2,178.5,352.6,174.5,350.7,172.3L350.7,172.3z"/>
	<path fill="#C6996D" d="M448.1,299.9c-42.4-40.1-94.7-60.1-156.6-60.1s-115.5,20-160.6,60.1c-45.1,40.1-68.6,88.6-70.4,145.3
		c-1.8,56.7,18.4,105.2,60.8,145.3c42.5,40.1,94.7,60.2,156.6,60.2s115.5-20,160.6-60.2s68.7-88.6,70.5-145.3
		S490.6,340.1,448.1,299.9L448.1,299.9z"/>
	<path fill="#8F6C5E" d="M329.1,240.7c17.4,8.6,32.4,17.3,44.8,26c11.1,7.8,21.3,16.3,30.4,25.7c-40.1-20.1-80.2-28.6-120.2-25.6
		c-35.9,2.7-69.2,14.3-99.7,34.9c-28.4,19.1-50.8,43.3-67.3,72.6C100.7,403.3,93,432.5,94,461.7c0,1.4,0,3.3-0.1,5.8
		c-0.1,2.7-0.2,4.7-0.2,5.8l-20.5,6.9l-8,28.5l25,45l15.2-16.5c4.8,9.6,10.3,18.6,16.3,26.8c5.9,8,13.2,16.4,21.8,25.4
		c35.9,36.9,80.7,55.3,134.3,55.3s100.5-18.4,140.4-55.3c11.9-11,22-22,30.2-32.9c8.1-10.7,15.3-22.7,21.7-35.9l20.4,6.1l11.5-32
		l-22.9-5.7c1.7-8.8,2.8-17.9,3.3-27.2c1.5-28.9-0.2-53.4-5.2-73.5c-4.7-18.5-12.5-35.1-23.5-49.5l6.8-27
		C424.6,272.2,380.8,248.6,329.1,240.7L329.1,240.7z"/>
	
		<path fill="none" stroke="#000000" stroke-width="4.998" stroke-linecap="round" stroke-linejoin="round" stroke-miterlimit="10" d="
		M291.6,239.8c-61.9,0-115.5,20-160.6,60.1c-45.1,40.1-68.6,88.6-70.4,145.3s18.4,105.2,60.8,145.3c42.5,40.1,94.7,60.2,156.6,60.2
		s115.5-20,160.6-60.2s68.7-88.6,70.5-145.3s-18.4-105.2-60.9-145.3C405.7,259.8,353.5,239.8,291.6,239.8L291.6,239.8z"/>
	<path fill="#9DDFF9" d="M216.4,163.8c-4-5.9-9.2-9.8-15.4-11.6c-6.2-1.8-11.7-1.1-16.6,2.2c-4.8,3.3-7.5,8.2-8.1,14.6
		c-0.5,6.5,1.1,12.7,5.2,18.6c4,5.9,9.1,9.7,15.4,11.5c6.3,1.8,11.8,1.1,16.7-2.1c4.8-3.3,7.5-8.2,8-14.7
		C222.1,175.9,220.4,169.7,216.4,163.8L216.4,163.8z M182.7,170c0.3-4.7,2.2-8.2,5.7-10.5c3.4-2.3,7.4-2.8,11.8-1.4
		c4.5,1.4,8.3,4.2,11.2,8.6s4.2,8.8,3.9,13.6c-0.3,4.7-2.1,8.2-5.6,10.6c-3.4,2.3-7.4,2.8-11.9,1.4c-4.5-1.4-8.2-4.2-11.2-8.6
		S182.3,174.8,182.7,170L182.7,170z"/>
	<polygon fill="#86ADC0" points="221.1,172.1 218,165.6 213.4,170 214.8,177.8 221.1,172.1 	"/>
	
		<path fill="none" stroke="#000000" stroke-width="2.9988" stroke-linecap="round" stroke-linejoin="round" stroke-miterlimit="10" d="
		M200.9,152.2c-6.2-1.8-11.7-1.1-16.6,2.2c-4.8,3.3-7.5,8.2-8.1,14.6c-0.5,6.5,1.1,12.7,5.2,18.6c4,5.9,9.1,9.7,15.4,11.5
		c6.3,1.8,11.8,1.1,16.7-2.1c4.8-3.3,7.5-8.2,8-14.7c0.6-6.5-1.1-12.7-5.1-18.6C212.3,157.8,207.2,154,200.9,152.2L200.9,152.2z
		 M182.7,170c-0.3,4.7,1,9.2,3.9,13.6s6.6,7.2,11.2,8.6s8.5,0.9,11.9-1.4c3.4-2.3,5.3-5.8,5.6-10.6c0.3-4.7-0.9-9.2-3.9-13.6
		s-6.7-7.2-11.2-8.6c-4.4-1.3-8.4-0.9-11.8,1.4C184.9,161.8,183,165.3,182.7,170L182.7,170z"/>
	<path fill="#543E3C" d="M168.6,223.1c-3.3-0.8-6.6-0.3-9.8,1.5c-3.2,1.8-5.5,4.5-6.8,8c-1.1,3.1-1.2,6.1-0.2,8.9
		c-4.9,7-10.5,12.6-16.8,16.7c3.4,5.8,7.2,10.7,11.3,14.6c3.2,3,6.6,5.5,10.3,7.3c-2.1-11.2-1.1-21.7,3.2-31.7
		c3.2,0.7,6.3,0.2,9.5-1.6c3.2-1.8,5.5-4.5,6.7-8.1c1.3-3.5,1.2-6.8-0.2-9.9C174.3,225.9,171.9,223.9,168.6,223.1L168.6,223.1z"/>
	<path fill="#FFD064" d="M54.9,285c-15.5,6.1-28.1,13.9-37.8,23.5c-9.2,9-12.9,17.7-11.2,25.8c5.8-1.9,11.9-2.6,18.1-2.1
		c2-9.2,14.7-16.4,38.1-21.5c8.1,20.5,18.5,39.4,31.2,56.5l75-31c-17-15.3-31.3-31.5-43-48.5c8.5-3.6,15.5-8.5,20.9-14.6
		c-4.1-3.9-7.9-8.8-11.3-14.6c-8.9,5.7-19.3,8.5-31,8.3c-0.5,25.2,5.1,53.1,16.9,83.5c-15.1-10.1-27.9-20.4-38.4-30.8
		C71.9,308.8,62.7,297.4,54.9,285L54.9,285z"/>
	<path fill="#543E3C" d="M23.2,351.4c-0.5,1.5-0.4,3.1,0.3,4.7c0.8,2,2.3,3.6,4.4,4.7c2.1,1,4.2,1.3,6.4,0.8
		c2.1-0.5,3.6-1.7,4.5-3.5c0.9-1.8,1-3.7,0.1-5.8c-0.8-2.1-2.3-3.7-4.4-4.7c-2.1-1-4.2-1.3-6.3-0.8c-3.9-5.3-5.3-10.2-4.3-14.6
		c-6.2-0.5-12.2,0.2-18.1,2.1c-2.1,0.6-4.2,1.5-6.3,2.5C8.5,340.4,16.4,345.3,23.2,351.4L23.2,351.4z"/>
	<path fill="#543E3C" d="M84.5,263.8L59,275.3c-0.9,2.8-2.3,6.1-4.2,9.7c7.9,12.4,17.1,23.8,27.5,34.3
		c10.4,10.4,23.2,20.7,38.4,30.8c-11.8-30.4-17.4-58.2-16.9-83.5C97.8,266.5,91.3,265.6,84.5,263.8L84.5,263.8z"/>
	<path fill="#3A2B29" d="M25.6,351.4c-1.7,3.4-1.1,6.1,1.9,8.2c3,2,6.7,2,10.8-0.2c2.7-8.1-0.4-12.2-9.5-12.5
		c-4.1-5.4-5.9-10.3-5.5-14.7h-8.8C15.2,338.7,18.9,345.1,25.6,351.4L25.6,351.4z"/>
	<path fill="#3A2B29" d="M173.6,225.2l-4.5-3.2l-14.5,6.2l5.7,2.5c-3.2,2.8-4.4,6.9-3.7,12.2c-3,5.1-5.7,9.3-8.3,12.4
		c-3.1,3.8-6.3,6.8-9.7,9l8.1,9.9c1.8-0.6,2.9-0.5,3.2,0.1c0.4-9.5,3.2-18.8,8.2-27.7C174.2,249.9,179.4,242.7,173.6,225.2
		L173.6,225.2z"/>
	<path fill="#CBA357" d="M14.5,332.2h8.8c0.9-10,13.6-17.4,38-22.3l19.6,39l6.2-3.6l48.6-25.4c-8.1-13.5-13-24.5-14.5-33.1
		c15.2-3.5,23.6-7.6,25.3-12.3l-8.1-9.9c-6.3,4.7-13.1,7.4-20.3,8.1c-7,0.6-14.1-0.6-21.4-3.8l-40.2,18.2
		c-13,7.2-23.5,14.9-31.2,23.2C17.4,318.6,13.8,325.9,14.5,332.2L14.5,332.2z"/>
	<path d="M169.2,220.7L169.2,220.7c-4-1-7.9-0.4-11.7,1.8c-3.8,2.1-6.4,5.3-7.9,9.3c-1.2,3.2-1.4,6.4-0.6,9.4
		c-4.5,6.3-9.7,11.3-15.4,15c-8.5,5.4-18.4,8.1-29.6,7.9c-5.9-0.1-12.1-1-18.7-2.7l-0.8-0.2L57,273.5l-0.3,1c-0.8,2.5-2,5.3-3.6,8.5
		c-15.4,6.2-28,14.1-37.7,23.7c-9.1,9-13.2,17.6-12.2,25.9c-1.5,0.5-3.1,1.2-4.6,1.9l-5,2.4l5.2,2.1c8.1,3.2,15.4,7.5,21.8,13.1
		c-0.2,1.5,0,3.1,0.7,4.8c0,0,0,0,0,0c1,2.6,2.9,4.6,5.5,6h0c2.6,1.3,5.3,1.6,8.1,1c2.9-0.7,4.9-2.3,6.2-4.9v0
		c1.2-2.5,1.3-5.1,0.2-7.9h0c-1.1-2.6-2.9-4.6-5.5-6c-2.1-1-4.2-1.5-6.3-1.3c-2.7-4.1-3.7-7.9-3-11.4c2-7.9,13.4-14.3,34.1-19.1
		c8,19.9,18.3,38.3,30.7,55l1.1,1.5l80.4-33.2l-2.9-2.6c-16-14.5-29.7-29.7-40.9-45.6c6.7-3.2,12.5-7.3,17.3-12.1
		c2.8,2.4,5.9,4.5,9,6.1l4.4,2.3l-0.9-5c-1.9-10-1.1-19.5,2.3-28.4c3,0.2,6.1-0.4,9.1-2.2c3.7-2.2,6.4-5.3,7.8-9.4v0
		c1.5-4.2,1.4-8.1-0.3-11.8h0C176.2,224.2,173.3,221.7,169.2,220.7L169.2,220.7z M18.8,310.3c9.5-9.3,21.8-17,37-22.9l0.4-0.2
		l0.4-0.1l0.4-0.8c1.7-3.3,3-6.3,4-9l23.7-10.6c6.6,1.6,13,2.5,19,2.6h0c11.7,0.2,22-2.4,31.1-7.8c2.6,4.2,5.5,7.9,8.5,11
		c-5.1,5.3-11.5,9.6-19.2,12.9l-2.7,1.2l1.7,2.4c11,16.2,24.5,31.6,40.5,46.3L94.1,364c-12-16.5-22-34.6-29.7-54.3l-0.8-2l-2.1,0.4
		c-23.8,5.2-37.1,12.7-39.7,22.4c-4.6-0.1-9.2,0.3-13.7,1.5C7.5,325.2,11.1,317.9,18.8,310.3L18.8,310.3z M26.3,348.3l0.9,1.3
		l1.7-0.3c1.5-0.4,3-0.2,4.5,0.6h0c1.5,0.7,2.6,1.9,3.2,3.4c0.5,1.3,0.5,2.5,0,3.7h0c-0.5,1.1-1.5,1.9-2.9,2.2
		c-1.5,0.3-3.1,0.1-4.6-0.6c-1.5-0.8-2.6-1.9-3.2-3.4v0h0c-0.4-1-0.5-2-0.2-3l0.4-1.6l-1.1-1c-5.6-5-12.2-9.4-19.8-13l3.4-1.4
		c4.1-1.1,8.3-1.7,12.7-1.6C20.7,338.1,22.4,343,26.3,348.3L26.3,348.3z M160,226.8c2.6-1.5,5.3-1.9,8-1.3c2.5,0.6,4.3,2.2,5.5,4.6
		v0c1.1,2.4,1.2,5.1,0.1,7.9c-1,2.9-2.9,5.2-5.6,6.8c-2.5,1.4-5.1,1.9-7.7,1.3l-2-0.4l-0.8,1.8c-3.8,8.8-5.2,18.1-4.1,27.9
		c-2.2-1.1-4.8-2.9-7.8-5.4c-2.8-3-5.5-6.5-8-10.5c6.1-4.1,11.5-9.7,16.3-16.6l0.7-1l-0.4-1.3c-0.8-2.3-0.7-4.7,0.2-7.2v0
		C155.3,230.5,157.2,228.3,160,226.8L160,226.8z"/>
	<path fill="#543E3C" d="M103.8,269.1L103.8,269.1c-6-0.1-12.4-1-19-2.6l-23.7,10.6c-0.9,2.7-2.3,5.7-4,9l-0.4,0.8l-0.4,0.1
		c7.5,11.6,16.3,22.3,26.1,32.1c10.4,10.4,23.2,20.7,38.4,30.8C109.4,320.7,103.7,293.7,103.8,269.1L103.8,269.1z"/>
	
		<path fill="none" stroke="#000000" stroke-width="0.9996" stroke-linecap="round" stroke-linejoin="round" stroke-miterlimit="10" d="
		M103.8,269.1c-0.1,24.6,5.5,51.6,16.9,81c-15.1-10.1-27.9-20.4-38.4-30.8c-9.8-9.8-18.6-20.5-26.1-32.1"/>
	<path fill="#94625E" d="M229.4,153.7l-2.6-2.2c-14.9,11.4-27.2,17.7-36.8,18.8c0,7.7,3.9,12.9,11.5,15.6
		c3.9-8.8,13.5-18.7,28.9-29.6L229.4,153.7L229.4,153.7z"/>
	<path fill="#F26D7D" d="M189.9,170.3c-4.7,0.1-8.2,0.3-10.5,0.6c-4,0.4-8,1.7-11.9,3.7c-12.8,6.8-22.3,14.8-28.2,24.1
		c-5.8,9-6.8,16.7-3,23c4.8,5.5,12.5,6.8,22.9,4c10.7-2.9,21.2-9.5,31.4-19.7c3.1-3.1,5.5-6.5,7.2-10.2c0.8-2.1,2.1-5.4,3.7-9.9
		C193.8,183.2,189.9,178,189.9,170.3L189.9,170.3z"/>
	<path fill="#74504D" d="M224,159v-3.6c-13.7,12.4-24.2,20.2-31.7,23.4l8.2,7.7C204.7,179.3,212.5,170.1,224,159L224,159z"/>
	<path fill="#A3555C" d="M146.4,219.3c3.6,4.1,9.4,5.2,17.3,3c8.1-2.2,14.8-5.7,20-10.5c5.2-4.8,8.4-8.2,9.5-10.3
		c1-2,2.3-4.5,3.9-7.5c0.5-2.2,1.7-4.7,3.3-7.5l-8.2-7.7c-2,0.8-3.7,1.3-5.3,1.5c-3.6,0.1-6.5,0.6-8.6,1.5s-6.2,3.6-12.1,8.1
		c-5.9,4.4-11.5,9.3-16.5,14.4C144.6,209.6,143.5,214.6,146.4,219.3L146.4,219.3z"/>
	
		<path fill="none" stroke="#000000" stroke-width="2.9988" stroke-linecap="round" stroke-linejoin="round" stroke-miterlimit="10" d="
		M201.4,185.9c-7.6-2.7-11.5-7.9-11.5-15.6"/>
	
		<path fill="none" stroke="#000000" stroke-width="4.998" stroke-linecap="round" stroke-linejoin="round" stroke-miterlimit="10" d="
		M229.4,153.7l0.9,2.6c-15.3,10.8-24.9,20.7-28.9,29.6c-1.6,4.4-2.8,7.7-3.7,9.9c-1.6,3.7-4,7.1-7.2,10.2
		c-10.2,10.2-20.7,16.8-31.4,19.7c-10.4,2.8-18,1.5-22.9-4c-3.8-6.3-2.8-14,3-23c5.9-9.3,15.4-17.3,28.2-24.1
		c3.9-2,7.9-3.3,11.9-3.7c2.2-0.2,5.7-0.4,10.5-0.6c9.6-1.1,21.9-7.4,36.8-18.8L229.4,153.7L229.4,153.7z"/>
	
		<polyline fill="none" stroke="#F26D7D" stroke-width="4.998" stroke-linecap="round" stroke-linejoin="round" stroke-miterlimit="10" points="
		152.8,199.3 146.8,204.8 153.3,207.6 157,215.6 162,206.6 174.5,205.8 168.5,199.1 168.5,189.6 160.3,193.3 	"/>
	<path fill="#F26D7D" d="M242.6,150.4c0-2.6-0.9-4.9-2.8-6.8c-1.8-1.8-4.1-2.8-6.8-2.8c-2.6,0-4.9,0.9-6.8,2.8
		c-1.8,1.9-2.8,4.2-2.8,6.8c0,2.6,0.9,4.9,2.8,6.8c1.9,1.9,4.2,2.8,6.8,2.8s4.9-0.9,6.8-2.8C241.6,155.4,242.6,153.1,242.6,150.4
		L242.6,150.4z"/>
	
		<path fill="none" stroke="#000000" stroke-width="4.998" stroke-linecap="round" stroke-linejoin="round" stroke-miterlimit="10" d="
		M239.7,143.6c-1.8-1.8-4.1-2.8-6.8-2.8c-2.6,0-4.9,0.9-6.8,2.8c-1.8,1.9-2.8,4.2-2.8,6.8c0,2.6,0.9,4.9,2.8,6.8
		c1.9,1.9,4.2,2.8,6.8,2.8s4.9-0.9,6.8-2.8c1.9-1.8,2.8-4.1,2.8-6.8S241.6,145.5,239.7,143.6L239.7,143.6z"/>
	<polygon fill="#FFD064" points="168.3,189.1 164.1,191 148.6,205.2 153.1,207.1 156.8,215.1 161.8,206.1 174.3,205.3 168.3,198.6 
		168.3,189.1 	"/>
	<polygon fill="#FFFFFF" points="164.1,191 160.1,192.8 153.1,188.8 152.6,198.8 146.6,204.3 148.6,205.2 164.1,191 	"/>
	
		<polygon fill="none" stroke="#000000" stroke-width="1.9992" stroke-linecap="round" stroke-linejoin="round" stroke-miterlimit="10" points="
		164.1,191 160.1,192.8 153.1,188.8 152.6,198.8 146.6,204.3 148.6,205.2 153.1,207.1 156.8,215.1 161.8,206.1 174.3,205.3 
		168.3,198.6 168.3,189.1 164.1,191 	"/>
	<path fill="#9DDFF9" d="M221.5,182.4c0.1-1.5,0.1-3,0-4.4h-6.1c0,0.7,0,1.5,0,2.3c-0.3,4.7-2.1,8.2-5.6,10.6
		c-3.4,2.3-7.4,2.8-11.9,1.4c-4.5-1.4-8.2-4.2-11.2-8.6s-4.3-8.8-3.9-13.6c0.3-4.7,2.2-8.2,5.7-10.5c3.4-2.3,7.4-2.8,11.8-1.4
		c0.2,0,0.4,0.1,0.7,0.2v-6.1c-6.2-1.8-11.7-1.1-16.6,2.2c-4.8,3.3-7.5,8.2-8.1,14.6c-0.5,6.5,1.1,12.7,5.2,18.6
		c4,5.9,9.1,9.7,15.4,11.5c6.3,1.8,11.8,1.1,16.7-2.1C218.3,193.8,221,188.9,221.5,182.4L221.5,182.4z"/>
	
		<path fill="none" stroke="#000000" stroke-width="2.9988" stroke-linecap="round" stroke-linejoin="round" stroke-miterlimit="10" d="
		M215.4,177.9c0,0.7,0,1.5,0,2.3c-0.3,4.7-2.1,8.2-5.6,10.6c-3.4,2.3-7.4,2.8-11.9,1.4c-4.5-1.4-8.2-4.2-11.2-8.6
		c-2.9-4.3-4.3-8.8-3.9-13.6c0.3-4.7,2.2-8.2,5.7-10.5c3.4-2.3,7.4-2.8,11.8-1.4c0.2,0,0.4,0.1,0.7,0.2 M200.9,152.2
		c-6.2-1.8-11.7-1.1-16.6,2.2c-4.8,3.3-7.5,8.2-8.1,14.6c-0.5,6.5,1.1,12.7,5.2,18.6c4,5.9,9.1,9.7,15.4,11.5
		c6.3,1.8,11.8,1.1,16.7-2.1c4.8-3.3,7.5-8.2,8-14.7c0.1-1.5,0.1-3,0-4.4"/>
	<path fill="#935A8C" d="M124.2,187.7c-2.6-11.2-9.4-20-20.4-26.5c-7.8-4.6-20.2-8.9-36.9-12.9c-9.4-2.1-16.5-3.8-21.4-5
		c-8.5-2-15.7-4-21.6-6c-16.2-5.3-29.1-12.1-38.6-20.6c2.8,12,3,25.4,0.5,40.2c-1.4,8.3-4.7,21-9.9,38c-4.7,15.5-7.5,27-8.3,34.5
		c-1.2,11.8,0.5,21.7,5.3,29.8c3.6,6.1,10.6,11.4,20.7,15.7c9.2,3.9,19.9,6.7,32.3,8.2c11.8,1.5,22.9,1.7,33.5,0.6
		c10.9-1.1,19.1-3.5,24.5-7.1c13.9-9.3,24.9-22.5,33.1-39.5C125.2,219.3,127.7,202.8,124.2,187.7L124.2,187.7z"/>
	<path fill="none" stroke="#000000" stroke-width="4.998" stroke-linecap="round" stroke-miterlimit="10" d="M103.8,161.2
		c-7.8-4.6-20.2-8.9-36.9-12.9c-9.4-2.1-16.5-3.8-21.4-5c-8.5-2-15.7-4-21.6-6c-16.2-5.3-29.1-12.1-38.6-20.6
		c2.8,12,3,25.4,0.5,40.2c-1.4,8.3-4.7,21-9.9,38c-4.7,15.5-7.5,27-8.3,34.5c-1.2,11.8,0.5,21.7,5.3,29.8
		c3.6,6.1,10.6,11.4,20.7,15.7c9.2,3.9,19.9,6.7,32.3,8.2c11.8,1.5,22.9,1.7,33.5,0.6c10.9-1.1,19.1-3.5,24.5-7.1
		c13.9-9.3,24.9-22.5,33.1-39.5c8.4-17.8,10.9-34.3,7.4-49.4C121.6,176.4,114.8,167.6,103.8,161.2L103.8,161.2z"/>
	<path fill="#674654" d="M118.8,204.6c-1.1-12-6.4-21.8-16-29.5c-9.5-7.6-18.5-11.9-26.9-12.6c-8.4-0.8-17.2-2.1-26.4-4.1
		c-9.2-1.9-17.8-4.5-25.9-7.6c-8-3.1-17.1-8.3-27.3-15.5c2.1,10.3,1.7,21.8-1.1,34.3c-1.6,7-5.1,17.7-10.5,32
		c-4.9,13-7.9,22.7-8.9,29.1c-1.6,10-0.4,18.5,3.6,25.6c3.1,5.3,8.1,10.5,15,15.4c6.8,4.8,16,8,27.5,9.5c11.5,1.4,22.5,2,33.1,1.8
		c10.5-0.2,20.1-3.1,28.7-8.5c8.5-5.4,16.8-15.4,24.9-30C116.5,229.9,119.9,216.7,118.8,204.6L118.8,204.6z"/>
	<path fill="none" stroke="#935A8C" stroke-width="8.9964" stroke-linecap="round" stroke-miterlimit="10" d="M88.5,165.9
		c9.8,1.9,16.6,7.4,20.6,16.3c4.5,10.2,3.7,22.9-2.4,38c-3.5,8.6-6.8,15.7-10,21.3c-0.8,1.5-1.7,2.9-2.5,4.1
		c-3.7,5.6-7.8,10.1-12.3,13.2c-1,0.7-2.1,1.4-3.2,2c-5.1,2.8-11.2,4.4-18.2,4.7c-1.2,0-2.4,0.1-3.7,0c-8.6-0.2-19.3-2.2-31.9-6.1
		c-15.4-4.6-26.4-11.5-33-20.4c-6-8-7.4-16.1-4.2-24.1c3.2-8,9.9-13.6,20.3-16.6c11.5-3.3,25-2.6,40.5,2.2
		c0.7-12.7,5.5-22.3,14.2-28.8C70.2,165.9,78.9,163.9,88.5,165.9L88.5,165.9z"/>
	<path fill="#FFCA6D" d="M88,164.9c-9.5-1.9-18.2,0-26.1,5.9c-8.7,6.5-13.5,16.1-14.2,28.8c-15.4-4.8-28.9-5.6-40.5-2.2
		c-10.3,3-17.1,8.6-20.3,16.6c-3.1,8-1.7,16.1,4.2,24.1c6.6,8.9,17.6,15.8,33,20.4c6.9-5.7,14.1-10.9,21.6-15.5
		c6.6-4,13.4-7.7,20.4-10.9c7.2-3.3,14.6-6.1,22.2-8.5c5.8-1.8,11.7-3.3,17.7-4.6c6.1-15,6.9-27.7,2.4-38
		C104.6,172.3,97.8,166.8,88,164.9L88,164.9z"/>
	<path fill="#FFFFFF" d="M106.2,219.2c-6,1.2-11.9,2.8-17.7,4.6l7.7,16.7C99.3,234.9,102.7,227.8,106.2,219.2L106.2,219.2z"/>
	<path fill="#FFFFFF" d="M45.8,243.1c-7.4,4.6-14.6,9.7-21.6,15.5c12.6,3.8,23.3,5.9,31.9,6.1c1.2,0,2.5,0,3.7,0L45.8,243.1
		L45.8,243.1z"/>
	<path fill="#FFFFFF" d="M93.6,244.6c0.8-1.2,1.7-2.6,2.5-4.1l-7.7-16.7c-7.6,2.3-15,5.2-22.2,8.5l15.1,25.6
		C85.7,254.7,89.8,250.3,93.6,244.6L93.6,244.6z"/>
	<path fill="#FFFFFF" d="M78,259.9c1.1-0.6,2.2-1.3,3.2-2l-15.1-25.6c-7,3.2-13.8,6.8-20.4,10.9l14,21.5
		C66.8,264.4,72.9,262.8,78,259.9L78,259.9z"/>
	<path fill="none" stroke="#000000" stroke-width="2.9988" stroke-linecap="round" stroke-miterlimit="10" d="M24.2,258.6
		c-15.4-4.6-26.4-11.5-33-20.4c-6-8-7.4-16.1-4.2-24.1c3.2-8,9.9-13.6,20.3-16.6c11.5-3.3,25-2.6,40.5,2.2
		c0.7-12.7,5.5-22.3,14.2-28.8c7.8-5.9,16.5-7.9,26.1-5.9c9.8,1.9,16.6,7.4,20.6,16.3c4.5,10.2,3.7,22.9-2.4,38 M106.2,219.2
		c-6,1.2-11.9,2.8-17.7,4.6 M45.8,243.1c-7.4,4.6-14.6,9.7-21.6,15.5 M96.1,240.5c-0.8,1.5-1.7,2.9-2.5,4.1
		c-3.7,5.6-7.8,10.1-12.3,13.2 M59.8,264.7c-1.2,0-2.4,0.1-3.7,0c-8.6-0.2-19.3-2.2-31.9-6.1 M81.3,257.9c-1,0.7-2.1,1.4-3.2,2
		c-5.1,2.8-11.2,4.4-18.2,4.7 M66.2,232.2l15.1,25.6 M106.2,219.2c-3.5,8.6-6.8,15.7-10,21.3 M88.4,223.8l7.7,16.7 M45.8,243.1
		l14,21.5 M88.4,223.8c-7.6,2.3-15,5.2-22.2,8.5 M66.2,232.2c-7,3.2-13.8,6.8-20.4,10.9"/>
	<path fill="#6F4D4A" d="M16.3,219.9c-1.6,1.3-2.4,3-2.4,4.9c0,1.9,0.8,3.5,2.4,4.8c1.6,1.3,3.6,2,5.9,2s4.2-0.7,5.8-2
		c1.6-1.3,2.4-2.9,2.4-4.8c0-1.9-0.8-3.5-2.4-4.9c-1.6-1.3-3.5-1.9-5.8-1.9S18,218.6,16.3,219.9L16.3,219.9z"/>
	<path fill="none" stroke="#000000" stroke-width="2.9988" stroke-linecap="round" stroke-miterlimit="10" d="M13.9,224.8
		c0,1.9,0.8,3.5,2.4,4.8c1.6,1.3,3.6,2,5.9,2s4.2-0.7,5.8-2c1.6-1.3,2.4-2.9,2.4-4.8c0-1.9-0.8-3.5-2.4-4.9
		c-1.6-1.3-3.5-1.9-5.8-1.9s-4.2,0.6-5.9,1.9C14.7,221.2,13.9,222.9,13.9,224.8L13.9,224.8z"/>
	<path fill="#6F4D4A" d="M88,199.4c1.1-1.9,1.5-3.9,1.2-6c-0.3-2-1.3-3.5-3-4.4c-1.6-0.9-3.4-1.1-5.4-0.4c-2,0.7-3.5,2.1-4.7,4
		c-1.1,1.9-1.5,4-1.1,6c0.3,2,1.3,3.6,3,4.5c1.6,0.9,3.4,1,5.4,0.3C85.3,202.7,86.8,201.3,88,199.4L88,199.4z"/>
	<path fill="none" stroke="#000000" stroke-width="2.9988" stroke-linecap="round" stroke-miterlimit="10" d="M89.2,193.3
		c-0.3-2-1.3-3.5-3-4.4c-1.6-0.9-3.4-1.1-5.4-0.4c-2,0.7-3.5,2.1-4.7,4c-1.1,1.9-1.5,4-1.1,6c0.3,2,1.3,3.6,3,4.5
		c1.6,0.9,3.4,1,5.4,0.3c1.9-0.7,3.5-2.1,4.6-4S89.5,195.4,89.2,193.3L89.2,193.3z"/>
	<path fill="#A3555C" d="M237.4,148c-1.1-1-2.4-1.6-3.9-1.6s-2.8,0.5-3.9,1.6c-1.1,1.1-1.6,2.4-1.6,3.9s0.5,2.9,1.6,4
		c1.1,1.1,2.4,1.6,3.9,1.6s2.8-0.5,3.9-1.6c1.1-1.1,1.6-2.4,1.6-4S238.5,149.1,237.4,148L237.4,148z"/>
	
		<path fill="none" stroke="#000000" stroke-width="4.998" stroke-linecap="round" stroke-linejoin="round" stroke-miterlimit="10" d="
		M128.4,643.2l25.9-12.5 M110.6,626.9l27.2-35.5 M88.4,610.7l8.1-22.3"/>
	<path fill="#F26D7D" d="M108.9,620.2c-13.9-11.1-28-19.3-42.5-24.5l-3,29.5l12.1,9.6l28,22.3l11.6,9.2l30.2-8.5
		C134.1,643.3,121.9,630.7,108.9,620.2L108.9,620.2z"/>
	<path fill="#9DDFF9" d="M115.1,666.4l-11.6-9.2c-4.4,5.9-9.2,9.5-14.4,10.9c-5.2,1.3-10.1,0.3-14.7-3.1c-4.7-3.5-6.8-8.3-6.2-14.4
		c0.4-5.3,2.9-10.5,7.3-15.7l-12.1-9.6c-7.9,9.2-12.3,18-13,26.3c-0.8,9.2,2.9,17.5,11,24.7c8.6,7.6,18,10.5,28.2,8.7
		C99.7,683.1,108.3,676.9,115.1,666.4L115.1,666.4z"/>
	<path fill="#716F75" d="M75.5,634.8c-4.4,5.2-6.9,10.4-7.3,15.7c-0.5,6,1.5,10.8,6.2,14.4c4.5,3.4,9.4,4.4,14.7,3.1
		c5.2-1.3,10-4.9,14.4-10.9L75.5,634.8L75.5,634.8z"/>
	<path fill="#86ADC0" d="M111.4,662.7l-9.6-7.6l-23.1-18.4l-10-8c-6.5,7.6-10.1,14.9-10.7,21.8c-0.6,7.6,2.3,14.4,9.1,20.4
		c7.1,6.3,14.9,8.7,23.3,7.1C98.7,676.5,105.8,671.4,111.4,662.7L111.4,662.7z"/>
	<path fill="#C25E69" d="M108.6,661.7l25.2-7.7c-15.2-20.9-34.6-37-58.2-48.3l-3.7,24.5L108.6,661.7L108.6,661.7z"/>
	<path fill="#9DDFF9" d="M62,658.7c1.1-1.1,1.7-2.5,1.7-4.1s-0.6-3-1.7-4.1s-2.5-1.7-4.1-1.7c-1.6,0-3,0.5-4.1,1.7
		c-1.1,1.1-1.7,2.5-1.7,4.1c0,1.6,0.5,2.9,1.7,4.1c1.1,1.1,2.5,1.7,4.1,1.7C59.5,660.4,60.9,659.8,62,658.7L62,658.7z"/>
	<path fill="#685F63" d="M75.5,634.8c-4.4,5.2-6.9,10.4-7.3,15.7c-0.5,6,1.5,10.8,6.2,14.4c4.5,3.4,9.4,4.4,14.7,3.1
		c5.2-1.3,10-4.9,14.4-10.9L75.5,634.8L75.5,634.8z"/>
	<path fill="none" stroke="#000000" stroke-width="2.9988" stroke-linecap="round" stroke-miterlimit="10" d="M115.1,666.4
		l-11.6-9.2 M75.5,634.8l-12.1-9.6 M75.5,634.8c-4.4,5.2-6.9,10.4-7.3,15.7c-0.5,6,1.5,10.8,6.2,14.4c4.5,3.4,9.4,4.4,14.7,3.1
		c5.2-1.3,10-4.9,14.4-10.9 M103.5,657.2l-28-22.3"/>
	<path fill="none" stroke="#000000" stroke-width="4.998" stroke-linecap="round" stroke-miterlimit="10" d="M108.9,620.2
		c13,10.5,25.2,23,36.5,37.7l-30.2,8.5c-6.8,10.5-15.4,16.6-25.5,18.5c-10.1,1.8-19.5-1-28.2-8.7c-8.1-7.2-11.8-15.4-11-24.7
		c0.7-8.3,5.1-17.1,13-26.3l3-29.5C80.8,600.9,95,609.1,108.9,620.2L108.9,620.2z"/>
	<path fill="#716F75" d="M91.4,576.7c-0.5,2.6,0,5.2,1.4,7.7s3.4,4.1,6,5c2.5,0.8,4.9,0.6,7-0.6c2.2-1.2,3.5-3.2,4-5.8
		c0.4-2.6,0-5.2-1.4-7.7c-1.4-2.4-3.4-4.1-5.9-5c-2.5-0.9-4.9-0.7-7.1,0.5C93.2,572.1,91.8,574.1,91.4,576.7L91.4,576.7z"/>
	<path fill="#716F75" d="M133.9,580.1c-0.9,2.4-0.8,4.9,0.5,7.3c1.2,2.5,3.2,4.3,6,5.4c2.7,1,5.4,1.1,8.1,0.2c2.6-0.9,4.4-2.6,5.4-5
		c0.9-2.4,0.8-4.9-0.5-7.4c-1.2-2.5-3.3-4.3-6-5.3c-2.7-1.1-5.4-1.2-8-0.2S134.8,577.6,133.9,580.1L133.9,580.1z"/>
	<path fill="#716F75" d="M157.6,619.2c-2.3,0.7-4,2-5,4c-0.9,1.9-0.9,3.8,0,5.8c0.9,2,2.5,3.4,4.8,4.4c2.2,0.9,4.5,1,6.9,0.2
		c2.3-0.7,3.9-2,4.9-3.9c1-1.9,1-3.9,0.1-5.9c-0.9-1.9-2.6-3.4-4.8-4.3C162.2,618.6,159.9,618.5,157.6,619.2L157.6,619.2z"/>
	
		<path fill="none" stroke="#000000" stroke-width="4.998" stroke-linecap="round" stroke-linejoin="round" stroke-miterlimit="10" d="
		M134.4,587.4c1.2,2.5,3.2,4.3,6,5.4c2.7,1,5.4,1.1,8.1,0.2c2.6-0.9,4.4-2.6,5.4-5c0.9-2.4,0.8-4.9-0.5-7.4c-1.2-2.5-3.3-4.3-6-5.3
		c-2.7-1.1-5.4-1.2-8-0.2s-4.4,2.6-5.4,5.1C132.9,582.5,133.1,585,134.4,587.4L134.4,587.4z M152.6,623.2c-0.9,1.9-0.9,3.8,0,5.8
		c0.9,2,2.5,3.4,4.8,4.4c2.2,0.9,4.5,1,6.9,0.2c2.3-0.7,3.9-2,4.9-3.9c1-1.9,1-3.9,0.1-5.9c-0.9-1.9-2.6-3.4-4.8-4.3
		c-2.3-0.9-4.6-1-6.9-0.3C155.3,620,153.6,621.3,152.6,623.2L152.6,623.2z M92.8,584.4c1.4,2.4,3.4,4.1,6,5c2.5,0.8,4.9,0.6,7-0.6
		c2.2-1.2,3.5-3.2,4-5.8c0.4-2.6,0-5.2-1.4-7.7c-1.4-2.4-3.4-4.1-5.9-5c-2.5-0.9-4.9-0.7-7.1,0.5c-2.1,1.2-3.5,3.2-3.9,5.9
		C90.9,579.4,91.3,582,92.8,584.4L92.8,584.4z"/>
	<path fill="#C6996D" d="M249.7,257.3c-12.4-2-26-0.4-40.8,4.8c-14.7,5.3-26.3,12.7-34.6,22.2c-8.3,9.5-11,18.4-8,26.6
		s10.7,13.4,23.1,15.4c12.4,2,26,0.4,40.8-4.9c14.8-5.3,26.3-12.7,34.6-22.1c8.3-9.5,11-18.4,8-26.6S262.1,259.4,249.7,257.3
		L249.7,257.3z"/>
	<path fill="#8F6C5E" d="M224.3,314.6c13.1-3.9,23.6-9.6,31.5-17c7.8-7.3,10.8-14.3,8.8-20.7c-1.9-6.5-8.2-10.6-18.8-12.4
		c-10.6-1.7-22.5-0.6-35.7,3.3c-13.1,3.9-23.7,9.6-31.5,17c-7.8,7.3-10.8,14.2-8.8,20.7c1.9,6.4,8.2,10.6,18.8,12.4
		C199.3,319.7,211.2,318.6,224.3,314.6L224.3,314.6z"/>
	<path d="M601,394.7l-0.6-0.6c-22-24.2-45.3-44.5-69.9-60.9l-3.1-2.1l-1.5,8.2c-27.4-12.8-54.8-23.7-82.3-32.9h-0.1
		c-0.1,0-0.3-0.1-0.5-0.1c0,0,0,0-0.1,0c-45.5-10.6-91-17.3-136.5-20l-2.6-0.1l-1,51.1c0,0.1,0,0.2,0,0.4l6.6,48.1l15.8,9.8
		l-19.9-0.2l-49.6-103.8l-61.5,10l-8.1,37.2l-18.6-31.2c-0.3-0.5-0.7-0.9-1.3-1.1c-0.5-0.2-1.1-0.2-1.7,0
		c-19.7,7.2-39.2,15.8-58.5,25.9c0,0,0,0-0.1,0h0c-14.7,7.7-29.3,16.2-43.8,25.5l-0.1,0l0,0c-25.5,16.4-50.6,35.4-75.2,56.9
		l-0.7,0.6l-0.1,1c-2.8,39.8,2.7,79.7,16.7,119.5c0.1,0.3,0.3,0.7,0.7,1c0.3,0.2,0.6,0.4,1,0.6L67,553.5l24-26.6
		c0.2-0.3,0.4-0.7,0.6-1.1c0.1-0.4,0.1-0.8,0-1.2L86,503l36.7,22.4l36.8-9.5l0.1,0l35.6-9.2l43.7-6.9c0.5-0.1,0.9-0.3,1.3-0.6
		c0.3-0.3,0.6-0.7,0.7-1.2l13.8-53.4l13.6,44.3l35.7-8.8v4.7l99.4,5.1l76.4,14.6c0.1,0,0.3,0,0.5,0.1l29.2,5.5l8.2-9.8l4,41.8
		l28.4-2.1c0.1,0,0.3,0,0.5-0.1l37.6-11.2l-10-63.8l16.3-13c0.4-0.3,0.7-0.7,0.8-1.3c4.5-17.5,6.3-35.8,5.5-54.7V394.7L601,394.7z
		 M590.8,448.3l-1.4,1.1l-12,9.5l-2.8-17.3l-5.5-3l4,25.3v0.2l9.6,60.8l-31.4,9.4l-1.7,0.5l-1.2,0.1l-21.9,1.6l-4-41.8l20.7-24.4
		l2.7-3.2l0.2-0.2c0.1-0.1,0.2-0.2,0.3-0.4l-4.7-2.1l-1.3,1.6l-22.3,26.4l0,0l-10.1,12l-23-4.4l23-40.2l0.3-0.6
		c0.1-0.2,0.2-0.5,0.2-0.7v0l0.3-1.4l6.8-36c0-0.1,0-0.2,0.1-0.3c0-0.2,0-0.4,0-0.6l14.6-76.7v0c0,0,0-0.1,0-0.1l0.7-3.7
		c22.9,15.6,44.7,34.7,65.3,57.3c0.6,17.3-1,34.1-4.9,50.3C591,447.5,590.9,447.9,590.8,448.3L590.8,448.3z M164.1,311.8l2,3.5
		l18.2,30.6l-17.5,80.7l-2.1,10l-6,27.7l0,0.2c0,0.3,0,0.7,0,1.1c0,0,0,0.1,0,0.2c0.1,0.2,0.2,0.5,0.4,0.8l0.4,0.5l30.6,35.5
		l-30.7,7.9L123.2,480l-1.6-1.4l0,1c0,0.6-0.1,1.2-0.6,1.8c-0.4,0.5-1,0.8-1.7,0.9c-0.6,0-1.2-0.1-1.8-0.6l0.2,0.2l35.9,30.2
		l-30.1,7.8l-40.2-24.5c0,0,0,0,0,0h0l-1.3-0.8l-2.4-1.5c0-0.2-0.1-0.5-0.2-0.7c-0.8-3.7-1.5-7.5-2.3-11.1l0-0.1c0,0,0-0.1,0-0.1
		c0,0,0-0.1,0-0.1c-2.8-13.8-5-27.5-6.8-41.1c-3.4-26.6-4.9-52.7-4.4-78.4c12.8-8.2,25.8-15.8,38.9-22.8l1.8,43.4l5-1.9l-1.9-44.1
		c17.7-9.2,35.7-17.2,53.9-23.9C163.6,312,163.8,311.9,164.1,311.8L164.1,311.8z M-9.4,417.9c22.9-20,46.2-37.7,70-53.3
		c-0.3,24.7,1.1,49.8,4.4,75.3c0,0.1,0,0.3,0.1,0.5c0,0.3,0.1,0.7,0.1,1.1c0,0.5,0.1,1,0.2,1.6c1.5,11.2,3.3,22.5,5.5,33.9l-33.2-17
		l-2.8-1.4l0.2,0.1c0.2,0.2,0.5,0.4,0.7,0.7c0.1,0.2,0.2,0.5,0.3,0.8c0.1,0.5,0,1.1-0.2,1.6c0,0.1-0.1,0.2-0.2,0.3
		c-0.4,0.5-0.9,0.8-1.6,1h0c-0.6,0.1-1.2,0-1.8-0.4l-0.2-0.1c0.1,0.1,0.3,0.2,0.4,0.3l3.3,1.7l36.4,18.7c0.8,3.9,1.6,7.9,2.5,11.9
		c0,0.3,0.2,0.6,0.4,0.9c0.1,0.2,0.4,0.5,0.7,0.7l4,2.4l6.5,25.3l-21.1,23.4l-55.9-14l-2.8-0.7c-0.1-0.2-0.2-0.5-0.2-0.8
		C-6.7,494.2-12,456.1-9.4,417.9L-9.4,417.9z M234.6,381.2C234.5,381.2,234.5,381.2,234.6,381.2l-2.4,7.3l19.6,47.7L236.6,495
		l-0.7,0.1l-40.1,6.3l-30.9-35.8l-1.1-1.2v0l0.3-1.6L189.4,346v-0.1l8.7-40l54.5-8.9l48.4,101.3l1.9,33.5l0.2,3l0.8,15v24.9
		l-32.3,7.9l-11.3-37.1l-0.4-1.4l0-0.1c0,0,0-0.1,0-0.1l-0.4-1.1l-2.8-7.4l0,0c0,0,0,0,0-0.1l0,0L234.6,381.2L234.6,381.2z
		 M308.3,342l-0.6-4.5l0-0.4l0.9-45.7c43.8,2.7,87.6,9.1,131.4,19.3l4.9,1.4c26.6,9,53.3,19.7,79.9,32.2l-7.6,40l-0.9,5l-5.2,27.6
		l-0.9,4.9l-6.5,34.2l-0.2,1l-1,1.8l-23,40.2l-71.2-13.5l26.9-34.3c0.3-0.4,0.4-0.8,0.5-1.3l0.2-3.6l0.2-3l2.9-43c0-0.3,0-0.7-0.1-1
		c-0.1-0.3-0.3-0.6-0.5-0.8l-0.1-0.2l-12.9-13.4l15.4-32.4l-2.9-0.7h0L423,382.3l-2.3,4.7l13.3,13.8l-3.2,47.3l0,0.5l-1.9,2.4
		l-26.3,33.4l-93.4-4.8v-28.6v-1.5c0,0,0-0.1,0-0.1l0-1.3l-2.8-47.9l69.4,0.9l-5.2-5l-35.6-0.5l-20.8-12.9L308.3,342L308.3,342z"/>
	<polygon fill="#FFFFFF" points="545.8,467.1 543,470.4 548.3,535 549.6,534.9 551.3,534.3 545.8,467.1 	"/>
	<polygon fill="#543E3C" points="548.3,535 543,470.4 522.3,494.8 526.4,536.6 548.3,535 	"/>
	<polygon fill="#76747A" points="540.2,466 507.6,459.9 484.6,500.1 507.6,504.5 517.8,492.4 517.8,492.4 540.2,466 	"/>
	<polygon fill="#76747A" points="574.6,441.7 577.4,459 589.4,449.5 574.6,441.7 	"/>
	<path fill="#FFFFFF" d="M589.4,449.5l1.4-1.1c0.1-0.4,0.2-0.8,0.3-1.3l-18.9-10.1l-3.8-1.9l0.6,3.6l5.5,3L589.4,449.5L589.4,449.5z
		"/>
	<path fill="#FFFFFF" d="M508.2,458.5c0,0.2-0.1,0.5-0.2,0.7l-0.3,0.6l32.6,6.1l1.3-1.6l0-1.1l-33-6.2L508.2,458.5L508.2,458.5
		L508.2,458.5z"/>
	<path fill="#543E3C" d="M572.9,414.1v-5.9l-34.6-23.2l3.1,78.3l0,1.1l4.7,2.1l0.3-1.3c0,0,0,0,0-0.1l-2.8-70.4L572.9,414.1
		L572.9,414.1z"/>
	<path fill="#9DDFF9" d="M572.9,408.2v5.9l-29.2-19.5l2.8,70.4c0,0,0,0,0,0.1l-0.3,1.3c-0.1,0.1-0.2,0.2-0.3,0.4l-0.2,0.2l5.5,67.2
		l31.4-9.4l-9.6-60.8v-0.2l-4-25.3l-0.6-3.6l3.8,1.9l18.9,10.1c3.9-16.2,5.6-32.9,4.9-50.3c-20.6-22.6-42.3-41.7-65.3-57.3l-0.7,3.7
		c-0.1,0-0.1,0.1-0.1,0.1v0L515.5,420c0,0.2,0,0.4,0,0.6c0,0.1,0,0.2-0.1,0.3l-6.8,36l33,6.2l-3.1-78.3L572.9,408.2L572.9,408.2z"/>
	<path fill="#D8F5FC" d="M166.1,315.3l-2-3.5c-0.2,0.1-0.5,0.2-0.7,0.3c-3.1,39.1-2.7,80.6,1.3,124.5l2.1-10
		C163.7,387.6,163.5,350.5,166.1,315.3L166.1,315.3z"/>
	<path fill="#543E3C" d="M184.3,345.9l-18.2-30.6c-2.6,35.2-2.4,72.3,0.7,111.3L184.3,345.9L184.3,345.9z"/>
	<polygon fill="#76747A" points="190.2,502.7 159.6,467.2 123.2,480 159.5,510.7 190.2,502.7 	"/>
	<path fill="#FFFFFF" d="M79.4,493.1l2.4,1.5l35.9-12.6l-0.2-0.2c-0.3-0.3-0.6-0.6-0.7-1c0-0.2-0.1-0.4-0.1-0.6v0l0-0.8l-37.3,13.2
		C79.2,492.6,79.3,492.9,79.4,493.1L79.4,493.1z"/>
	<path fill="#76747A" d="M83.2,495.5C83.2,495.5,83.2,495.5,83.2,495.5l40.3,24.5l30.1-7.8L117.7,482l-35.9,12.6L83.2,495.5
		L83.2,495.5L83.2,495.5z"/>
	<path fill="#543E3C" d="M116.5,420l-4.9,1.9l4.9,57.3l0,0.8v0c0,0.2,0.1,0.4,0.1,0.6c0.1,0.4,0.4,0.7,0.7,1
		c0.5,0.4,1.1,0.6,1.8,0.6c0.7,0,1.2-0.3,1.7-0.9c0.4-0.5,0.6-1.1,0.6-1.8l0-1l-0.1-1.2L116.5,420L116.5,420z"/>
	<path fill="#FFFFFF" d="M158.6,465.7c-0.1-0.4-0.1-0.8,0-1.1l0-0.2l-37.2,13.1l0.1,1.2l1.6,1.4l36.4-12.8l-0.4-0.5
		c-0.2-0.2-0.3-0.5-0.4-0.8C158.6,465.9,158.6,465.8,158.6,465.7L158.6,465.7z"/>
	<path fill="#9DDFF9" d="M111.3,380.1l-5,1.9l-1.8-43.4c-13.1,6.9-26.1,14.5-38.9,22.8c-0.5,25.7,0.9,51.8,4.4,78.4
		c1.7,13.5,4,27.2,6.8,41.1c0,0,0,0,0,0.1c0,0,0,0.1,0,0.1l0,0.1c0.7,3.6,1.5,7.4,2.3,11.1l37.3-13.2l-4.9-57.3l4.9-1.9l4.9,57.4
		l37.2-13.1l6-27.7c-4-43.9-4.4-85.4-1.3-124.5c-18.2,6.7-36.2,14.7-53.9,23.9L111.3,380.1L111.3,380.1z"/>
	<path fill="#FFFFFF" d="M65.4,443.2c-0.1-0.5-0.1-1.1-0.2-1.6c0-0.4-0.1-0.7-0.1-1.1c0-0.2,0-0.4-0.1-0.5l-30.3,18.4l0.2,0.2
		l2.8,1.4L65.4,443.2L65.4,443.2z"/>
	<path fill="#76747A" d="M70.9,477.1c-2.2-11.3-4-22.6-5.5-33.9L37.7,460L70.9,477.1L70.9,477.1z"/>
	<path fill="#9DDFF9" d="M60.5,364.6c-23.7,15.5-47.1,33.3-70,53.3c-2.5,38.1,2.7,76.3,15.7,114.4l33.7-22.8L32.5,463
		c-0.1-0.1-0.3-0.2-0.4-0.3L6.2,444.7l29.1-19l0.5,5.5l-20.7,13.7l19.5,13.5l30.3-18.4C61.7,414.4,60.2,389.3,60.5,364.6L60.5,364.6
		z"/>
	<path fill="#543E3C" d="M35.8,459.4c-0.2-0.3-0.4-0.5-0.7-0.7l-0.2-0.1l-0.2-0.2l-19.5-13.5l20.7-13.7l-0.5-5.5l-29.1,19l25.8,17.9
		l0.2,0.1c0.5,0.3,1.1,0.5,1.8,0.4h0c0.6-0.1,1.2-0.4,1.6-1c0-0.1,0.1-0.2,0.2-0.3c0.2-0.5,0.3-1,0.2-1.6
		C36.1,460,36,459.7,35.8,459.4L35.8,459.4z"/>
	<path fill="#FFFFFF" d="M35.8,464.7l-3.3-1.7l7.5,46.5L6.3,532.3c0,0.2,0.1,0.5,0.2,0.8l2.8,0.7l32.5-22l0.6-0.4
		c0.2-0.1,0.4-0.4,0.5-0.6c0,0,0-0.1,0-0.1c0-0.2,0.1-0.4,0-0.7L43,509L35.8,464.7L35.8,464.7z"/>
	<path fill="#543E3C" d="M74.7,495.2c-0.8-4-1.7-7.9-2.5-11.9l-36.4-18.7L43,509l43.4,15.5l-6.5-25.3l-4-2.4
		c-0.3-0.2-0.5-0.4-0.7-0.7C74.9,495.9,74.7,495.6,74.7,495.2L74.7,495.2z"/>
	<polygon fill="#76747A" points="65.3,547.9 86.4,524.5 41.9,511.8 9.4,533.9 65.3,547.9 	"/>
	<path fill="#93CAE0" d="M43,509l0.1,0.9c0,0.2,0,0.4,0,0.7c0,0,0,0.1,0,0.1c-0.1,0.2-0.3,0.5-0.5,0.6l-0.6,0.4l44.5,12.7L43,509
		L43,509z"/>
	<path fill="#FFFFFF" d="M303.3,434.9l-0.2-3l-43.5,10.9l0.4,1.1c0,0,0,0.1,0,0.1l0,0.1l0.4,1.4L303.3,434.9L303.3,434.9z"/>
	<polygon fill="#76747A" points="304.1,449.9 303.3,434.9 260.5,445.6 271.8,482.7 304.1,474.8 304.1,449.9 	"/>
	<path d="M229.8,383L229.8,383l0-0.2C229.8,382.8,229.8,382.9,229.8,383L229.8,383z"/>
	<polygon fill="#9DDFF9" points="216.1,451.6 216.4,451.4 216.2,451.1 216.1,451.6 	"/>
	<path fill="#FFFFFF" d="M232.2,388.6l-1.9-4.6L213.4,450l-49.4,12.7l-0.3,1.6v0l1.1,1.2l49.1-12.7l1.1-0.3c0.1,0,0.2,0,0.3-0.1
		c0.1-0.1,0.2-0.2,0.3-0.3c0.2-0.2,0.3-0.4,0.4-0.6l0.1-0.5L232.2,388.6L232.2,388.6z"/>
	<path fill="#93CAE0" d="M216.4,451.4l-0.3,0.2c0,0.2-0.2,0.4-0.4,0.6c-0.1,0.1-0.2,0.2-0.3,0.3c-0.1,0-0.2,0-0.3,0.1l-1.1,0.3
		l21.9,42.1l0.7-0.1L216.4,451.4L216.4,451.4z"/>
	<polygon fill="#543E3C" points="216.2,451.1 216.4,451.4 236.6,495 251.8,436.3 232.2,388.6 216.2,451.1 	"/>
	<polygon fill="#76747A" points="213.9,453 164.8,465.7 195.7,501.4 235.8,495.1 213.9,453 	"/>
	<path fill="#543E3C" d="M265.6,361.7l-1.8-4.7l-39.9,7.8l5.9,17.9l0.1,0.2h0c0,0,0,0.1,0.1,0.1l0.3,0.8l1.9,4.6l2.3-7.4
		c0,0,0,0,0,0c0,0,0,0,0,0l-4.1-12.5L265.6,361.7L265.6,361.7z"/>
	<path fill="#9DDFF9" d="M263.8,357l1.8,4.7l-35.2,6.9l4.1,12.5c0,0,0,0,0,0l22.1,53.9l0,0c0,0,0,0,0,0.1l0,0l2.8,7.4l43.5-10.9
		l-1.9-33.5L252.7,297l-54.5,8.9l-8.7,40v0.1l-25.4,116.8l49.4-12.7l16.8-66.1l-0.3-0.8c0,0,0-0.1-0.1-0.1c0-0.1,0-0.2,0-0.2
		l-5.9-17.9L263.8,357L263.8,357z"/>
	<polygon fill="#FFFFFF" points="502.3,458.9 503.4,457.1 503.6,456 436,443.2 435.8,446.3 502.3,458.9 	"/>
	<path fill="#76747A" d="M479.3,499.1l23-40.2l-66.5-12.6l-0.2,3.6c0,0.5-0.2,0.9-0.5,1.3l-26.9,34.3L479.3,499.1L479.3,499.1z"/>
	<path fill="#FFFFFF" d="M430.6,448.8l0-0.5H309l0,1.3c0,0,0,0.1,0,0.1v1.5h119.7L430.6,448.8L430.6,448.8z"/>
	<polygon fill="#76747A" points="402.5,484.6 428.8,451.2 309.1,451.2 309.1,479.8 402.5,484.6 	"/>
	<polygon fill="#543E3C" points="384.5,342.3 384.6,342.3 384.5,342.3 	"/>
	<path fill="#FFFFFF" d="M376.9,338.1v3.4l7.6,0.8l53.1,9.1c-0.2-0.4-0.3-0.8-0.3-1.3l0.1-1.7l-57.5-9.9L376.9,338.1L376.9,338.1z"
		/>
	<polygon fill="#543E3C" points="384.6,342.3 384.5,342.3 376.9,341.5 420.6,387.1 423,382.3 384.6,342.3 	"/>
	<polygon fill="#76747A" points="313.9,382.7 334.8,395.7 370.4,396.2 308.3,342 313.9,382.7 	"/>
	<path fill="#9DDFF9" d="M376.9,341.5v-3.4l3.1,0.4l57.5,9.9l2.5-37.7c-43.8-10.1-87.6-16.6-131.4-19.3l-0.9,45.7l0,0.4l68,59.3
		l0,4.4l-69.4-0.9l2.8,47.9h121.7l3.2-47.3l-13.3-13.8L376.9,341.5L376.9,341.5z"/>
	<polygon fill="#FFFFFF" points="307.6,337.5 308.3,342 370.4,396.2 375.6,401.2 375.7,396.8 307.6,337.5 	"/>
	<polygon fill="#543E3C" points="477.1,368.3 477.1,373.6 516.3,389.3 517.2,384.3 477.1,368.3 	"/>
	<polygon fill="#543E3C" points="475.2,407.3 475.2,412.6 510.1,421.8 511,416.9 475.2,407.3 	"/>
	<path fill="#9DDFF9" d="M438.1,398.1l0.1,0.2c0.2,0.2,0.4,0.5,0.5,0.8c0.1,0.3,0.2,0.7,0.1,1l-2.9,43l67.5,12.8l6.5-34.2l-34.9-9.2
		v-5.2l35.8,9.5l5.2-27.6l-39.1-15.7v-5.2l40.1,15.9l7.6-40c-26.6-12.4-53.3-23.2-79.9-32.2l-3.7,40.3L438.1,398.1L438.1,398.1z"/>
	<polygon fill="#76747A" points="437.6,351.5 437.6,351.5 384.5,342.3 384.6,342.3 423,382.3 437.6,351.5 	"/>
	<path fill="#543E3C" d="M444.9,312.1l-4.9-1.4l-2.5,37.7l-0.1,1.7c0,0.4,0,0.9,0.3,1.3v0h0l2.9,0.7l-15.4,32.4l12.9,13.4l3.1-45.7
		L444.9,312.1L444.9,312.1z"/>
	
		<line fill="none" stroke="#FF0000" stroke-width="4.998000e-002" stroke-linecap="square" stroke-miterlimit="10" x1="384.5" y1="342.3" x2="384.6" y2="342.3"/>
	<path fill="#8EBED3" d="M327,297.8c-4.5-0.4-9-0.7-13.5-1l-0.8,38.5l8.8,7.7l25.3-43.2C340.2,299,333.6,298.3,327,297.8L327,297.8z
		"/>
	<path fill="#8EBED3" d="M283.2,372.4l-27.5,47l5.6,13.7c0,0.1,0,0.2,0.1,0.3l1.2,3.2l4.5-1.1l25.5-43.5L283.2,372.4L283.2,372.4z"
		/>
	<path fill="#8EBED3" d="M367.2,382.8l9.9,8.6c0.7,0.2,1.4,0.6,2,1.3c0.4,0.4,0.8,0.9,1,1.4c0.8,0.8,1.2,1.9,1.3,3.1
		c0.1,1.2-0.2,2.3-0.9,3.3v0.7c0,1.3-0.5,2.5-1.5,3.5c-1,0.9-2.2,1.4-3.6,1.4l-21.9-0.3l-21.9,37.3h42l35.6-60.7l-26.1-27.2
		L367.2,382.8L367.2,382.8z"/>
	<path fill="#8EBED3" d="M434.7,314.6c-8.2-1.8-16.4-3.6-24.5-5.2L394.6,336l38.1,6.6h0v-0.1L434.7,314.6L434.7,314.6z"/>
	<path fill="#8EBED3" d="M10.9,407.3c-5.1,4.2-10.3,8.5-15.4,13c-0.2,4.7-0.4,9.4-0.4,14.1L10.9,407.3L10.9,407.3z"/>
	<path fill="#8EBED3" d="M194.4,346.7c0,0.1,0,0.2,0,0.4l-12.9,59.2l60-102.3l-39.1,6.4L194.4,346.7L194.4,346.7z"/>
	<path fill="#8EBED3" d="M154.4,460.5l5.2-24.2c-1.8-20.1-2.9-39.8-3.2-59l-33.6,57.4l3,35.9L154.4,460.5L154.4,460.5z"/>
	<path fill="#8EBED3" d="M81.7,479.9c0,0,0-0.1,0-0.1c0,0,0,0,0-0.1c0,0,0,0,0,0c0-0.1,0-0.2-0.1-0.3L81.7,479.9L81.7,479.9z"/>
	<polygon fill="#8EBED3" points="109.6,457.1 95.4,481.3 111.2,475.8 109.6,457.1 	"/>
	<path fill="#8EBED3" d="M5.4,512.3c1.1,4,2.3,8.1,3.6,12.2l25.6-17.4L29,472L5.4,512.3L5.4,512.3z"/>
	<path fill="#8EBED3" d="M43.6,447.1l16-9.8c-0.6-4.9-1.1-9.9-1.6-14.8L43.6,447.1L43.6,447.1z"/>
	<polygon fill="#8EBED3" points="405.7,443.2 426.1,443.2 428.7,404 405.7,443.2 	"/>
	<path fill="#8EBED3" d="M552,388l10.3-17.6c-9.1-8.1-18.5-15.6-28.1-22.5l-13.8,72.6c0,0.4-0.1,0.9-0.2,1.4c0,0,0,0,0,0.1
		c0,0.1,0,0.2-0.1,0.3l-5.6,29.7l20.2-34.4l-1.3-32.5c0-1.3,0.3-2.4,1.1-3.4c0.8-1,1.9-1.6,3.1-1.7c1.2-0.2,2.4,0,3.5,0.8L552,388
		L552,388z"/>
	<path fill="#8EBED3" d="M535,344.1c0,0,0-0.1,0-0.2L535,344.1L535,344.1L535,344.1z"/>
	<path fill="#8EBED3" d="M579.1,386.2l-8.4,14.4l5.1,3.4c1.1,0.7,1.8,1.8,2.1,3.1c0.2,1.3,0,2.6-0.7,3.8l-2.8,4.1
		c-0.7,1.1-1.8,1.8-3.1,2.1c-1.3,0.2-2.6,0-3.8-0.7l-4.3-2.9l-12.6,21.6c0.3,22,0.5,33.1,0.4,33.2l4.9,59.4l21.3-6.4l-8.9-56.5
		c0-0.2,0-0.4,0-0.6l-4-24.8c-0.3-2-0.5-3.9-0.4-5.7c0-0.8,0.2-1.5,0.6-2c0.2-0.4,0.7-0.8,1.4-1.1c0.6-0.3,1.2-0.5,1.9-0.4
		c0.3,0,0.9,0.1,1.6,0.3c1,0.2,2.7,0.9,5.3,2.1l1.3,0.7c0.3,0.1,0.6,0.2,0.9,0.5l10.8,5.8c2.7-13.2,3.8-26.8,3.4-40.7
		C587.1,394.4,583.1,390.2,579.1,386.2L579.1,386.2z"/>
	<path fill="#8EBED3" d="M444.5,376.9l-1.3,19.8l-1.8,42.4l58.2,11l4.7-24.8l-30.9-8.4c-1.3-0.3-2.3-1.1-3-2.3
		c-0.7-1.1-0.8-2.4-0.5-3.8l0.1-4.8c0.3-1.3,1.1-2.3,2.3-3c1.1-0.7,2.4-0.8,3.8-0.5l31,8.2l3.4-18.2l-35.3-14.2
		c-0.6-0.2-1.3-1.2-2-3c-0.7-1.7-0.9-2.8-0.7-3.5l0.2-4.6c0.5-1.2,1.4-2.2,2.6-2.7c0.6-0.2,1.6-0.4,2.7-0.4c1.1,0,2,0.1,2.7,0.4
		l32.6,13.1l5.7-30.2c-15.2-7-30.5-13.5-45.8-19.4L444.5,376.9L444.5,376.9z"/>
	<path fill="#8EBED3" d="M157.5,324.4c0-1.6,0.1-3.2,0.3-4.8c-14.6,5.7-29,12.2-43.2,19.5l1.7,40.9c0,1.3-0.3,2.5-1.3,3.6
		c-0.9,1-2.1,1.5-3.5,1.6l-5,1.4c-1.4,0-2.6-0.3-3.5-1.3c-1-0.9-1.6-2.1-1.6-3.4l-1.3-31.1l-28.7,49.1c0.7,13,1.9,26.1,3.6,39.4
		c0.8,6.9,1.9,13.8,3,20.8L157.5,324.4L157.5,324.4z"/>
	<polygon fill="#FDF155" points="279.9,580.2 291.5,618.7 300,605.9 319.5,631.1 320.1,610.5 347.2,625.9 346.6,610.4 386.8,627.2 
		361.5,595.3 383.1,587.3 361.1,573.2 378,560 350.5,559.7 356.9,545.9 313,547.7 279.9,580.2 	"/>
	<polygon fill="none" stroke="#FF9900" stroke-width="2.9988" stroke-linecap="round" stroke-miterlimit="10" points="279.9,580.2 
		313,547.7 356.9,545.9 350.5,559.7 378,560 361.1,573.2 383.1,587.3 361.5,595.3 386.8,627.2 346.6,610.4 347.2,625.9 320.1,610.5 
		319.5,631.1 300,605.9 291.5,618.7 279.9,580.2 	"/>
	<path fill="#9DDFF9" d="M231.7,493.9c-3.2,7.2-2.9,14.3,0.9,21.1c3.9,6.8,10.2,11.5,19,14c8.8,2.4,17.5,2,26.1-1.3
		c8.5-3.3,14.4-8.6,17.7-15.8c3.3-7.2,3-14.3-0.9-21.1c-3.9-6.8-10.2-11.5-19-14s-17.4-2.1-26,1.2
		C241,481.4,235.1,486.7,231.7,493.9L231.7,493.9z"/>
	
		<path fill="none" stroke="#000000" stroke-width="4.998" stroke-linecap="round" stroke-linejoin="round" stroke-miterlimit="10" d="
		M232.7,515.1c3.9,6.8,10.2,11.5,19,14c8.8,2.4,17.5,2,26.1-1.3c8.5-3.3,14.4-8.6,17.7-15.8c3.3-7.2,3-14.3-0.9-21.1
		s-10.2-11.5-19-14s-17.4-2.1-26,1.2c-8.5,3.3-14.5,8.6-17.8,15.8C228.5,501.2,228.8,508.2,232.7,515.1L232.7,515.1z"/>
	<path fill="#89A9B9" d="M242.4,497.8c-2.4,5.3-2.1,10.5,0.7,15.6c2.8,5,7.5,8.5,14,10.4c6.5,1.8,12.9,1.4,19.2-1
		s10.6-6.3,13.1-11.6c2.4-5.3,2.2-10.5-0.6-15.6c-2.8-5-7.5-8.5-14-10.3s-12.9-1.5-19.2,0.9S244.8,492.5,242.4,497.8L242.4,497.8z"
		/>
	<path fill="#9DDFF9" d="M262.6,487.1c0.6,1.1,1.6,1.9,3.1,2.3c1.4,0.4,2.9,0.3,4.3-0.2c1.4-0.5,2.4-1.4,2.9-2.6
		c0.5-1.1,0.5-2.3-0.1-3.4c-0.6-1.1-1.7-1.9-3.1-2.3c-1.4-0.4-2.8-0.3-4.2,0.2c-1.4,0.5-2.4,1.4-2.9,2.6
		C261.9,484.8,261.9,485.9,262.6,487.1L262.6,487.1z"/>
	<path fill="#F26D7D" d="M344.1,519.2c-15.5-4.2-30.4-5.1-44.5-2.7c10.4,7.7,20.8,16.6,31,26.7L344.1,519.2L344.1,519.2z"/>
	<path fill="#FFFFFF" d="M312.1,574.1c9.3-7.6,15.5-17.9,18.4-30.9c-10.2-10.1-20.6-19-31-26.7c-33.2-24.4-67.3-36.9-102.5-37.3
		c3.7,36.9,28.5,72.6,74.5,107C288.2,586.6,301.7,582.6,312.1,574.1L312.1,574.1z"/>
	<path fill="#C25E69" d="M329,542.9l10.1-17.9c-11.6-3.1-22.7-3.8-33.2-2C313.6,528.7,321.3,535.4,329,542.9L329,542.9z"/>
	<path d="M194.2,476.6l0.4,2.8c3.6,37.5,28.8,73.8,75.5,108.7l0.6,0.5h0.8c17.2,0.5,31.2-3.7,42.2-12.6c9.6-7.8,16-18.5,19.2-31.9
		l14.9-26.5l-3.1-0.8c-15.5-4.2-30.4-5.2-44.6-2.9c-33.4-24.4-67.7-36.8-103-37.1L194.2,476.6L194.2,476.6z M304.5,518.3
		c11.4-1.4,23.4-0.6,35.8,2.4L329.5,540C321.2,532,312.8,524.8,304.5,518.3L304.5,518.3z M298.1,518.5l0.8,0.6c0,0,3.7,2.8,11.1,8.5
		c8.1,6.4,14.2,11.5,18,15.2c-2.8,12.3-8.7,22-17.5,29.2c-9.9,8-22.6,11.8-38.1,11.6c-43.7-32.8-67.9-66.8-72.5-102
		C233.5,482.8,266.3,495.1,298.1,518.5L298.1,518.5z"/>
	<path fill="#CBC4C4" d="M304.6,572.6c7.3-5.9,12.1-14,14.5-24.3c-8-7.9-16.2-14.9-24.4-21c-26.1-19.2-53-29-80.6-29.3
		c2.9,29,22.5,57.1,58.6,84.1C285.7,582.5,296.4,579.4,304.6,572.6L304.6,572.6z"/>
	<path fill="#F26D7D" d="M311.1,568.2c15.4-0.1,26.6-2.1,33.5-6c-14.4-14.4-35.4-24.2-63-29.5C284.1,540.5,294,552.3,311.1,568.2
		L311.1,568.2z"/>
	<path fill="#C25E69" d="M308.5,567.9c13,0,22.6-1.5,28.6-4.5c-11.3-11.5-28.5-19.4-51.5-23.8C287.3,545.9,295,555.3,308.5,567.9
		L308.5,567.9z"/>
	<path d="M278.1,529.5l1.9,4.2c3.8,8.6,13.4,20.1,28.6,34.2l2.5,2.7c16-0.1,27.5-2.2,34.7-6.3l3-1.6l-2.4-2.3
		c-14.7-14.8-36.1-24.8-64.3-30.2L278.1,529.5L278.1,529.5z M311.1,565.7h-0.4c-13.6-12.6-22.3-22.6-26-29.8
		c23.7,4.9,42.2,13.5,55.6,25.6C333.5,564.1,323.8,565.5,311.1,565.7L311.1,565.7z"/>
	<path fill="#F26D7D" d="M252.1,589.7c5.6-4.3,10.8-11.6,15.5-22l-29.5-24.5C236.1,559.3,240.7,574.8,252.1,589.7L252.1,589.7z"/>
	<path fill="#C25E69" d="M268.2,566.4l-24.1-18.7c-1.2,13.7,2.8,26.5,12.2,38.4C260.7,582,264.6,575.5,268.2,566.4L268.2,566.4z"/>
	<path d="M236.3,539.7l-0.6,3c-2.1,16.8,2.6,33,14.4,48.5l1.5,2l2-1.6c5.9-4.5,11.5-12.4,16.6-23.7L236.3,539.7L236.3,539.7z
		 M265,567.4c-3.8,8.2-8,14.4-12.5,18.6c-9-12.6-13.1-25.6-12.3-39.1L265,567.4L265,567.4z"/>
	<path fill="#C6996D" d="M443.7,537.6c-4.2,1.4-7.8,4.1-10.9,8.3c-3.1,4.1-4.7,8.4-4.8,12.8c-0.1,4.4,1.2,7.6,4,9.8
		c2.8,2.1,6.3,2.5,10.5,1.1c4.2-1.4,7.8-4.1,10.9-8.3c3.1-4.1,4.7-8.4,4.8-12.8c0.1-4.4-1.1-7.7-4-9.8
		C451.4,536.6,447.9,536.2,443.7,537.6L443.7,537.6z"/>
	<path fill="#8F6C5E" d="M452.3,543.1c-2.1-1.5-4.7-1.8-7.7-0.8c-3.1,1-5.8,3-8.1,6.1c-2.2,3-3.4,6.2-3.5,9.4
		c-0.1,3.2,0.8,5.6,3,7.2c2,1.6,4.6,1.9,7.7,0.8c3.1-1,5.8-3,8.1-6.1c2.2-3,3.4-6.2,3.5-9.4C455.4,547.1,454.4,544.7,452.3,543.1
		L452.3,543.1z"/>
	<path fill="#C6996D" d="M175.3,588.3c5.6-0.4,11.5,0.9,17.6,4c6.1,3.1,10.7,7.1,13.6,12c2.9,4.8,3.4,9.1,1.5,12.9
		c-1.9,3.7-5.7,5.8-11.3,6.3c-5.6,0.4-11.5-0.9-17.7-4.1c-6.1-3.1-10.6-7.1-13.6-11.9s-3.5-9.1-1.6-12.9
		C165.8,590.9,169.6,588.8,175.3,588.3L175.3,588.3z"/>
	<path fill="#8F6C5E" d="M177.1,592.3c-4.5,0.3-7.6,2-9.2,5c-1.5,3-1.1,6.5,1.3,10.4c2.3,3.9,6,7.1,10.9,9.6
		c4.9,2.5,9.6,3.6,14.2,3.2c4.5-0.3,7.6-2,9.1-5c1.5-3,1.1-6.4-1.2-10.3c-2.3-3.9-6-7.1-10.9-9.6C186.2,593,181.5,592,177.1,592.3
		L177.1,592.3z"/>
	<polygon fill="#FDF155" points="419.3,646.1 412,634.2 399.2,636.5 406.6,648.4 419.3,646.1 	"/>
	<polygon fill="none" stroke="#FF9900" stroke-width="2.9988" stroke-linecap="square" stroke-miterlimit="10" points="412,634.2 
		399.2,636.5 406.6,648.4 419.3,646.1 412,634.2 	"/>
	<polygon fill="#FDF155" points="446.5,656.3 453,650.6 448.5,643 442,648.7 446.5,656.3 	"/>
	<polygon fill="none" stroke="#FF9900" stroke-width="2.9988" stroke-linecap="square" stroke-miterlimit="10" points="453,650.6 
		448.5,643 442,648.7 446.5,656.3 453,650.6 	"/>
	<polygon fill="#FDF155" points="480.2,651.5 485.5,649 481.4,645.8 476.1,648.3 480.2,651.5 	"/>
	<polygon fill="none" stroke="#FF9900" stroke-width="2.9988" stroke-linecap="square" stroke-miterlimit="10" points="485.5,649 
		481.4,645.8 476.1,648.3 480.2,651.5 485.5,649 	"/>
	<path fill="#C6996D" d="M413.9,564.5c-3.1,0.4-6.2,1.9-9,4.4c-2.9,2.5-4.7,5.4-5.6,8.5c-0.8,3.1-0.4,5.6,1.3,7.5
		c1.7,1.9,4.1,2.6,7.4,2.2c3.1-0.4,6.2-1.9,9.1-4.5c2.8-2.5,4.7-5.4,5.5-8.5c0.8-3.1,0.4-5.6-1.3-7.6
		C419.6,564.7,417.1,564,413.9,564.5L413.9,564.5z"/>
	<path fill="#8F6C5E" d="M419.9,568.4c-1.4-1.6-3.4-2.2-6.1-1.8c-2.6,0.4-5.2,1.6-7.6,3.7c-2.3,2.1-3.9,4.5-4.6,7
		c-0.7,2.6-0.3,4.7,1.1,6.3c1.4,1.5,3.4,2.1,6.1,1.7c2.6-0.3,5.1-1.5,7.5-3.7c2.4-2.1,3.9-4.4,4.6-7.1
		C421.6,572.1,421.3,570,419.9,568.4L419.9,568.4z"/>
</g>
</svg>
