<?xml version="1.0" encoding="UTF-8" standalone="no"?>
<!-- Created with Inkscape (http://www.inkscape.org/) -->

<svg
   xmlns:dc="http://purl.org/dc/elements/1.1/"
   xmlns:cc="http://creativecommons.org/ns#"
   xmlns:rdf="http://www.w3.org/1999/02/22-rdf-syntax-ns#"
   xmlns:svg="http://www.w3.org/2000/svg"
   xmlns="http://www.w3.org/2000/svg"
   xmlns:sodipodi="http://sodipodi.sourceforge.net/DTD/sodipodi-0.dtd"
   xmlns:inkscape="http://www.inkscape.org/namespaces/inkscape"
   width="210mm"
   height="297mm"
   viewBox="0 0 744.09448819 1052.3622047"
   id="svg4776"
   version="1.1"
   inkscape:version="0.91 r13725"
   sodipodi:docname="ship.svg">
  <defs
     id="defs4778" />
  <sodipodi:namedview
     id="base"
     pagecolor="#ffffff"
     bordercolor="#666666"
     borderopacity="1.0"
     inkscape:pageopacity="0.0"
     inkscape:pageshadow="2"
     inkscape:zoom="2"
     inkscape:cx="-63.346483"
     inkscape:cy="542.15887"
     inkscape:document-units="px"
     inkscape:current-layer="layer1"
     showgrid="false"
     inkscape:window-width="1536"
     inkscape:window-height="803"
     inkscape:window-x="-8"
     inkscape:window-y="-8"
     inkscape:window-maximized="1" />
  <metadata
     id="metadata4781">
    <rdf:RDF>
      <cc:Work
         rdf:about="">
        <dc:format>image/svg+xml</dc:format>
        <dc:type
           rdf:resource="http://purl.org/dc/dcmitype/StillImage" />
        <dc:title />
      </cc:Work>
    </rdf:RDF>
  </metadata>
  <g
     inkscape:label="Layer 1"
     inkscape:groupmode="layer"
     id="layer1">
    <g
       id="g5358"
       transform="matrix(-0.95796645,-0.28688026,-0.28688026,0.95796645,320.83673,47.008837)">
      <path
         style="fill:#9ddff9"
         inkscape:connector-curvature="0"
         id="path4723"
         d="m 40.2,533.26459 c -3.2,7.2 -2.9,14.3 0.9,21.1 3.9,6.8 10.2,11.5 19,14 8.8,2.4 17.5,2 26.1,-1.3 8.5,-3.3 14.4,-8.6 17.7,-15.8 3.3,-7.2 3,-14.3 -0.9,-21.1 -3.9,-6.8 -10.2,-11.5 -19,-14 -8.8,-2.5 -17.4,-2.1 -26,1.2 -8.5,3.4 -14.4,8.7 -17.8,15.9 l 0,0 z" />
      <path
         style="fill:none;stroke:#000000;stroke-width:4.99800014;stroke-linecap:round;stroke-linejoin:round;stroke-miterlimit:10"
         inkscape:connector-curvature="0"
         id="path4725"
         d="m 41.2,554.46459 c 3.9,6.8 10.2,11.5 19,14 8.8,2.4 17.5,2 26.1,-1.3 8.5,-3.3 14.4,-8.6 17.7,-15.8 3.3,-7.2 3,-14.3 -0.9,-21.1 -3.9,-6.8 -10.2,-11.5 -19,-14 -8.8,-2.5 -17.4,-2.1 -26,1.2 -8.5,3.3 -14.5,8.6 -17.8,15.8 -3.3,7.3 -3,14.3 0.9,21.2 l 0,0 z"
         stroke-miterlimit="10" />
      <path
         style="fill:#89a9b9"
         inkscape:connector-curvature="0"
         id="path4727"
         d="m 50.9,537.16459 c -2.4,5.3 -2.1,10.5 0.7,15.6 2.8,5 7.5,8.5 14,10.4 6.5,1.8 12.9,1.4 19.2,-1 6.3,-2.4 10.6,-6.3 13.1,-11.6 2.4,-5.3 2.2,-10.5 -0.6,-15.6 -2.8,-5 -7.5,-8.5 -14,-10.3 -6.5,-1.8 -12.9,-1.5 -19.2,0.9 -6.3,2.4 -10.8,6.3 -13.2,11.6 l 0,0 z" />
      <path
         style="fill:#9ddff9"
         inkscape:connector-curvature="0"
         id="path4729"
         d="m 71.1,526.46459 c 0.6,1.1 1.6,1.9 3.1,2.3 1.4,0.4 2.9,0.3 4.3,-0.2 1.4,-0.5 2.4,-1.4 2.9,-2.6 0.5,-1.1 0.5,-2.3 -0.1,-3.4 -0.6,-1.1 -1.7,-1.9 -3.1,-2.3 -1.4,-0.4 -2.8,-0.3 -4.2,0.2 -1.4,0.5 -2.4,1.4 -2.9,2.6 -0.7,1.1 -0.7,2.2 0,3.4 l 0,0 z" />
      <path
         style="fill:#f26d7d"
         inkscape:connector-curvature="0"
         id="path4731"
         d="m 152.6,558.56459 c -15.5,-4.2 -30.4,-5.1 -44.5,-2.7 10.4,7.7 20.8,16.6 31,26.7 l 13.5,-24 0,0 z" />
      <path
         style="fill:#ffffff"
         inkscape:connector-curvature="0"
         id="path4733"
         d="m 120.6,613.46459 c 9.3,-7.6 15.5,-17.9 18.4,-30.9 -10.2,-10.1 -20.6,-19 -31,-26.7 -33.2,-24.4 -67.3,-36.9 -102.5,-37.3 3.7,36.9 28.5,72.6 74.5,107 16.7,0.4 30.2,-3.6 40.6,-12.1 l 0,0 z" />
      <path
         style="fill:#c25e69"
         inkscape:connector-curvature="0"
         id="path4735"
         d="m 137.5,582.26459 10.1,-17.9 c -11.6,-3.1 -22.7,-3.8 -33.2,-2 7.7,5.7 15.4,12.4 23.1,19.9 l 0,0 z" />
      <path
         inkscape:connector-curvature="0"
         id="path4737"
         d="m 2.7,515.96459 0.4,2.8 c 3.6,37.5 28.8,73.8 75.5,108.7 l 0.6,0.5 0.8,0 c 17.2,0.5 31.2,-3.7 42.2,-12.6 9.6,-7.8 16,-18.5 19.2,-31.9 l 14.9,-26.5 -3.1,-0.8 c -15.5,-4.2 -30.4,-5.2 -44.6,-2.9 -33.4,-24.4 -67.7,-36.8 -103,-37.1 l -2.9,-0.2 0,0 z m 110.3,41.7 c 11.4,-1.4 23.4,-0.6 35.8,2.4 l -10.8,19.3 c -8.3,-8 -16.7,-15.2 -25,-21.7 l 0,0 z m -6.4,0.2 0.8,0.6 c 0,0 3.7,2.8 11.1,8.5 8.1,6.4 14.2,11.5 18,15.2 -2.8,12.3 -8.7,22 -17.5,29.2 -9.9,8 -22.6,11.8 -38.1,11.6 -43.7,-32.8 -67.9,-66.8 -72.5,-102 33.6,1.2 66.4,13.5 98.2,36.9 l 0,0 z" />
      <path
         style="fill:#cbc4c4"
         inkscape:connector-curvature="0"
         id="path4739"
         d="m 113.1,611.96459 c 7.3,-5.9 12.1,-14 14.5,-24.3 -8,-7.9 -16.2,-14.9 -24.4,-21 -26.1,-19.2 -53,-29 -80.6,-29.3 2.9,29 22.5,57.1 58.6,84.1 13,0.4 23.7,-2.7 31.9,-9.5 l 0,0 z" />
      <path
         style="fill:#f26d7d"
         inkscape:connector-curvature="0"
         id="path4741"
         d="m 119.6,607.56459 c 15.4,-0.1 26.6,-2.1 33.5,-6 -14.4,-14.4 -35.4,-24.2 -63,-29.5 2.5,7.8 12.4,19.6 29.5,35.5 l 0,0 z" />
      <path
         style="fill:#c25e69"
         inkscape:connector-curvature="0"
         id="path4743"
         d="m 117,607.26459 c 13,0 22.6,-1.5 28.6,-4.5 -11.3,-11.5 -28.5,-19.4 -51.5,-23.8 1.7,6.3 9.4,15.7 22.9,28.3 l 0,0 z" />
      <path
         inkscape:connector-curvature="0"
         id="path4745"
         d="m 86.6,568.86459 1.9,4.2 c 3.8,8.6 13.4,20.1 28.6,34.2 l 2.5,2.7 c 16,-0.1 27.5,-2.2 34.7,-6.3 l 3,-1.6 -2.4,-2.3 c -14.7,-14.8 -36.1,-24.8 -64.3,-30.2 l -4,-0.7 0,0 z m 33,36.2 -0.4,0 c -13.6,-12.6 -22.3,-22.6 -26,-29.8 23.7,4.9 42.2,13.5 55.6,25.6 -6.8,2.6 -16.5,4 -29.2,4.2 l 0,0 z" />
      <path
         style="fill:#f26d7d"
         inkscape:connector-curvature="0"
         id="path4747"
         d="m 60.6,629.06459 c 5.6,-4.3 10.8,-11.6 15.5,-22 l -29.5,-24.5 c -2,16.1 2.6,31.6 14,46.5 l 0,0 z" />
      <path
         style="fill:#c25e69"
         inkscape:connector-curvature="0"
         id="path4749"
         d="m 76.7,605.76459 -24.1,-18.7 c -1.2,13.7 2.8,26.5 12.2,38.4 4.4,-4.1 8.3,-10.6 11.9,-19.7 l 0,0 z" />
      <path
         inkscape:connector-curvature="0"
         id="path4751"
         d="m 44.8,579.06459 -0.6,3 c -2.1,16.8 2.6,33 14.4,48.5 l 1.5,2 2,-1.6 c 5.9,-4.5 11.5,-12.4 16.6,-23.7 l -33.9,-28.2 0,0 z m 28.7,27.7 c -3.8,8.2 -8,14.4 -12.5,18.6 -9,-12.6 -13.1,-25.6 -12.3,-39.1 l 24.8,20.5 0,0 z" />
    </g>
    <g
       transform="matrix(-0.08869957,-0.02656268,-0.02656268,0.08869957,-40.662459,396.71938)"
       id="g5375"
       inkscape:export-xdpi="90"
       inkscape:export-ydpi="90"
       inkscape:export-filename="C:\Users\arian\Documents\Source\EclipsePhaserTools\phasereditor.ui\icons\phaser-ship.png">
      <path
         d="m 40.2,533.26459 c -3.2,7.2 -2.9,14.3 0.9,21.1 3.9,6.8 10.2,11.5 19,14 8.8,2.4 17.5,2 26.1,-1.3 8.5,-3.3 14.4,-8.6 17.7,-15.8 3.3,-7.2 3,-14.3 -0.9,-21.1 -3.9,-6.8 -10.2,-11.5 -19,-14 -8.8,-2.5 -17.4,-2.1 -26,1.2 -8.5,3.4 -14.4,8.7 -17.8,15.9 l 0,0 z"
         id="path5377"
         inkscape:connector-curvature="0"
         style="fill:#9ddff9" />
      <path
         stroke-miterlimit="10"
         d="m 41.2,554.46459 c 3.9,6.8 10.2,11.5 19,14 8.8,2.4 17.5,2 26.1,-1.3 8.5,-3.3 14.4,-8.6 17.7,-15.8 3.3,-7.2 3,-14.3 -0.9,-21.1 -3.9,-6.8 -10.2,-11.5 -19,-14 -8.8,-2.5 -17.4,-2.1 -26,1.2 -8.5,3.3 -14.5,8.6 -17.8,15.8 -3.3,7.3 -3,14.3 0.9,21.2 l 0,0 z"
         id="path5379"
         inkscape:connector-curvature="0"
         style="fill:none;stroke:#000000;stroke-width:4.99800014;stroke-linecap:round;stroke-linejoin:round;stroke-miterlimit:10" />
      <path
         d="m 50.9,537.16459 c -2.4,5.3 -2.1,10.5 0.7,15.6 2.8,5 7.5,8.5 14,10.4 6.5,1.8 12.9,1.4 19.2,-1 6.3,-2.4 10.6,-6.3 13.1,-11.6 2.4,-5.3 2.2,-10.5 -0.6,-15.6 -2.8,-5 -7.5,-8.5 -14,-10.3 -6.5,-1.8 -12.9,-1.5 -19.2,0.9 -6.3,2.4 -10.8,6.3 -13.2,11.6 l 0,0 z"
         id="path5381"
         inkscape:connector-curvature="0"
         style="fill:#89a9b9" />
      <path
         d="m 71.1,526.46459 c 0.6,1.1 1.6,1.9 3.1,2.3 1.4,0.4 2.9,0.3 4.3,-0.2 1.4,-0.5 2.4,-1.4 2.9,-2.6 0.5,-1.1 0.5,-2.3 -0.1,-3.4 -0.6,-1.1 -1.7,-1.9 -3.1,-2.3 -1.4,-0.4 -2.8,-0.3 -4.2,0.2 -1.4,0.5 -2.4,1.4 -2.9,2.6 -0.7,1.1 -0.7,2.2 0,3.4 l 0,0 z"
         id="path5383"
         inkscape:connector-curvature="0"
         style="fill:#9ddff9" />
      <path
         d="m 152.6,558.56459 c -15.5,-4.2 -30.4,-5.1 -44.5,-2.7 10.4,7.7 20.8,16.6 31,26.7 l 13.5,-24 0,0 z"
         id="path5385"
         inkscape:connector-curvature="0"
         style="fill:#f26d7d" />
      <path
         d="m 120.6,613.46459 c 9.3,-7.6 15.5,-17.9 18.4,-30.9 -10.2,-10.1 -20.6,-19 -31,-26.7 -33.2,-24.4 -67.3,-36.9 -102.5,-37.3 3.7,36.9 28.5,72.6 74.5,107 16.7,0.4 30.2,-3.6 40.6,-12.1 l 0,0 z"
         id="path5387"
         inkscape:connector-curvature="0"
         style="fill:#ffffff" />
      <path
         d="m 137.5,582.26459 10.1,-17.9 c -11.6,-3.1 -22.7,-3.8 -33.2,-2 7.7,5.7 15.4,12.4 23.1,19.9 l 0,0 z"
         id="path5389"
         inkscape:connector-curvature="0"
         style="fill:#c25e69" />
      <path
         d="m 2.7,515.96459 0.4,2.8 c 3.6,37.5 28.8,73.8 75.5,108.7 l 0.6,0.5 0.8,0 c 17.2,0.5 31.2,-3.7 42.2,-12.6 9.6,-7.8 16,-18.5 19.2,-31.9 l 14.9,-26.5 -3.1,-0.8 c -15.5,-4.2 -30.4,-5.2 -44.6,-2.9 -33.4,-24.4 -67.7,-36.8 -103,-37.1 l -2.9,-0.2 0,0 z m 110.3,41.7 c 11.4,-1.4 23.4,-0.6 35.8,2.4 l -10.8,19.3 c -8.3,-8 -16.7,-15.2 -25,-21.7 l 0,0 z m -6.4,0.2 0.8,0.6 c 0,0 3.7,2.8 11.1,8.5 8.1,6.4 14.2,11.5 18,15.2 -2.8,12.3 -8.7,22 -17.5,29.2 -9.9,8 -22.6,11.8 -38.1,11.6 -43.7,-32.8 -67.9,-66.8 -72.5,-102 33.6,1.2 66.4,13.5 98.2,36.9 l 0,0 z"
         id="path5391"
         inkscape:connector-curvature="0" />
      <path
         d="m 113.1,611.96459 c 7.3,-5.9 12.1,-14 14.5,-24.3 -8,-7.9 -16.2,-14.9 -24.4,-21 -26.1,-19.2 -53,-29 -80.6,-29.3 2.9,29 22.5,57.1 58.6,84.1 13,0.4 23.7,-2.7 31.9,-9.5 l 0,0 z"
         id="path5393"
         inkscape:connector-curvature="0"
         style="fill:#cbc4c4" />
      <path
         d="m 119.6,607.56459 c 15.4,-0.1 26.6,-2.1 33.5,-6 -14.4,-14.4 -35.4,-24.2 -63,-29.5 2.5,7.8 12.4,19.6 29.5,35.5 l 0,0 z"
         id="path5395"
         inkscape:connector-curvature="0"
         style="fill:#f26d7d" />
      <path
         d="m 117,607.26459 c 13,0 22.6,-1.5 28.6,-4.5 -11.3,-11.5 -28.5,-19.4 -51.5,-23.8 1.7,6.3 9.4,15.7 22.9,28.3 l 0,0 z"
         id="path5397"
         inkscape:connector-curvature="0"
         style="fill:#c25e69" />
      <path
         d="m 86.6,568.86459 1.9,4.2 c 3.8,8.6 13.4,20.1 28.6,34.2 l 2.5,2.7 c 16,-0.1 27.5,-2.2 34.7,-6.3 l 3,-1.6 -2.4,-2.3 c -14.7,-14.8 -36.1,-24.8 -64.3,-30.2 l -4,-0.7 0,0 z m 33,36.2 -0.4,0 c -13.6,-12.6 -22.3,-22.6 -26,-29.8 23.7,4.9 42.2,13.5 55.6,25.6 -6.8,2.6 -16.5,4 -29.2,4.2 l 0,0 z"
         id="path5399"
         inkscape:connector-curvature="0" />
      <path
         d="m 60.6,629.06459 c 5.6,-4.3 10.8,-11.6 15.5,-22 l -29.5,-24.5 c -2,16.1 2.6,31.6 14,46.5 l 0,0 z"
         id="path5401"
         inkscape:connector-curvature="0"
         style="fill:#f26d7d" />
      <path
         d="m 76.7,605.76459 -24.1,-18.7 c -1.2,13.7 2.8,26.5 12.2,38.4 4.4,-4.1 8.3,-10.6 11.9,-19.7 l 0,0 z"
         id="path5403"
         inkscape:connector-curvature="0"
         style="fill:#c25e69" />
      <path
         d="m 44.8,579.06459 -0.6,3 c -2.1,16.8 2.6,33 14.4,48.5 l 1.5,2 2,-1.6 c 5.9,-4.5 11.5,-12.4 16.6,-23.7 l -33.9,-28.2 0,0 z m 28.7,27.7 c -3.8,8.2 -8,14.4 -12.5,18.6 -9,-12.6 -13.1,-25.6 -12.3,-39.1 l 24.8,20.5 0,0 z"
         id="path5405"
         inkscape:connector-curvature="0" />
    </g>
    <rect
       style="opacity:1;fill:#ffffff;fill-opacity:0.2662338;stroke:none;stroke-width:1;stroke-miterlimit:4;stroke-dasharray:none;stroke-opacity:1"
       id="rect4165"
       width="16"
       height="16"
       x="-70.607353"
       y="437.63864"
       inkscape:export-filename="C:\Users\arian\Documents\Source\EclipsePhaserTools\phasereditor.ui\icons\phaser-ship.png"
       inkscape:export-xdpi="90"
       inkscape:export-ydpi="90" />
  </g>
</svg>
