<?xml version="1.0" encoding="UTF-8" standalone="no"?>
<svg
   xmlns:dc="http://purl.org/dc/elements/1.1/"
   xmlns:cc="http://creativecommons.org/ns#"
   xmlns:rdf="http://www.w3.org/1999/02/22-rdf-syntax-ns#"
   xmlns:svg="http://www.w3.org/2000/svg"
   xmlns="http://www.w3.org/2000/svg"
   xmlns:sodipodi="http://sodipodi.sourceforge.net/DTD/sodipodi-0.dtd"
   xmlns:inkscape="http://www.inkscape.org/namespaces/inkscape"
   id="Layer_1"
   data-name="Layer 1"
   width="64"
   height="64"
   viewBox="0 0 64 64"
   version="1.1"
   sodipodi:docname="alien2.svg"
   inkscape:version="0.92.3 (2405546, 2018-03-11)">
  <metadata
     id="metadata44">
    <rdf:RDF>
      <cc:Work
         rdf:about="">
        <dc:format>image/svg+xml</dc:format>
        <dc:type
           rdf:resource="http://purl.org/dc/dcmitype/StillImage" />
        <dc:title>alien-4</dc:title>
      </cc:Work>
    </rdf:RDF>
  </metadata>
  <sodipodi:namedview
     pagecolor="#ffffff"
     bordercolor="#666666"
     borderopacity="1"
     objecttolerance="10"
     gridtolerance="10"
     guidetolerance="10"
     inkscape:pageopacity="0"
     inkscape:pageshadow="2"
     inkscape:window-width="1869"
     inkscape:window-height="1025"
     id="namedview42"
     showgrid="false"
     inkscape:zoom="8"
     inkscape:cx="23.581144"
     inkscape:cy="35.174661"
     inkscape:window-x="51"
     inkscape:window-y="27"
     inkscape:window-maximized="1"
     inkscape:current-layer="Layer_1" />
  <defs
     id="defs4">
    <style
       id="style2">.cls-1{fill:#1d1d1b;}.cls-2{fill:#c8db89;}.cls-3{fill:#fab900;}.cls-4{fill:#8ec480;}.cls-5{fill:#e6e4da;}</style>
  </defs>
  <title
     id="title6">alien-4</title>
  <rect
     style="opacity:1;fill:none;fill-opacity:1;fill-rule:nonzero;stroke:none;stroke-width:37.79527283;stroke-miterlimit:4;stroke-dasharray:none;stroke-dashoffset:0;stroke-opacity:1"
     id="rect4802"
     width="32"
     height="32"
     x="5.6180024"
     y="4.9399819" />
  <g
     id="g4798"
     transform="matrix(1.3551366,0,0,1.3551366,-5.7493581,-1.9275467)"
     style="stroke-width:0.73793304">
    <path
       class="cls-2"
       d="M 13.271191,6.749216 A 1.2005679,1.2005679 0 0 1 14.951986,7.6602351 1.3276869,1.3276869 0 1 1 13.278253,6.749216 Z"
       id="path10"
       inkscape:connector-curvature="0"
       style="fill:#c8db89;stroke-width:0.73793304" />
    <path
       class="cls-2"
       d="M 26.165567,6.8523837 A 1.2005679,1.2005679 0 0 1 27.846362,7.7634029 1.3276869,1.3276869 0 1 1 26.165567,6.8523837 Z"
       id="path12"
       inkscape:connector-curvature="0"
       style="fill:#c8db89;stroke-width:0.73793304" />
    <path
       class="cls-2"
       d="m 9.5070595,18.166649 c 0.1553676,-0.04943 0.091808,1.002827 0.2330515,1.737292 0.1412432,0.734465 0.268362,1.179382 0.1200567,1.179382 -0.1483054,0 -1.20763,0.120056 -1.4124328,-0.854522 a 1.7231681,1.7231681 0 0 1 1.0593246,-2.062152 z"
       id="path14"
       inkscape:connector-curvature="0"
       style="fill:#c8db89;stroke-width:0.73793304" />
    <path
       class="cls-2"
       d="m 30.629993,17.460432 a 1.0946355,1.0946355 0 0 1 1.355935,0.974579 c 0.204803,1.151133 -1.588987,2.062152 -1.673733,1.942095 -0.08475,-0.120057 0.268363,-1.002827 0.296611,-1.560738 a 6.066399,6.066399 0 0 1 0.02119,-1.355936 z"
       id="path16"
       inkscape:connector-curvature="0"
       style="fill:#c8db89;stroke-width:0.73793304" />
    <path
       class="cls-4"
       d="m 17.120073,9.571995 c 2.118649,-0.7627137 6.002839,-0.473165 9.096067,1.588987 3.093228,2.062152 2.824866,8.121489 2.768368,8.799457 a 6.4053829,6.4053829 0 0 1 -0.437854,1.46893 10.593246,10.593246 0 0 0 -1.14407,-1.560739 c -0.148306,0 -0.529663,0.268363 -0.381357,0.409606 a 9.7034136,9.7034136 0 0 1 1.292376,1.942095 c -0.0565,0.176554 -0.557911,1.002827 -0.557911,1.002827 a 15.331958,15.331958 0 0 0 -1.292376,-1.885597 c -0.120057,0 -0.501414,0.29661 -0.437854,0.381356 a 14.124328,14.124328 0 0 1 1.327686,2.210458 c -0.08475,0.148305 -0.706216,0.762714 -0.762713,0.649719 A 14.364442,14.364442 0 0 0 25.59467,22.93361 c -0.08475,0 -0.409606,0.148305 -0.353109,0.296611 0.0565,0.148305 1.087574,1.737292 0.974579,1.885597 a 5.2966231,5.2966231 0 0 1 -0.706216,0.529663 c 0,0 -0.58616,-1.412433 -0.706217,-1.412433 -0.120057,0 -0.649719,0.268362 -0.586159,0.353108 0.06356,0.08475 0.762713,1.264127 0.649719,1.412433 a 2.1186493,2.1186493 0 0 1 -0.409606,0.268362 l -0.826273,-1.038138 -0.409606,0.268362 c 0,0 0.64972,1.002828 0.529663,1.031076 l -0.58616,0.176554 c 0,0 -0.353108,-0.798024 -0.473165,-0.826273 -0.120057,-0.02825 -0.58616,0 -0.501414,0.09181 a 6.5113154,6.5113154 0 0 1 0.381357,0.854522 13.566417,13.566417 0 0 1 -5.501426,0 7.6059508,7.6059508 0 0 1 -5.882782,-6.207642 11.200592,11.200592 0 0 1 1.292376,-8.001432 c 1.024013,-1.687857 2.853114,-2.394074 4.639842,-3.043793 z"
       id="path22"
       inkscape:connector-curvature="0"
       style="fill:#8ec480;stroke-width:0.73793304" />
    <path
       class="cls-1"
       d="m 14.005658,11.895447 c 0.169492,-0.120057 0.444916,0.120057 0.353108,0.268362 a 4.385604,4.385604 0 0 0 -1.320624,1.998593 c -0.353109,1.264127 -0.204803,1.560738 -0.353109,1.588987 -0.148305,0.02825 -0.529662,0 -0.557911,-0.0565 a 7.7683806,7.7683806 0 0 1 0.529663,-2.033903 5.3813691,5.3813691 0 0 1 1.348873,-1.765541 z"
       id="path24"
       inkscape:connector-curvature="0"
       style="fill:#1d1d1b;stroke-width:0.73793304" />
    <path
       class="cls-5"
       d="m 19.452658,10.667229 a 4.8558058,4.5693015 0 0 1 5.848592,5.124278 c -0.491478,4.301062 -7.028139,5.928992 -9.220133,3.061616 -2.191994,-2.867375 -1.897107,-6.900199 3.371541,-8.185894 z"
       id="path28"
       inkscape:connector-curvature="0"
       style="fill:#e6e4da;stroke-width:0.73793298" />
    <path
       class="cls-1"
       d="m 19.654366,12.872969 a 2.155636,1.8958593 0 0 1 2.599182,2.129916 c -0.212902,1.786632 -3.131438,2.465396 -4.107241,1.271707 -0.975802,-1.193689 -0.842738,-2.863293 1.508059,-3.401623 z"
       id="path30"
       inkscape:connector-curvature="0"
       style="fill:#1d1d1b;stroke-width:0.73793298" />
    <path
       class="cls-1"
       d="m 16.216116,22.050839 a 4.0889931,4.0889931 0 0 0 3.644076,1.765541 5.3813691,5.3813691 0 0 0 3.707636,-1.532489 c 0.233052,0 0.706217,0.649719 0.64972,0.939267 -0.0565,0.289549 -1.560739,1.942096 -4.442102,1.765541 -2.881363,-0.176554 -4.237298,-2.026841 -4.237298,-2.175146 0,-0.148306 0.437854,-0.762714 0.677968,-0.762714 z"
       id="path32"
       inkscape:connector-curvature="0"
       style="fill:#1d1d1b;stroke-width:0.73793304" />
  </g>
</svg>
