<?xml version="1.0" encoding="UTF-8" standalone="no"?>
<svg
   xmlns:dc="http://purl.org/dc/elements/1.1/"
   xmlns:cc="http://creativecommons.org/ns#"
   xmlns:rdf="http://www.w3.org/1999/02/22-rdf-syntax-ns#"
   xmlns:svg="http://www.w3.org/2000/svg"
   xmlns="http://www.w3.org/2000/svg"
   xmlns:sodipodi="http://sodipodi.sourceforge.net/DTD/sodipodi-0.dtd"
   xmlns:inkscape="http://www.inkscape.org/namespaces/inkscape"
   height="16"
   width="16"
   version="1.1"
   id="svg50"
   sodipodi:docname="basket-put.svg"
   inkscape:export-filename="./basket-put.png"
   inkscape:export-xdpi="96"
   inkscape:export-ydpi="96"
   inkscape:version="0.92.3 (2405546, 2018-03-11)">
  <metadata
     id="metadata56">
    <rdf:RDF>
      <cc:Work
         rdf:about="">
        <dc:format>image/svg+xml</dc:format>
        <dc:type
           rdf:resource="http://purl.org/dc/dcmitype/StillImage" />
      </cc:Work>
    </rdf:RDF>
  </metadata>
  <defs
     id="defs54" />
  <sodipodi:namedview
     pagecolor="#ffffff"
     bordercolor="#666666"
     borderopacity="1"
     objecttolerance="10"
     gridtolerance="10"
     guidetolerance="10"
     inkscape:pageopacity="0"
     inkscape:pageshadow="2"
     inkscape:window-width="1869"
     inkscape:window-height="1025"
     id="namedview52"
     showgrid="false"
     inkscape:zoom="14.75"
     inkscape:cx="8"
     inkscape:cy="8"
     inkscape:window-x="51"
     inkscape:window-y="27"
     inkscape:window-maximized="1"
     inkscape:current-layer="svg50" />
  <title
     id="title2">Basket Put</title>
  <desc
     id="desc4">Basket Shoping Put</desc>
  <g
     id="icon"
     transform="translate(8,8)">
    <defs
       id="defs16">
      <linearGradient
         id="backing"
         x1="0%"
         y1="0%"
         x2="100%"
         y2="100%">
        <stop
           offset="0%"
           stop-color="#d3d3d3"
           id="stop6" />
        <stop
           offset="100%"
           stop-color="#777"
           id="stop8" />
      </linearGradient>
      <linearGradient
         id="handel"
         x1="0%"
         y1="0%"
         x2="100%"
         y2="100%">
        <stop
           offset="0%"
           stop-color="#6da2ce"
           id="stop11" />
        <stop
           offset="100%"
           stop-color="#728ca6"
           id="stop13" />
      </linearGradient>
    </defs>
    <path
       fill="url(#backing)"
       opacity="0.25"
       d="M-7,0 h14 v1 h-14 m0.5,1 h13 v1 h-13 m0.5,1 h12 v1 h-12 "
       id="path18" />
    <path
       fill="url(#backing)"
       opacity="0.2"
       d="M-7,0 v3 h1 v-3 m1,0 v6 h1 v-6 m1,0 v6 h1 v-6 m1,0 v6 h1 v-6 m1,0 v6 h1 v-6 m1,0 v6 h1 v-6 m1,0 v3 h1 v-3"
       id="path20" />
    <path
       fill="url(#backing)"
       opacity="0.5"
       d="m-7,0 h1 v1 h-1 v-1 m2,0 h1 v1 h-1 v-1 m2,0 h1 v1 h-1 v-1 m2,0 h1 v1 h-1 v-1 m2,0 h1 v1 h-1 v-1 m2,0 h1 v1 h-1 v-1 m2,0 h1 v1 h-1 v-1 m-12,2 h1 v1 l-1,-1 m2,0 h1 v1 h-1 v-1 m2,0 h1 v1 h-1 v-1 m2,0 h1 v1 h-1 v-1 m2,0 h1 v1 h-1 v-1 m2,0 h1 v1 h-1 v-1 m2,0 h1 v1 h-1 v-1 m-10, 2 h1 v1 h-1 v-1 m2,0 h1 v1 h-1 v-1 m2,0 h1 v1 h-1 v-1 m2,0 h1 v1 h-1 v-1 m2,0 h1 v1 h-1 v-1 m2,0 h1 v1 h-1 v-1"
       id="path22" />
    <path
       fill="url(#backing)"
       d="M-7,0 l13.8,0 l-1.714,6 l-10.171,0 l-1.714,-6 l-1.2,-1 l2,7 a1,1 0 0,0 1,1 h10 a1,1 0 0,0 1,-1 l2,-7 h-16"
       id="path24" />
    <path
       fill="url(#handel)"
       d="M-1.5,-1 a1.5,1.5 0 0,1 3,0 h2 a3.5,3.5 0 0,0 -7,0"
       id="path26" />
    <path
       fill="#83bbd5"
       d="M-2,-1 a2,2 0 0,1 4,0 h1 a3,3 0 0,0 -6,0"
       id="path28" />
    <g
       id="down"
       transform="translate(4,-5)">
      <g
         transform="rotate(180)"
         id="g46">
        <defs
           id="defs40">
          <linearGradient
             id="arrow-backing"
             x1="100%"
             y1="100%"
             x2="0%"
             y2="0%">
            <stop
               offset="0%"
               stop-color="#72c466"
               id="stop30" />
            <stop
               offset="100%"
               stop-color="#22601e"
               id="stop32" />
          </linearGradient>
          <linearGradient
             id="arrow-center"
             x1="100%"
             y1="100%"
             x2="0%"
             y2="0%">
            <stop
               offset="0%"
               stop-color="#a7d69e"
               id="stop35" />
            <stop
               offset="100%"
               stop-color="#78bd72"
               id="stop37" />
          </linearGradient>
        </defs>
        <path
           fill="url(#arrow-backing)"
           d="M-2,-3 h-2 l4,-4 l4,4 h-2 v4 h-4 v-4 z"
           id="path42" />
        <path
           fill="url(#arrow-center)"
           d="M-1,-3.5 l-1.5,0 l2.5,-2.5 l2.5,2.5 l-1.5,0 v3.5 h-2 v-3.5 z"
           id="path44" />
      </g>
    </g>
  </g>
</svg>
