<?xml version="1.0" encoding="UTF-8" standalone="no"?>
<!-- Created with Inkscape (http://www.inkscape.org/) -->

<svg
   xmlns:dc="http://purl.org/dc/elements/1.1/"
   xmlns:cc="http://creativecommons.org/ns#"
   xmlns:rdf="http://www.w3.org/1999/02/22-rdf-syntax-ns#"
   xmlns:svg="http://www.w3.org/2000/svg"
   xmlns="http://www.w3.org/2000/svg"
   xmlns:xlink="http://www.w3.org/1999/xlink"
   xmlns:sodipodi="http://sodipodi.sourceforge.net/DTD/sodipodi-0.dtd"
   xmlns:inkscape="http://www.inkscape.org/namespaces/inkscape"
   width="16"
   height="16"
   id="svg2"
   version="1.1"
   inkscape:version="0.92.3 (2405546, 2018-03-11)"
   sodipodi:docname="phaser_project.svg"
   inkscape:export-filename="/home/arian/Documents/PhaserEditor/Public/art/icons/ui/phaser_newprj_wiz@2x.png"
   inkscape:export-xdpi="192"
   inkscape:export-ydpi="192">
  <defs
     id="defs4">
    <linearGradient
       id="linearGradient4830">
      <stop
         style="stop-color:#2e49b0;stop-opacity:1"
         offset="0"
         id="stop4832" />
      <stop
         id="stop4836"
         offset="0.5"
         style="stop-color:#565f9e;stop-opacity:1" />
      <stop
         style="stop-color:#8591c8;stop-opacity:0"
         offset="1"
         id="stop4834" />
    </linearGradient>
    <linearGradient
       inkscape:collect="always"
       id="linearGradient4762">
      <stop
         style="stop-color:#ffd175;stop-opacity:1"
         offset="0"
         id="stop4764" />
      <stop
         style="stop-color:#fff1c2;stop-opacity:1"
         offset="1"
         id="stop4766" />
    </linearGradient>
    <linearGradient
       inkscape:collect="always"
       id="linearGradient4756">
      <stop
         style="stop-color:#92b5eb;stop-opacity:1"
         offset="0"
         id="stop4758" />
      <stop
         style="stop-color:#b1e1fd;stop-opacity:1"
         offset="1"
         id="stop4760" />
    </linearGradient>
    <linearGradient
       id="linearGradient4807"
       inkscape:collect="always">
      <stop
         id="stop4809"
         offset="0"
         style="stop-color:#2846b3;stop-opacity:1" />
      <stop
         id="stop4811"
         offset="1"
         style="stop-color:#60649d;stop-opacity:1" />
    </linearGradient>
    <linearGradient
       id="linearGradient3967"
       inkscape:collect="always">
      <stop
         id="stop3969"
         offset="0"
         style="stop-color:#84909f;stop-opacity:1" />
      <stop
         id="stop3971"
         offset="1"
         style="stop-color:#757c8a;stop-opacity:1" />
    </linearGradient>
    <linearGradient
       id="linearGradient3955">
      <stop
         id="stop3957"
         offset="0"
         style="stop-color:#c38536;stop-opacity:0" />
      <stop
         style="stop-color:#f2dc91;stop-opacity:1"
         offset="0.15381166"
         id="stop3959" />
      <stop
         style="stop-color:#fbdc8b;stop-opacity:1"
         offset="0.5"
         id="stop3961" />
      <stop
         id="stop3963"
         offset="0.75"
         style="stop-color:#e6bd7a;stop-opacity:1" />
      <stop
         id="stop3965"
         offset="1"
         style="stop-color:#ba772f;stop-opacity:0" />
    </linearGradient>
    <linearGradient
       inkscape:collect="always"
       xlink:href="#linearGradient3967"
       id="linearGradient3939"
       gradientUnits="userSpaceOnUse"
       gradientTransform="matrix(0.33025864,0,0,0.33025864,-169.89085,915.67215)"
       x1="529.21912"
       y1="366.78851"
       x2="531.09253"
       y2="371.17883" />
    <linearGradient
       inkscape:collect="always"
       xlink:href="#linearGradient3955"
       id="linearGradient3945"
       gradientUnits="userSpaceOnUse"
       x1="523.00781"
       y1="373.2294"
       x2="543.91406"
       y2="373.2294"
       gradientTransform="matrix(0.33025864,0,0,0.33025864,-170.6099,916.16236)" />
    <linearGradient
       y2="385.15216"
       x2="537.90186"
       y1="397.56107"
       x1="537.94318"
       gradientTransform="matrix(0.31586198,0,0,0.44744018,889.97373,1305.7858)"
       gradientUnits="userSpaceOnUse"
       id="linearGradient4776"
       xlink:href="#linearGradient4756"
       inkscape:collect="always" />
    <linearGradient
       y2="382.12424"
       x2="546.58252"
       y1="397.26389"
       x1="546.63287"
       gradientTransform="matrix(0.31586198,0,0,0.44744018,889.97373,1305.7858)"
       gradientUnits="userSpaceOnUse"
       id="linearGradient4778"
       xlink:href="#linearGradient4807"
       inkscape:collect="always" />
    <mask
       maskUnits="userSpaceOnUse"
       id="mask4917">
      <path
         style="fill:#ffffff;fill-opacity:1;stroke:#ffffff;stroke-width:2;stroke-linecap:round;stroke-linejoin:round;stroke-miterlimit:4;stroke-opacity:1;stroke-dashoffset:0;display:inline"
         d="m 462.77563,373.22885 29.11636,0 c 1.45425,0 2.625,1.17075 2.625,2.625 l 0,18.76896 c 0,1.45425 -1.17412,2.52598 -2.625,2.625 l -29.11636,1.98708 c -1.45088,0.099 -2.625,-1.17075 -2.625,-2.625 l 0,-20.75604 c 0,-1.45425 1.17075,-2.625 2.625,-2.625 z"
         id="path4919"
         inkscape:connector-curvature="0"
         sodipodi:nodetypes="sssssssss" />
    </mask>
    <filter
       inkscape:collect="always"
       id="filter4929"
       x="-0.13757156"
       width="1.2751431"
       y="-0.37744917"
       height="1.7548983">
      <feGaussianBlur
         inkscape:collect="always"
         stdDeviation="3.5620748"
         id="feGaussianBlur4931" />
    </filter>
    <linearGradient
       inkscape:collect="always"
       xlink:href="#linearGradient4762"
       id="linearGradient4933"
       gradientUnits="userSpaceOnUse"
       gradientTransform="matrix(0.33025864,0,0,0.33025864,-170.6099,916.16236)"
       x1="538.00562"
       y1="396.2229"
       x2="538.00562"
       y2="374.21222" />
    <linearGradient
       y2="373.77069"
       x2="548.45923"
       y1="398.98798"
       x1="548.45923"
       gradientTransform="matrix(0.33025864,0,0,0.33025864,-170.6099,916.16236)"
       gradientUnits="userSpaceOnUse"
       id="linearGradient4795"
       xlink:href="#linearGradient4830"
       inkscape:collect="always" />
    <linearGradient
       inkscape:collect="always"
       id="linearGradient5068">
      <stop
         style="stop-color:#ffffff;stop-opacity:1;"
         offset="0"
         id="stop5070" />
      <stop
         style="stop-color:#ffffff;stop-opacity:0;"
         offset="1"
         id="stop5072" />
    </linearGradient>
    <linearGradient
       id="linearGradient4823">
      <stop
         id="stop4825"
         offset="0"
         style="stop-color:#fefdef;stop-opacity:1" />
      <stop
         id="stop4827"
         offset="1"
         style="stop-color:#fbdd83;stop-opacity:1" />
    </linearGradient>
    <linearGradient
       inkscape:collect="always"
       id="linearGradient4863">
      <stop
         style="stop-color:#ba9726;stop-opacity:1;"
         offset="0"
         id="stop4865" />
      <stop
         style="stop-color:#997413;stop-opacity:1"
         offset="1"
         id="stop4867" />
    </linearGradient>
    <radialGradient
       inkscape:collect="always"
       xlink:href="#linearGradient4528-9"
       id="radialGradient4534-5"
       cx="-757.20496"
       cy="-738.83777"
       fx="-757.20496"
       fy="-738.83777"
       r="3.4803574"
       gradientTransform="matrix(1.8508179,-8.813921e-6,8.4531434e-6,1.7750589,644.24981,572.63612)"
       gradientUnits="userSpaceOnUse" />
    <linearGradient
       id="linearGradient4528-9">
      <stop
         style="stop-color:#e0c576;stop-opacity:1;"
         offset="0"
         id="stop4530-0" />
      <stop
         style="stop-color:#9e7916;stop-opacity:1"
         offset="1"
         id="stop4532-7" />
    </linearGradient>
    <linearGradient
       inkscape:collect="always"
       xlink:href="#linearGradient6281-8-0-1-6"
       id="linearGradient4526-2"
       gradientUnits="userSpaceOnUse"
       gradientTransform="matrix(2.3199889,0,0,2.3199889,10.199693,1043.1852)"
       x1="0.9375"
       y1="4.8437853"
       x2="0.9375"
       y2="7.549418" />
    <linearGradient
       id="linearGradient6281-8-0-1-6">
      <stop
         id="stop6283-0-2-2-1"
         offset="0"
         style="stop-color:#f7f9fb;stop-opacity:1" />
      <stop
         id="stop6285-5-0-9-7"
         offset="1"
         style="stop-color:#ffd680;stop-opacity:1" />
    </linearGradient>
    <linearGradient
       inkscape:collect="always"
       xlink:href="#linearGradient5068"
       id="linearGradient3105"
       gradientUnits="userSpaceOnUse"
       gradientTransform="translate(13.866995,1038.8271)"
       x1="10"
       y1="5"
       x2="10.007812"
       y2="6.9843998" />
    <linearGradient
       inkscape:collect="always"
       xlink:href="#linearGradient4863"
       id="linearGradient3107"
       gradientUnits="userSpaceOnUse"
       gradientTransform="translate(13.874807,2.4492957)"
       x1="12.578125"
       y1="1037.7841"
       x2="12.578125"
       y2="1043.7627" />
    <linearGradient
       inkscape:collect="always"
       xlink:href="#linearGradient4823"
       id="linearGradient3109"
       gradientUnits="userSpaceOnUse"
       gradientTransform="matrix(1.8479968,0,0,1.8479968,24.14231,1031.8602)"
       x1="0.9375"
       y1="4.8437853"
       x2="0.9375"
       y2="7.549418" />
    <linearGradient
       inkscape:collect="always"
       xlink:href="#linearGradient5068"
       id="linearGradient3111"
       gradientUnits="userSpaceOnUse"
       gradientTransform="translate(13.866995,2.4648957)"
       x1="12"
       y1="1043.3622"
       x2="12"
       y2="1045.3466" />
    <linearGradient
       inkscape:collect="always"
       xlink:href="#linearGradient5068"
       id="linearGradient3113"
       gradientUnits="userSpaceOnUse"
       gradientTransform="translate(13.866995,2.4648957)"
       x1="13"
       y1="1043.3622"
       x2="15.007812"
       y2="1043.3466" />
    <linearGradient
       inkscape:collect="always"
       xlink:href="#linearGradient5068"
       id="linearGradient3115"
       gradientUnits="userSpaceOnUse"
       gradientTransform="matrix(1.5333047,-0.8452528,1.5333047,0.8452528,-1566.5485,172.95576)"
       x1="12"
       y1="1042.3622"
       x2="10.007812"
       y2="1042.3622" />
    <linearGradient
       inkscape:collect="always"
       xlink:href="#linearGradient5068"
       id="linearGradient3117"
       gradientUnits="userSpaceOnUse"
       gradientTransform="translate(40.491994,1.0273958)"
       x1="10"
       y1="1041.3622"
       x2="8.0078125"
       y2="1041.3466" />
    <linearGradient
       inkscape:collect="always"
       xlink:href="#linearGradient5068"
       id="linearGradient3119"
       gradientUnits="userSpaceOnUse"
       gradientTransform="translate(13.866995,2.4648957)"
       x1="10"
       y1="1040.3622"
       x2="10.007812"
       y2="1038.3466" />
    <linearGradient
       inkscape:collect="always"
       xlink:href="#linearGradient5068"
       id="linearGradient3121"
       gradientUnits="userSpaceOnUse"
       gradientTransform="translate(13.866995,2.4648957)"
       x1="12"
       y1="1038.3622"
       x2="10.007812"
       y2="1038.3466" />
    <linearGradient
       inkscape:collect="always"
       xlink:href="#linearGradient5068"
       id="linearGradient3123"
       gradientUnits="userSpaceOnUse"
       gradientTransform="translate(13.866995,2.4648957)"
       x1="14"
       y1="1041.3622"
       x2="14"
       y2="1043.3466" />
  </defs>
  <sodipodi:namedview
     id="base"
     pagecolor="#ffffff"
     bordercolor="#666666"
     borderopacity="1.0"
     inkscape:pageopacity="0.0"
     inkscape:pageshadow="2"
     inkscape:zoom="1"
     inkscape:cx="-192.62183"
     inkscape:cy="-3.0098082"
     inkscape:document-units="px"
     inkscape:current-layer="layer1"
     showgrid="false"
     inkscape:window-width="935"
     inkscape:window-height="1023"
     inkscape:window-x="496"
     inkscape:window-y="27"
     inkscape:window-maximized="0"
     inkscape:snap-global="false">
    <inkscape:grid
       type="xygrid"
       id="grid3947"
       empspacing="5"
       visible="true"
       enabled="true"
       snapvisiblegridlinesonly="true" />
  </sodipodi:namedview>
  <metadata
     id="metadata7">
    <rdf:RDF>
      <cc:Work
         rdf:about="">
        <dc:format>image/svg+xml</dc:format>
        <dc:type
           rdf:resource="http://purl.org/dc/dcmitype/StillImage" />
        <dc:title></dc:title>
      </cc:Work>
    </rdf:RDF>
  </metadata>
  <g
     inkscape:label="Layer 1"
     inkscape:groupmode="layer"
     id="layer1"
     style="display:inline"
     transform="translate(0,-1036.3622)">
    <rect
       style="display:inline;fill:#fdf7eb;fill-opacity:1;stroke:url(#linearGradient3939);stroke-width:1;stroke-linecap:round;stroke-linejoin:round;stroke-miterlimit:4;stroke-dasharray:none;stroke-dashoffset:0;stroke-opacity:1"
       id="rect13693-3"
       width="4.9538798"
       height="5.49055"
       x="3.5311844"
       y="1036.8934"
       rx="0.86692894"
       ry="0.86692894" />
    <path
       style="fill:url(#linearGradient4933);fill-opacity:1;stroke:#757c8a;stroke-width:1;stroke-linecap:round;stroke-linejoin:round;stroke-miterlimit:4;stroke-dasharray:none;stroke-dashoffset:0;stroke-opacity:1"
       d="m 2.4025277,1038.8499 h 9.2623743 c 0.480279,0 0.866929,0.3866 0.866929,0.8669 v 6.7732 c 0,0.4802 -0.387413,0.8398 -0.866929,0.8669 l -9.2623743,0.5236 c -0.4795157,0.027 -0.8669289,-0.3866 -0.8669289,-0.8669 v -7.2968 c 0,-0.4803 0.3866503,-0.8669 0.8669289,-0.8669 z"
       id="rect13693"
       inkscape:connector-curvature="0"
       sodipodi:nodetypes="sssssssss" />
    <path
       style="fill:none;stroke:url(#linearGradient3945);stroke-width:1;stroke-linecap:butt;stroke-linejoin:miter;stroke-miterlimit:4;stroke-dasharray:none;stroke-opacity:1"
       d="M 2.2327979,1038.8501 H 8.6921582"
       id="path13797"
       inkscape:connector-curvature="0"
       sodipodi:nodetypes="cc" />
    <rect
       style="display:inline;opacity:0.5;fill:#000000;fill-opacity:1;stroke:#000000;stroke-width:2.38039374;stroke-linecap:round;stroke-linejoin:round;stroke-miterlimit:4;stroke-dasharray:none;stroke-dashoffset:0;stroke-opacity:1;filter:url(#filter4929)"
       id="rect13693-2-2"
       width="30.899641"
       height="22.649353"
       x="860.68469"
       y="542.8974"
       rx="2.625"
       ry="3.7184925"
       transform="matrix(0.33025864,0,-0.23391573,0.23313987,-150.6099,916.16236)" />
    <path
       style="display:inline;fill:none;stroke:url(#linearGradient4795);stroke-width:1;stroke-linecap:round;stroke-linejoin:round;stroke-miterlimit:4;stroke-dasharray:none;stroke-dashoffset:0;stroke-opacity:1"
       d="m 2.4025277,1038.8499 h 9.2623743 c 0.480282,0 0.866929,0.3866 0.866929,0.8669 v 6.6406 c 0,0.4802 -0.387846,0.833 -0.866929,0.8669 l -9.2623743,0.6562 c -0.4790798,0.034 -0.8669289,-0.3866 -0.8669289,-0.8669 v -7.2968 c 0,-0.4803 0.3866503,-0.8669 0.8669289,-0.8669 z"
       id="rect13693-8"
       inkscape:connector-curvature="0"
       sodipodi:nodetypes="sssssssss" />
    <g
       id="g4811"
       transform="translate(0,18)">
      <path
         style="fill:none;stroke:#000000;stroke-width:0.16754857;stroke-linecap:round;stroke-linejoin:round;stroke-miterlimit:10"
         inkscape:connector-curvature="0"
         id="path7813"
         d="m 2.0951262,1021.8143 c 0.8380302,0.5326 1.5286885,1.1871 2.064124,1.9596 m 1.4087445,-2.5594 0.6745363,1.7246"
         stroke-miterlimit="10" />
      <path
         style="fill:#7cc576;stroke-width:0.08904099"
         inkscape:connector-curvature="0"
         id="path7815"
         d="m 7.4132394,1023.1829 c 0.5489504,0.2996 1.0734799,0.7535 1.5762129,1.347 0.2180104,0.2549 0.4251217,0.531 0.6174093,0.8264 0.2698884,-0.3704 0.5323694,-0.6098 0.7774104,-0.7182 0.226728,-0.1018 0.402006,-0.074 0.519734,0.085 0.121647,0.1611 0.152615,0.4309 0.09506,0.8051 -0.06714,0.4123 -0.235441,0.8954 -0.512742,1.4452 0.340973,0.7726 0.62047,1.6262 0.840666,2.5564 -2.3819488,1.0767 -5.2330629,0.9897 -8.5533435,-0.2608 0.042296,-0.4901 0.097215,-0.9951 0.1665477,-1.5088 -0.4255545,-0.1807 -0.751263,-0.4006 -0.9714529,-0.6513 -0.1970812,-0.2277 -0.2786187,-0.4378 -0.2424313,-0.6345 0.037934,-0.1903 0.1813799,-0.3144 0.4277287,-0.3574 0.2746908,-0.05 0.619144,0.01 1.0372875,0.1735 0.1578228,-0.7151 0.3470551,-1.3167 0.5698538,-1.8089 0.4961756,-1.0926 1.1632768,-1.6639 2.015253,-1.7118 0.5406601,-0.034 1.0821944,0.1056 1.6368125,0.4134 z" />
      <path
         style="fill:none;stroke:#000000;stroke-width:0.16754857;stroke-linecap:round;stroke-miterlimit:10"
         inkscape:connector-curvature="0"
         id="path7819"
         d="m 2.7753887,1029.2749 c 0.042296,-0.4901 0.097215,-0.9951 0.1665477,-1.5088 -0.4255544,-0.1807 -0.751263,-0.4006 -0.9714529,-0.6512 -0.1970829,-0.2277 -0.2786186,-0.4378 -0.2424313,-0.6345 0.037934,-0.1904 0.1813799,-0.3145 0.4277288,-0.3575 0.274689,-0.05 0.6191439,0.01 1.0372857,0.1735 0.1578401,-0.7151 0.3470568,-1.3167 0.5698555,-1.8088 0.4961756,-1.0927 1.1632768,-1.664 2.015253,-1.7119 0.5284523,-0.029 1.0760888,0.1077 1.6307069,0.4156 0.5489453,0.2996 1.0734817,0.7535 1.5762147,1.347 0.2180104,0.2549 0.4251217,0.5311 0.6174076,0.8264 0.2698906,-0.3704 0.5323696,-0.6098 0.7774096,-0.7182 0.226729,-0.1018 0.402008,-0.074 0.519735,0.085 0.121647,0.1611 0.152615,0.4309 0.09506,0.8051 -0.06714,0.4123 -0.235439,0.8954 -0.512742,1.4452 0.340973,0.7727 0.620469,1.6262 0.840668,2.5564"
         stroke-miterlimit="10" />
      <path
         style="fill:#f26d7d;stroke-width:0.08904099"
         inkscape:connector-curvature="0"
         id="path7829"
         d="m 5.6791604,1019.4932 c 0.2280423,0.1091 0.3972143,0.2845 0.4948859,0.5408 0.098111,0.2458 0.1015942,0.5011 0.00914,0.7491 -0.092438,0.248 -0.2541926,0.4271 -0.4848436,0.5269 -0.232834,0.104 -0.46523,0.1004 -0.699371,-0.01 -0.2302183,-0.1049 -0.397216,-0.2844 -0.4931409,-0.5344 -0.099853,-0.2521 -0.1055256,-0.5032 -0.010863,-0.7554 0.092438,-0.248 0.2541943,-0.4272 0.4848471,-0.527 0.230651,-0.1 0.4652283,-0.1003 0.6993693,0.01 z" />
      <path
         style="fill:#c25e69;stroke-width:0.08904099"
         inkscape:connector-curvature="0"
         id="path7831"
         d="m 4.8707894,1019.8446 c 0.1652545,-0.069 0.3357336,-0.072 0.5009846,0.01 0.1652545,0.076 0.2842846,0.2035 0.3549213,0.3863 0.072816,0.1785 0.075437,0.3578 0.00793,0.538 -0.067574,0.1802 -0.1831249,0.3082 -0.3505554,0.3819 -0.1674271,0.074 -0.3357301,0.071 -0.5009828,-0.01 -0.1652545,-0.076 -0.2842846,-0.2035 -0.3571008,-0.382 -0.070643,-0.1828 -0.073247,-0.3621 -0.00569,-0.5423 0.067574,-0.1802 0.1831249,-0.3081 0.3505537,-0.3818 z" />
      <path
         style="fill:none;stroke:#000000;stroke-width:0.16754857;stroke-linecap:round;stroke-linejoin:round;stroke-miterlimit:10"
         inkscape:connector-curvature="0"
         id="path7833"
         d="m 6.1740463,1020.034 c 0.098111,0.2458 0.1015942,0.5011 0.00914,0.7491 -0.092438,0.248 -0.2541926,0.4271 -0.4848436,0.5269 -0.232834,0.104 -0.46523,0.1004 -0.699371,-0.01 -0.2302183,-0.1049 -0.397216,-0.2844 -0.4931409,-0.5344 -0.099853,-0.2521 -0.1055256,-0.5032 -0.010863,-0.7554 0.094611,-0.2523 0.2541943,-0.4272 0.4848471,-0.527 0.230651,-0.1 0.4652283,-0.1003 0.6993693,0.01 0.2341427,0.107 0.3972142,0.2845 0.4948858,0.5408 z"
         stroke-miterlimit="10" />
      <path
         style="fill:#f26d7d;stroke-width:0.08904099"
         inkscape:connector-curvature="0"
         id="path7835"
         d="m 2.1134259,1020.5458 c 0.2232436,0.1768 0.3601544,0.4052 0.4111705,0.6747 0.04709,0.2675 -0.0069,0.5087 -0.1578228,0.7152 -0.1508568,0.2064 -0.3618908,0.3165 -0.6252445,0.3344 -0.2633536,0.018 -0.5066522,-0.062 -0.731639,-0.2447 -0.2232419,-0.1768 -0.36233393,-0.401 -0.41117056,-0.6747 -0.0510213,-0.2696 0.003104,-0.5108 0.15782286,-0.7152 0.1508568,-0.2065 0.3618908,-0.3166 0.6291689,-0.3323 0.2572497,-0.016 0.5005483,0.064 0.7277146,0.2426 z" />
      <path
         style="fill:#c25e69;stroke-width:0.08904099"
         inkscape:connector-curvature="0"
         id="path7837"
         d="m 1.6473286,1020.8615 c 0.1748414,0.087 0.3078296,0.2158 0.396778,0.3921 0.085024,0.1742 0.099853,0.3491 0.038813,0.5165 -0.058867,0.1632 -0.170048,0.2827 -0.338782,0.3396 -0.1687375,0.057 -0.3427082,0.046 -0.5236571,-0.038 -0.1770261,-0.082 -0.3100091,-0.2116 -0.3950348,-0.3858 -0.086766,-0.1804 -0.09768,-0.3534 -0.042728,-0.5186 0.054935,-0.1653 0.1739673,-0.2806 0.3387803,-0.3395 0.1648062,-0.059 0.34271,-0.046 0.5258383,0.034 z" />
      <path
         style="fill:none;stroke:#000000;stroke-width:0.16754857;stroke-linecap:round;stroke-linejoin:round;stroke-miterlimit:10"
         inkscape:connector-curvature="0"
         id="path7839"
         d="m 2.5184925,1021.2227 c 0.04709,0.2674 -0.0069,0.5087 -0.1578229,0.7151 -0.1508568,0.2065 -0.3618907,0.3166 -0.6252444,0.3345 -0.2633554,0.018 -0.5066522,-0.062 -0.7316391,-0.2447 -0.2249868,-0.1831 -0.36233386,-0.401 -0.41117222,-0.6747 -0.0510213,-0.2696 0.003104,-0.5108 0.15782282,-0.7152 0.1508568,-0.2065 0.3618908,-0.3166 0.6291689,-0.3323 0.2633537,-0.018 0.5066523,0.062 0.7338186,0.2404 0.2210623,0.181 0.3562299,0.4031 0.4050683,0.6769 z"
         stroke-miterlimit="10" />
    </g>
    <rect
       style="display:inline;fill:url(#linearGradient4776);fill-opacity:1;stroke:url(#linearGradient4778);stroke-width:1.19019687;stroke-linecap:round;stroke-linejoin:round;stroke-miterlimit:4;stroke-dasharray:none;stroke-dashoffset:0;stroke-opacity:1"
       id="rect13693-2"
       width="9.7600222"
       height="7.1540699"
       x="1053.0723"
       y="1477.2665"
       rx="0.82913768"
       ry="1.1745304"
       transform="matrix(1,0,-0.70828043,0.70593118,0,0)" />
    <g
       id="g5996"
       transform="translate(-40.665532,-3.4250483)">
      <path
         sodipodi:nodetypes="ccccc"
         id="path5581-1-1-6"
         d="m 48.564719,1046.3883 3.066609,1.6905 0.01192,-2.516 -3.066608,-1.6905 z"
         style="fill:url(#linearGradient3115);fill-opacity:1;stroke:none;display:inline"
         inkscape:connector-curvature="0" />
      <path
         sodipodi:nodetypes="ccccc"
         id="path5581-1-1-1"
         d="m 48.499806,1039.374 0,5 1.460938,-1.4844 0,-2 z"
         style="fill:url(#linearGradient3117);fill-opacity:1;stroke:none;display:inline"
         inkscape:connector-curvature="0" />
    </g>
    <g
       style="display:inline"
       id="g4514"
       transform="translate(8.4499345,-16.874713)">
      <g
         id="g4522"
         transform="translate(-9.9375,0)">
        <rect
           style="fill:url(#radialGradient4534-5);fill-opacity:1;stroke:#a27d18;stroke-width:1.03243756;stroke-miterlimit:4;stroke-opacity:1;stroke-dasharray:none;display:inline"
           id="rect3910"
           width="4.5825453"
           height="4.454073"
           x="-758.82336"
           y="-740.41083"
           transform="matrix(-0.70710678,-0.70710678,0.70710678,-0.70710678,0,0)" />
        <path
           sodipodi:nodetypes="ccccccccccccc"
           inkscape:connector-curvature="0"
           id="path5581-5-5"
           d="m 12.471186,1054.309 1.001133,0 0,1.946 1.986639,0 0,1.0167 -1.986639,0 0,2.043 -1.001133,0 0,-2.043 -1.98664,0 0,-1.0167 1.98664,0 z"
           style="fill:url(#linearGradient4526-2);fill-opacity:1;stroke:none;display:inline" />
      </g>
    </g>
  </g>
</svg>
