<?xml version="1.0" encoding="UTF-8" standalone="no"?>
<!-- Generator: Adobe Illustrator 18.0.0, SVG Export Plug-In . SVG Version: 6.00 Build 0)  -->

<svg
   xmlns:dc="http://purl.org/dc/elements/1.1/"
   xmlns:cc="http://creativecommons.org/ns#"
   xmlns:rdf="http://www.w3.org/1999/02/22-rdf-syntax-ns#"
   xmlns:svg="http://www.w3.org/2000/svg"
   xmlns="http://www.w3.org/2000/svg"
   xmlns:sodipodi="http://sodipodi.sourceforge.net/DTD/sodipodi-0.dtd"
   xmlns:inkscape="http://www.inkscape.org/namespaces/inkscape"
   version="1.1"
   id="Layer_1"
   x="0px"
   y="0px"
   viewBox="0 0 32 32"
   enable-background="new 0 0 612 792"
   xml:space="preserve"
   sodipodi:docname="Phaser Logo.svg"
   inkscape:version="0.92.3 (2405546, 2018-03-11)"
   width="32"
   height="32"><metadata
   id="metadata397"><rdf:RDF><cc:Work
       rdf:about=""><dc:format>image/svg+xml</dc:format><dc:type
         rdf:resource="http://purl.org/dc/dcmitype/StillImage" /><dc:title></dc:title></cc:Work></rdf:RDF></metadata><defs
   id="defs395">
	
	
	
	
	
	
	
	
		
	
	
	
		
	
	
	
		
	
	
		
	
	
		
	
		
	
	
	
	
		
	
	
	
		
	
	
	
		
	
	
	
		
	
	
	
		
	
	
	
	
		
	
	
	
		
	
	
	
	
	
	
	
	
	
	
		
	
	
	
	
	
		
	
		
	
		
	
	
		
	
	
	
		
	
	
		
	
	
	
	
	
	
	
	
	
	
	
	
	
	
	
	
		
	
	
	
	
	
	
	
	
	
	
	
	
	
		
	
	
	
	
	
	
	
	
	
	
	
	
	
	
	
	
	
	
	
	
	
	
	
	
	
	
	
	
	
	
	
	
	
	
	
	
	
	
	
	
	
	
	
	
	
	
	
	
	
	
	
	
	
		
	
	
	
	
	
	
	
	
	
	
	
	
	
	
	
	
	
	
	
	
	
		
	
	
	
	
	
	
	
	
	
	
	
	
	
	
	
	
	
	
	
	
	
	
	
	
	
</defs><sodipodi:namedview
   pagecolor="#ffffff"
   bordercolor="#666666"
   borderopacity="1"
   objecttolerance="10"
   gridtolerance="10"
   guidetolerance="10"
   inkscape:pageopacity="0"
   inkscape:pageshadow="2"
   inkscape:window-width="1869"
   inkscape:window-height="1025"
   id="namedview393"
   showgrid="false"
   inkscape:zoom="0.5959596"
   inkscape:cx="305.71718"
   inkscape:cy="81.845215"
   inkscape:window-x="51"
   inkscape:window-y="27"
   inkscape:window-maximized="1"
   inkscape:current-layer="Layer_1" />
<g
   id="g5443"
   inkscape:export-filename="./phaser-logo@2x.png"
   inkscape:export-xdpi="10.24"
   inkscape:export-ydpi="10.24"><rect
     y="-314.56943"
     x="-71.54937"
     height="299"
     width="298.99997"
     id="rect5395"
     style="opacity:1;fill:none;fill-opacity:1;fill-rule:nonzero;stroke:#729fcf;stroke-width:0.99999988;stroke-miterlimit:4;stroke-dasharray:none;stroke-dashoffset:0;stroke-opacity:1" /><g
     style="stroke-width:1.02012813"
     transform="matrix(0.91081476,0.36241378,-0.36241378,0.91081476,55.877032,-392.87022)"
     id="g5374"><path
       style="fill:#ffffff;stroke-width:1.02012813"
       inkscape:connector-curvature="0"
       id="path6"
       d="m 247.6,150.4 c 0,-4 -1.4,-7.5 -4.3,-10.3 -2.8,-2.8 -6.3,-4.3 -10.3,-4.3 -4,0 -7.5,1.4 -10.3,4.2 v 0 0 c -2.8,2.8 -4.2,6.3 -4.2,10.3 0,0.3 0,0.7 0,1 -1.3,0.9 -2.5,1.7 -3.8,2.6 -2.4,-2.1 -5,-3.8 -7.8,-5.1 -1.4,-0.6 -3.3,-1.3 -5.8,-2 -7.2,-1.7 -13.7,-0.6 -19.3,3.3 v 0 c -5.8,3.9 -9.2,9.6 -10.2,17.2 -0.6,0.2 -1.3,0.4 -2,0.7 l -1.5,0.6 c -0.6,0.2 -1.5,0.6 -2.6,1.3 h -0.1 c -6.1,3.2 -11.5,6.7 -16.1,10.5 l -0.5,0.4 c -5.5,4.5 -10,9.5 -13.4,14.9 -1.8,2.9 -3.3,5.7 -4.3,8.4 0.2,-6.1 -0.3,-12.1 -1.6,-17.9 -2.8,-12.6 -10.4,-22.5 -22.7,-29.7 -8.1,-4.8 -20.9,-9.3 -38.3,-13.5 v 0 c -9.4,-2.1 -16.5,-3.8 -21.3,-5 -8.3,-2 -15.4,-4 -21.3,-5.9 -15.4,-5 -27.7,-11.6 -36.8,-19.6 l -11.6,-9.9 3.4,14.8 c 2.7,11.4 2.8,24.1 0.4,38.2 v 0 c -1.4,8.1 -4.6,20.6 -9.8,37.4 -4.8,15.9 -7.7,27.7 -8.5,35.4 v 0 c -0.8,7.7 -0.4,14.7 1.1,21 h 152.1 c 2,-3.4 3.9,-6.9 5.7,-10.6 3.6,-7.6 6.2,-15 7.7,-22.2 0.4,2.6 1.3,5 2.9,7.4 l 0.2,0.4 0.3,0.3 c 3.5,4.2 8.3,6.6 14.3,7 -0.9,2.9 -1.1,5.7 -0.5,8.4 -2.6,3.5 -5.4,6.6 -8.4,9.2 H 174 c 2.8,-2.1 4.9,-4.9 6.3,-8.2 v 0 -0.1 c 0.1,-0.2 0.2,-0.5 0.3,-0.8 1.8,-4.8 1.6,-9.4 -0.4,-13.8 -0.2,-0.7 -0.8,-1.6 -1.7,-2.9 l -0.3,-0.3 c -0.2,-0.2 -0.4,-0.4 -0.5,-0.6 0,0 0,0 0,-0.1 5.5,-3.5 11,-7.9 16.4,-13.3 v 0 c 1.5,-1.5 2.9,-3.1 4.2,-4.8 6.7,1.3 12.7,0.1 18,-3.5 6.1,-4.1 9.5,-10.3 10.2,-18.5 0.1,-1.7 0.1,-3.5 0,-5.2 -0.1,-2.1 -0.5,-4.2 -1.1,-6.3 v 0 c -0.3,-1.3 -0.8,-2.5 -1.3,-3.8 1.2,-1 2.5,-2 3.9,-3.1 1.5,0.5 3.1,0.8 4.9,0.8 4,0 7.4,-1.4 10.3,-4.2 0,0 0,0 0.1,-0.1 2.9,-2.6 4.3,-6 4.3,-10.1 z m -58.1,14.9 c 0.4,-0.6 1,-1.2 1.7,-1.6 2.1,-1.4 4.6,-1.7 7.4,-0.8 -3.3,1.2 -6.4,2 -9.1,2.4 z m 17.5,21.4 c -0.2,0.1 -0.4,0.2 -0.5,0.3 0.4,-0.7 0.8,-1.5 1.3,-2.3 v -0.1 l 0.1,-0.1 c 0.1,-0.1 0.2,-0.3 0.3,-0.5 0,0 0,0 0,0 0.6,-0.8 1.2,-1.7 1.9,-2.5 -0.3,2.1 -1.4,3.9 -3.1,5.2 z m -0.5,-0.7 v -0.2 c 0,0.1 0,0.2 0,0.2 0,0 0,0 0,0 z" /><path
       style="fill:none;stroke:#ffffff;stroke-width:0.05098601;stroke-miterlimit:10"
       inkscape:connector-curvature="0"
       id="path14"
       d="m 132.9,289.5 -0.7,-0.9 m 2.5,3.3 -0.8,-1"
       stroke-miterlimit="10" /><path
       style="fill:#9ddff9;stroke-width:1.02012813"
       inkscape:connector-curvature="0"
       id="path80"
       d="m 216.4,163.8 c -4,-5.9 -9.2,-9.8 -15.4,-11.6 -6.2,-1.8 -11.7,-1.1 -16.6,2.2 -4.8,3.3 -7.5,8.2 -8.1,14.6 -0.5,6.5 1.1,12.7 5.2,18.6 4,5.9 9.1,9.7 15.4,11.5 6.3,1.8 11.8,1.1 16.7,-2.1 4.8,-3.3 7.5,-8.2 8,-14.7 0.5,-6.4 -1.2,-12.6 -5.2,-18.5 z m -33.7,6.2 c 0.3,-4.7 2.2,-8.2 5.7,-10.5 3.4,-2.3 7.4,-2.8 11.8,-1.4 4.5,1.4 8.3,4.2 11.2,8.6 2.9,4.4 4.2,8.8 3.9,13.6 -0.3,4.7 -2.1,8.2 -5.6,10.6 -3.4,2.3 -7.4,2.8 -11.9,1.4 -4.5,-1.4 -8.2,-4.2 -11.2,-8.6 -3,-4.4 -4.3,-8.9 -3.9,-13.7 z" /><polygon
       style="fill:#86adc0;stroke-width:1.02012813"
       id="polygon82"
       points="214.8,177.8 221.1,172.1 218,165.6 213.4,170 " /><path
       style="fill:none;stroke:#000000;stroke-width:3.05916047;stroke-linecap:round;stroke-linejoin:round;stroke-miterlimit:10"
       inkscape:connector-curvature="0"
       id="path84"
       d="m 200.9,152.2 c -6.2,-1.8 -11.7,-1.1 -16.6,2.2 -4.8,3.3 -7.5,8.2 -8.1,14.6 -0.5,6.5 1.1,12.7 5.2,18.6 4,5.9 9.1,9.7 15.4,11.5 6.3,1.8 11.8,1.1 16.7,-2.1 4.8,-3.3 7.5,-8.2 8,-14.7 0.6,-6.5 -1.1,-12.7 -5.1,-18.6 -4.1,-5.9 -9.2,-9.7 -15.5,-11.5 z M 182.7,170 c -0.3,4.7 1,9.2 3.9,13.6 2.9,4.4 6.6,7.2 11.2,8.6 4.6,1.4 8.5,0.9 11.9,-1.4 3.4,-2.3 5.3,-5.8 5.6,-10.6 0.3,-4.7 -0.9,-9.2 -3.9,-13.6 -3,-4.4 -6.7,-7.2 -11.2,-8.6 -4.4,-1.3 -8.4,-0.9 -11.8,1.4 -3.5,2.4 -5.4,5.9 -5.7,10.6 z"
       stroke-miterlimit="10" /><path
       style="fill:#543e3c;stroke-width:1.02012813"
       inkscape:connector-curvature="0"
       id="path86"
       d="m 168.6,223.1 c -3.3,-0.8 -6.6,-0.3 -9.8,1.5 -3.2,1.8 -5.5,4.5 -6.8,8 -1.1,3.1 -1.2,6.1 -0.2,8.9 -4.9,7 -10.5,12.6 -16.8,16.7 3.4,5.8 7.2,10.7 11.3,14.6 3.2,3 6.6,5.5 10.3,7.3 -2.1,-11.2 -1.1,-21.7 3.2,-31.7 3.2,0.7 6.3,0.2 9.5,-1.6 3.2,-1.8 5.5,-4.5 6.7,-8.1 1.3,-3.5 1.2,-6.8 -0.2,-9.9 -1.5,-2.9 -3.9,-4.9 -7.2,-5.7 z" /><path
       style="fill:#ffd064;stroke-width:1.02012813"
       inkscape:connector-curvature="0"
       id="path88"
       d="m 54.9,285 c -15.5,6.1 -28.1,13.9 -37.8,23.5 -9.2,9 -12.9,17.7 -11.2,25.8 5.8,-1.9 11.9,-2.6 18.1,-2.1 2,-9.2 14.7,-16.4 38.1,-21.5 8.1,20.5 18.5,39.4 31.2,56.5 l 75,-31 c -17,-15.3 -31.3,-31.5 -43,-48.5 8.5,-3.6 15.5,-8.5 20.9,-14.6 -4.1,-3.9 -7.9,-8.8 -11.3,-14.6 -8.9,5.7 -19.3,8.5 -31,8.3 -0.5,25.2 5.1,53.1 16.9,83.5 C 105.7,340.2 92.9,329.9 82.4,319.5 71.9,308.8 62.7,297.4 54.9,285 Z" /><path
       style="fill:#543e3c;stroke-width:1.02012813"
       inkscape:connector-curvature="0"
       id="path90"
       d="m 23.2,351.4 c -0.5,1.5 -0.4,3.1 0.3,4.7 0.8,2 2.3,3.6 4.4,4.7 2.1,1 4.2,1.3 6.4,0.8 2.1,-0.5 3.6,-1.7 4.5,-3.5 0.9,-1.8 1,-3.7 0.1,-5.8 -0.8,-2.1 -2.3,-3.7 -4.4,-4.7 -2.1,-1 -4.2,-1.3 -6.3,-0.8 -3.9,-5.3 -5.3,-10.2 -4.3,-14.6 -6.2,-0.5 -12.2,0.2 -18.1,2.1 -2.1,0.6 -4.2,1.5 -6.3,2.5 9,3.6 16.9,8.5 23.7,14.6 z" /><path
       style="fill:#543e3c;stroke-width:1.02012813"
       inkscape:connector-curvature="0"
       id="path92"
       d="M 84.5,263.8 59,275.3 c -0.9,2.8 -2.3,6.1 -4.2,9.7 7.9,12.4 17.1,23.8 27.5,34.3 10.4,10.4 23.2,20.7 38.4,30.8 -11.8,-30.4 -17.4,-58.2 -16.9,-83.5 -6,-0.1 -12.5,-1 -19.3,-2.8 z" /><path
       style="fill:#3a2b29;stroke-width:1.02012813"
       inkscape:connector-curvature="0"
       id="path94"
       d="m 25.6,351.4 c -1.7,3.4 -1.1,6.1 1.9,8.2 3,2 6.7,2 10.8,-0.2 2.7,-8.1 -0.4,-12.2 -9.5,-12.5 -4.1,-5.4 -5.9,-10.3 -5.5,-14.7 h -8.8 c 0.7,6.5 4.4,12.9 11.1,19.2 z" /><path
       style="fill:#3a2b29;stroke-width:1.02012813"
       inkscape:connector-curvature="0"
       id="path96"
       d="m 173.6,225.2 -4.5,-3.2 -14.5,6.2 5.7,2.5 c -3.2,2.8 -4.4,6.9 -3.7,12.2 -3,5.1 -5.7,9.3 -8.3,12.4 -3.1,3.8 -6.3,6.8 -9.7,9 l 8.1,9.9 c 1.8,-0.6 2.9,-0.5 3.2,0.1 0.4,-9.5 3.2,-18.8 8.2,-27.7 16.1,3.3 21.3,-3.9 15.5,-21.4 z" /><path
       style="fill:#cba357;stroke-width:1.02012813"
       inkscape:connector-curvature="0"
       id="path98"
       d="m 14.5,332.2 h 8.8 c 0.9,-10 13.6,-17.4 38,-22.3 l 19.6,39 6.2,-3.6 48.6,-25.4 c -8.1,-13.5 -13,-24.5 -14.5,-33.1 15.2,-3.5 23.6,-7.6 25.3,-12.3 l -8.1,-9.9 c -6.3,4.7 -13.1,7.4 -20.3,8.1 -7,0.6 -14.1,-0.6 -21.4,-3.8 l -40.2,18.2 c -13,7.2 -23.5,14.9 -31.2,23.2 -7.9,8.3 -11.5,15.6 -10.8,21.9 z" /><path
       style="stroke-width:1.02012813"
       inkscape:connector-curvature="0"
       id="path100"
       d="m 169.2,220.7 v 0 c -4,-1 -7.9,-0.4 -11.7,1.8 -3.8,2.1 -6.4,5.3 -7.9,9.3 -1.2,3.2 -1.4,6.4 -0.6,9.4 -4.5,6.3 -9.7,11.3 -15.4,15 -8.5,5.4 -18.4,8.1 -29.6,7.9 -5.9,-0.1 -12.1,-1 -18.7,-2.7 l -0.8,-0.2 -27.5,12.3 -0.3,1 c -0.8,2.5 -2,5.3 -3.6,8.5 -15.4,6.2 -28,14.1 -37.7,23.7 -9.1,9 -13.2,17.6 -12.2,25.9 -1.5,0.5 -3.1,1.2 -4.6,1.9 l -5,2.4 5.2,2.1 c 8.1,3.2 15.4,7.5 21.8,13.1 -0.2,1.5 0,3.1 0.7,4.8 0,0 0,0 0,0 1,2.6 2.9,4.6 5.5,6 v 0 c 2.6,1.3 5.3,1.6 8.1,1 2.9,-0.7 4.9,-2.3 6.2,-4.9 v 0 c 1.2,-2.5 1.3,-5.1 0.2,-7.9 v 0 c -1.1,-2.6 -2.9,-4.6 -5.5,-6 -2.1,-1 -4.2,-1.5 -6.3,-1.3 -2.7,-4.1 -3.7,-7.9 -3,-11.4 2,-7.9 13.4,-14.3 34.1,-19.1 8,19.9 18.3,38.3 30.7,55 l 1.1,1.5 80.4,-33.2 -2.9,-2.6 c -16,-14.5 -29.7,-29.7 -40.9,-45.6 6.7,-3.2 12.5,-7.3 17.3,-12.1 2.8,2.4 5.9,4.5 9,6.1 l 4.4,2.3 -0.9,-5 c -1.9,-10 -1.1,-19.5 2.3,-28.4 3,0.2 6.1,-0.4 9.1,-2.2 3.7,-2.2 6.4,-5.3 7.8,-9.4 v 0 c 1.5,-4.2 1.4,-8.1 -0.3,-11.8 v 0 c -1.5,-3.7 -4.4,-6.2 -8.5,-7.2 z M 18.8,310.3 c 9.5,-9.3 21.8,-17 37,-22.9 l 0.4,-0.2 0.4,-0.1 0.4,-0.8 c 1.7,-3.3 3,-6.3 4,-9 l 23.7,-10.6 c 6.6,1.6 13,2.5 19,2.6 v 0 c 11.7,0.2 22,-2.4 31.1,-7.8 2.6,4.2 5.5,7.9 8.5,11 -5.1,5.3 -11.5,9.6 -19.2,12.9 l -2.7,1.2 1.7,2.4 c 11,16.2 24.5,31.6 40.5,46.3 L 94.1,364 c -12,-16.5 -22,-34.6 -29.7,-54.3 l -0.8,-2 -2.1,0.4 c -23.8,5.2 -37.1,12.7 -39.7,22.4 -4.6,-0.1 -9.2,0.3 -13.7,1.5 -0.6,-6.8 3,-14.1 10.7,-21.7 z m 7.5,38 0.9,1.3 1.7,-0.3 c 1.5,-0.4 3,-0.2 4.5,0.6 v 0 c 1.5,0.7 2.6,1.9 3.2,3.4 0.5,1.3 0.5,2.5 0,3.7 v 0 c -0.5,1.1 -1.5,1.9 -2.9,2.2 -1.5,0.3 -3.1,0.1 -4.6,-0.6 -1.5,-0.8 -2.6,-1.9 -3.2,-3.4 v 0 0 c -0.4,-1 -0.5,-2 -0.2,-3 l 0.4,-1.6 -1.1,-1 c -5.6,-5 -12.2,-9.4 -19.8,-13 l 3.4,-1.4 c 4.1,-1.1 8.3,-1.7 12.7,-1.6 -0.6,4.5 1.1,9.4 5,14.7 z M 160,226.8 c 2.6,-1.5 5.3,-1.9 8,-1.3 2.5,0.6 4.3,2.2 5.5,4.6 v 0 c 1.1,2.4 1.2,5.1 0.1,7.9 -1,2.9 -2.9,5.2 -5.6,6.8 -2.5,1.4 -5.1,1.9 -7.7,1.3 l -2,-0.4 -0.8,1.8 c -3.8,8.8 -5.2,18.1 -4.1,27.9 -2.2,-1.1 -4.8,-2.9 -7.8,-5.4 -2.8,-3 -5.5,-6.5 -8,-10.5 6.1,-4.1 11.5,-9.7 16.3,-16.6 l 0.7,-1 -0.4,-1.3 c -0.8,-2.3 -0.7,-4.7 0.2,-7.2 v 0 c 0.9,-2.9 2.8,-5.1 5.6,-6.6 z" /><path
       style="fill:#543e3c;stroke-width:1.02012813"
       inkscape:connector-curvature="0"
       id="path102"
       d="m 103.8,269.1 v 0 c -6,-0.1 -12.4,-1 -19,-2.6 l -23.7,10.6 c -0.9,2.7 -2.3,5.7 -4,9 l -0.4,0.8 -0.4,0.1 c 7.5,11.6 16.3,22.3 26.1,32.1 10.4,10.4 23.2,20.7 38.4,30.8 -11.4,-29.2 -17.1,-56.2 -17,-80.8 z" /><path
       style="fill:none;stroke:#000000;stroke-width:1.01972008;stroke-linecap:round;stroke-linejoin:round;stroke-miterlimit:10"
       inkscape:connector-curvature="0"
       id="path104"
       d="m 103.8,269.1 c -0.1,24.6 5.5,51.6 16.9,81 C 105.6,340 92.8,329.7 82.3,319.3 72.5,309.5 63.7,298.8 56.2,287.2"
       stroke-miterlimit="10" /><path
       style="fill:#94625e;stroke-width:1.02012813"
       inkscape:connector-curvature="0"
       id="path106"
       d="m 229.4,153.7 -2.6,-2.2 c -14.9,11.4 -27.2,17.7 -36.8,18.8 0,7.7 3.9,12.9 11.5,15.6 3.9,-8.8 13.5,-18.7 28.9,-29.6 z" /><path
       style="fill:#f26d7d;stroke-width:1.02012813"
       inkscape:connector-curvature="0"
       id="path108"
       d="m 189.9,170.3 c -4.7,0.1 -8.2,0.3 -10.5,0.6 -4,0.4 -8,1.7 -11.9,3.7 -12.8,6.8 -22.3,14.8 -28.2,24.1 -5.8,9 -6.8,16.7 -3,23 4.8,5.5 12.5,6.8 22.9,4 10.7,-2.9 21.2,-9.5 31.4,-19.7 3.1,-3.1 5.5,-6.5 7.2,-10.2 0.8,-2.1 2.1,-5.4 3.7,-9.9 -7.7,-2.7 -11.6,-7.9 -11.6,-15.6 z" /><path
       style="fill:#74504d;stroke-width:1.02012813"
       inkscape:connector-curvature="0"
       id="path110"
       d="m 224,159 v -3.6 c -13.7,12.4 -24.2,20.2 -31.7,23.4 l 8.2,7.7 c 4.2,-7.2 12,-16.4 23.5,-27.5 z" /><path
       style="fill:#a3555c;stroke-width:1.02012813"
       inkscape:connector-curvature="0"
       id="path112"
       d="m 146.4,219.3 c 3.6,4.1 9.4,5.2 17.3,3 8.1,-2.2 14.8,-5.7 20,-10.5 5.2,-4.8 8.4,-8.2 9.5,-10.3 1,-2 2.3,-4.5 3.9,-7.5 0.5,-2.2 1.7,-4.7 3.3,-7.5 l -8.2,-7.7 c -2,0.8 -3.7,1.3 -5.3,1.5 -3.6,0.1 -6.5,0.6 -8.6,1.5 -2.1,0.9 -6.2,3.6 -12.1,8.1 -5.9,4.4 -11.5,9.3 -16.5,14.4 -5.1,5.3 -6.2,10.3 -3.3,15 z" /><path
       style="fill:none;stroke:#000000;stroke-width:3.05916047;stroke-linecap:round;stroke-linejoin:round;stroke-miterlimit:10"
       inkscape:connector-curvature="0"
       id="path114"
       d="m 201.4,185.9 c -7.6,-2.7 -11.5,-7.9 -11.5,-15.6"
       stroke-miterlimit="10" /><path
       style="fill:none;stroke:#000000;stroke-width:5.09860086;stroke-linecap:round;stroke-linejoin:round;stroke-miterlimit:10"
       inkscape:connector-curvature="0"
       id="path116"
       d="m 229.4,153.7 0.9,2.6 c -15.3,10.8 -24.9,20.7 -28.9,29.6 -1.6,4.4 -2.8,7.7 -3.7,9.9 -1.6,3.7 -4,7.1 -7.2,10.2 -10.2,10.2 -20.7,16.8 -31.4,19.7 -10.4,2.8 -18,1.5 -22.9,-4 -3.8,-6.3 -2.8,-14 3,-23 5.9,-9.3 15.4,-17.3 28.2,-24.1 3.9,-2 7.9,-3.3 11.9,-3.7 2.2,-0.2 5.7,-0.4 10.5,-0.6 9.6,-1.1 21.9,-7.4 36.8,-18.8 z"
       stroke-miterlimit="10" /><polyline
       style="fill:none;stroke:#f26d7d;stroke-width:5.09860086;stroke-linecap:round;stroke-linejoin:round;stroke-miterlimit:10"
       id="polyline118"
       points="   152.8,199.3 146.8,204.8 153.3,207.6 157,215.6 162,206.6 174.5,205.8 168.5,199.1 168.5,189.6 160.3,193.3  "
       stroke-miterlimit="10" /><path
       style="fill:#f26d7d;stroke-width:1.02012813"
       inkscape:connector-curvature="0"
       id="path120"
       d="m 242.6,150.4 c 0,-2.6 -0.9,-4.9 -2.8,-6.8 -1.8,-1.8 -4.1,-2.8 -6.8,-2.8 -2.6,0 -4.9,0.9 -6.8,2.8 -1.8,1.9 -2.8,4.2 -2.8,6.8 0,2.6 0.9,4.9 2.8,6.8 1.9,1.9 4.2,2.8 6.8,2.8 2.6,0 4.9,-0.9 6.8,-2.8 1.8,-1.8 2.8,-4.1 2.8,-6.8 z" /><path
       style="fill:none;stroke:#000000;stroke-width:5.09860086;stroke-linecap:round;stroke-linejoin:round;stroke-miterlimit:10"
       inkscape:connector-curvature="0"
       id="path122"
       d="m 239.7,143.6 c -1.8,-1.8 -4.1,-2.8 -6.8,-2.8 -2.6,0 -4.9,0.9 -6.8,2.8 -1.8,1.9 -2.8,4.2 -2.8,6.8 0,2.6 0.9,4.9 2.8,6.8 1.9,1.9 4.2,2.8 6.8,2.8 2.6,0 4.9,-0.9 6.8,-2.8 1.9,-1.8 2.8,-4.1 2.8,-6.8 0,-2.7 -0.9,-4.9 -2.8,-6.8 z"
       stroke-miterlimit="10" /><polygon
       style="fill:#ffd064;stroke-width:1.02012813"
       id="polygon124"
       points="153.1,207.1 156.8,215.1 161.8,206.1 174.3,205.3 168.3,198.6 168.3,189.1 164.1,191 148.6,205.2 " /><polygon
       style="fill:#ffffff;stroke-width:1.02012813"
       id="polygon126"
       points="160.1,192.8 153.1,188.8 152.6,198.8 146.6,204.3 148.6,205.2 164.1,191 " /><polygon
       style="fill:none;stroke:#000000;stroke-width:2.03944016;stroke-linecap:round;stroke-linejoin:round;stroke-miterlimit:10"
       id="polygon128"
       points="156.8,215.1 161.8,206.1 174.3,205.3 168.3,198.6 168.3,189.1 164.1,191 160.1,192.8 153.1,188.8 152.6,198.8 146.6,204.3 148.6,205.2 153.1,207.1 "
       stroke-miterlimit="10" /><path
       style="fill:#9ddff9;stroke-width:1.02012813"
       inkscape:connector-curvature="0"
       id="path130"
       d="m 221.5,182.4 c 0.1,-1.5 0.1,-3 0,-4.4 h -6.1 c 0,0.7 0,1.5 0,2.3 -0.3,4.7 -2.1,8.2 -5.6,10.6 -3.4,2.3 -7.4,2.8 -11.9,1.4 -4.5,-1.4 -8.2,-4.2 -11.2,-8.6 -3,-4.4 -4.3,-8.8 -3.9,-13.6 0.3,-4.7 2.2,-8.2 5.7,-10.5 3.4,-2.3 7.4,-2.8 11.8,-1.4 0.2,0 0.4,0.1 0.7,0.2 v -6.1 c -6.2,-1.8 -11.7,-1.1 -16.6,2.2 -4.8,3.3 -7.5,8.2 -8.1,14.6 -0.5,6.5 1.1,12.7 5.2,18.6 4,5.9 9.1,9.7 15.4,11.5 6.3,1.8 11.8,1.1 16.7,-2.1 4.7,-3.3 7.4,-8.2 7.9,-14.7 z" /><path
       style="fill:none;stroke:#000000;stroke-width:3.05916047;stroke-linecap:round;stroke-linejoin:round;stroke-miterlimit:10"
       inkscape:connector-curvature="0"
       id="path132"
       d="m 215.4,177.9 c 0,0.7 0,1.5 0,2.3 -0.3,4.7 -2.1,8.2 -5.6,10.6 -3.4,2.3 -7.4,2.8 -11.9,1.4 -4.5,-1.4 -8.2,-4.2 -11.2,-8.6 -2.9,-4.3 -4.3,-8.8 -3.9,-13.6 0.3,-4.7 2.2,-8.2 5.7,-10.5 3.4,-2.3 7.4,-2.8 11.8,-1.4 0.2,0 0.4,0.1 0.7,0.2 m -0.1,-6.1 c -6.2,-1.8 -11.7,-1.1 -16.6,2.2 -4.8,3.3 -7.5,8.2 -8.1,14.6 -0.5,6.5 1.1,12.7 5.2,18.6 4,5.9 9.1,9.7 15.4,11.5 6.3,1.8 11.8,1.1 16.7,-2.1 4.8,-3.3 7.5,-8.2 8,-14.7 0.1,-1.5 0.1,-3 0,-4.4"
       stroke-miterlimit="10" /><path
       style="fill:#935a8c;stroke-width:1.02012813"
       inkscape:connector-curvature="0"
       id="path134"
       d="m 124.2,187.7 c -2.6,-11.2 -9.4,-20 -20.4,-26.5 -7.8,-4.6 -20.2,-8.9 -36.9,-12.9 -9.4,-2.1 -16.5,-3.8 -21.4,-5 -8.5,-2 -15.7,-4 -21.6,-6 -16.2,-5.3 -29.1,-12.1 -38.6,-20.6 2.8,12 3,25.4 0.5,40.2 -1.4,8.3 -4.7,21 -9.9,38 -4.7,15.5 -7.5,27 -8.3,34.5 -1.2,11.8 0.5,21.7 5.3,29.8 3.6,6.1 10.6,11.4 20.7,15.7 9.2,3.9 19.9,6.7 32.3,8.2 11.8,1.5 22.9,1.7 33.5,0.6 10.9,-1.1 19.1,-3.5 24.5,-7.1 13.9,-9.3 24.9,-22.5 33.1,-39.5 8.2,-17.8 10.7,-34.3 7.2,-49.4 z" /><path
       style="fill:none;stroke:#000000;stroke-width:5.09860086;stroke-linecap:round;stroke-miterlimit:10"
       inkscape:connector-curvature="0"
       id="path136"
       d="m 103.8,161.2 c -7.8,-4.6 -20.2,-8.9 -36.9,-12.9 -9.4,-2.1 -16.5,-3.8 -21.4,-5 -8.5,-2 -15.7,-4 -21.6,-6 -16.2,-5.3 -29.1,-12.1 -38.6,-20.6 2.8,12 3,25.4 0.5,40.2 -1.4,8.3 -4.7,21 -9.9,38 -4.7,15.5 -7.5,27 -8.3,34.5 -1.2,11.8 0.5,21.7 5.3,29.8 3.6,6.1 10.6,11.4 20.7,15.7 9.2,3.9 19.9,6.7 32.3,8.2 11.8,1.5 22.9,1.7 33.5,0.6 10.9,-1.1 19.1,-3.5 24.5,-7.1 13.9,-9.3 24.9,-22.5 33.1,-39.5 8.4,-17.8 10.9,-34.3 7.4,-49.4 -2.8,-11.3 -9.6,-20.1 -20.6,-26.5 z"
       stroke-miterlimit="10" /><path
       style="fill:#674654;stroke-width:1.02012813"
       inkscape:connector-curvature="0"
       id="path138"
       d="m 118.8,204.6 c -1.1,-12 -6.4,-21.8 -16,-29.5 -9.5,-7.6 -18.5,-11.9 -26.9,-12.6 -8.4,-0.8 -17.2,-2.1 -26.4,-4.1 -9.2,-1.9 -17.8,-4.5 -25.9,-7.6 -8,-3.1 -17.1,-8.3 -27.3,-15.5 2.1,10.3 1.7,21.8 -1.1,34.3 -1.6,7 -5.1,17.7 -10.5,32 -4.9,13 -7.9,22.7 -8.9,29.1 -1.6,10 -0.4,18.5 3.6,25.6 3.1,5.3 8.1,10.5 15,15.4 6.8,4.8 16,8 27.5,9.5 11.5,1.4 22.5,2 33.1,1.8 10.5,-0.2 20.1,-3.1 28.7,-8.5 8.5,-5.4 16.8,-15.4 24.9,-30 7.9,-14.6 11.3,-27.8 10.2,-39.9 z" /><path
       style="fill:none;stroke:#935a8c;stroke-width:9.1774807;stroke-linecap:round;stroke-miterlimit:10"
       inkscape:connector-curvature="0"
       id="path140"
       d="m 88.5,165.9 c 9.8,1.9 16.6,7.4 20.6,16.3 4.5,10.2 3.7,22.9 -2.4,38 -3.5,8.6 -6.8,15.7 -10,21.3 -0.8,1.5 -1.7,2.9 -2.5,4.1 -3.7,5.6 -7.8,10.1 -12.3,13.2 -1,0.7 -2.1,1.4 -3.2,2 -5.1,2.8 -11.2,4.4 -18.2,4.7 -1.2,0 -2.4,0.1 -3.7,0 -8.6,-0.2 -19.3,-2.2 -31.9,-6.1 -15.4,-4.6 -26.4,-11.5 -33,-20.4 -6,-8 -7.4,-16.1 -4.2,-24.1 3.2,-8 9.9,-13.6 20.3,-16.6 11.5,-3.3 25,-2.6 40.5,2.2 0.7,-12.7 5.5,-22.3 14.2,-28.8 7.5,-5.8 16.2,-7.8 25.8,-5.8 z"
       stroke-miterlimit="10" /><path
       style="fill:#ffca6d;stroke-width:1.02012813"
       inkscape:connector-curvature="0"
       id="path142"
       d="m 88,164.9 c -9.5,-1.9 -18.2,0 -26.1,5.9 -8.7,6.5 -13.5,16.1 -14.2,28.8 -15.4,-4.8 -28.9,-5.6 -40.5,-2.2 -10.3,3 -17.1,8.6 -20.3,16.6 -3.1,8 -1.7,16.1 4.2,24.1 6.6,8.9 17.6,15.8 33,20.4 6.9,-5.7 14.1,-10.9 21.6,-15.5 6.6,-4 13.4,-7.7 20.4,-10.9 7.2,-3.3 14.6,-6.1 22.2,-8.5 5.8,-1.8 11.7,-3.3 17.7,-4.6 6.1,-15 6.9,-27.7 2.4,-38 -3.8,-8.7 -10.6,-14.2 -20.4,-16.1 z" /><path
       style="fill:#ffffff;stroke-width:1.02012813"
       inkscape:connector-curvature="0"
       id="path144"
       d="m 106.2,219.2 c -6,1.2 -11.9,2.8 -17.7,4.6 l 7.7,16.7 c 3.1,-5.6 6.5,-12.7 10,-21.3 z" /><path
       style="fill:#ffffff;stroke-width:1.02012813"
       inkscape:connector-curvature="0"
       id="path146"
       d="m 45.8,243.1 c -7.4,4.6 -14.6,9.7 -21.6,15.5 12.6,3.8 23.3,5.9 31.9,6.1 1.2,0 2.5,0 3.7,0 z" /><path
       style="fill:#ffffff;stroke-width:1.02012813"
       inkscape:connector-curvature="0"
       id="path148"
       d="m 93.6,244.6 c 0.8,-1.2 1.7,-2.6 2.5,-4.1 l -7.7,-16.7 c -7.6,2.3 -15,5.2 -22.2,8.5 l 15.1,25.6 c 4.4,-3.2 8.5,-7.6 12.3,-13.3 z" /><path
       style="fill:#ffffff;stroke-width:1.02012813"
       inkscape:connector-curvature="0"
       id="path150"
       d="m 78,259.9 c 1.1,-0.6 2.2,-1.3 3.2,-2 L 66.1,232.3 c -7,3.2 -13.8,6.8 -20.4,10.9 l 14,21.5 c 7.1,-0.3 13.2,-1.9 18.3,-4.8 z" /><path
       style="fill:none;stroke:#000000;stroke-width:3.05916047;stroke-linecap:round;stroke-miterlimit:10"
       inkscape:connector-curvature="0"
       id="path152"
       d="M 24.2,258.6 C 8.8,254 -2.2,247.1 -8.8,238.2 c -6,-8 -7.4,-16.1 -4.2,-24.1 3.2,-8 9.9,-13.6 20.3,-16.6 11.5,-3.3 25,-2.6 40.5,2.2 0.7,-12.7 5.5,-22.3 14.2,-28.8 7.8,-5.9 16.5,-7.9 26.1,-5.9 9.8,1.9 16.6,7.4 20.6,16.3 4.5,10.2 3.7,22.9 -2.4,38 m -0.1,-0.1 c -6,1.2 -11.9,2.8 -17.7,4.6 m -42.7,19.3 c -7.4,4.6 -14.6,9.7 -21.6,15.5 m 71.9,-18.1 c -0.8,1.5 -1.7,2.9 -2.5,4.1 -3.7,5.6 -7.8,10.1 -12.3,13.2 m -21.5,6.9 c -1.2,0 -2.4,0.1 -3.7,0 -8.6,-0.2 -19.3,-2.2 -31.9,-6.1 m 57.1,-0.7 c -1,0.7 -2.1,1.4 -3.2,2 -5.1,2.8 -11.2,4.4 -18.2,4.7 m 6.3,-32.4 15.1,25.6 m 24.9,-38.6 c -3.5,8.6 -6.8,15.7 -10,21.3 m -7.8,-16.7 7.7,16.7 m -50.3,2.6 14,21.5 m 28.6,-40.8 c -7.6,2.3 -15,5.2 -22.2,8.5 m 0,-0.1 c -7,3.2 -13.8,6.8 -20.4,10.9"
       stroke-miterlimit="10" /><path
       style="fill:#6f4d4a;stroke-width:1.02012813"
       inkscape:connector-curvature="0"
       id="path154"
       d="m 16.3,219.9 c -1.6,1.3 -2.4,3 -2.4,4.9 0,1.9 0.8,3.5 2.4,4.8 1.6,1.3 3.6,2 5.9,2 2.3,0 4.2,-0.7 5.8,-2 1.6,-1.3 2.4,-2.9 2.4,-4.8 0,-1.9 -0.8,-3.5 -2.4,-4.9 -1.6,-1.3 -3.5,-1.9 -5.8,-1.9 -2.3,0 -4.2,0.6 -5.9,1.9 z" /><path
       style="fill:none;stroke:#000000;stroke-width:3.05916047;stroke-linecap:round;stroke-miterlimit:10"
       inkscape:connector-curvature="0"
       id="path156"
       d="m 13.9,224.8 c 0,1.9 0.8,3.5 2.4,4.8 1.6,1.3 3.6,2 5.9,2 2.3,0 4.2,-0.7 5.8,-2 1.6,-1.3 2.4,-2.9 2.4,-4.8 0,-1.9 -0.8,-3.5 -2.4,-4.9 -1.6,-1.3 -3.5,-1.9 -5.8,-1.9 -2.3,0 -4.2,0.6 -5.9,1.9 -1.6,1.3 -2.4,3 -2.4,4.9 z"
       stroke-miterlimit="10" /><path
       style="fill:#6f4d4a;stroke-width:1.02012813"
       inkscape:connector-curvature="0"
       id="path158"
       d="m 88,199.4 c 1.1,-1.9 1.5,-3.9 1.2,-6 -0.3,-2 -1.3,-3.5 -3,-4.4 -1.6,-0.9 -3.4,-1.1 -5.4,-0.4 -2,0.7 -3.5,2.1 -4.7,4 -1.1,1.9 -1.5,4 -1.1,6 0.3,2 1.3,3.6 3,4.5 1.6,0.9 3.4,1 5.4,0.3 1.9,-0.7 3.4,-2.1 4.6,-4 z" /><path
       style="fill:none;stroke:#000000;stroke-width:3.05916047;stroke-linecap:round;stroke-miterlimit:10"
       inkscape:connector-curvature="0"
       id="path160"
       d="m 89.2,193.3 c -0.3,-2 -1.3,-3.5 -3,-4.4 -1.6,-0.9 -3.4,-1.1 -5.4,-0.4 -2,0.7 -3.5,2.1 -4.7,4 -1.1,1.9 -1.5,4 -1.1,6 0.3,2 1.3,3.6 3,4.5 1.6,0.9 3.4,1 5.4,0.3 1.9,-0.7 3.5,-2.1 4.6,-4 1.1,-1.9 1.5,-3.9 1.2,-6 z"
       stroke-miterlimit="10" /><path
       style="fill:#a3555c;stroke-width:1.02012813"
       inkscape:connector-curvature="0"
       id="path162"
       d="m 237.4,148 c -1.1,-1 -2.4,-1.6 -3.9,-1.6 -1.5,0 -2.8,0.5 -3.9,1.6 -1.1,1.1 -1.6,2.4 -1.6,3.9 0,1.5 0.5,2.9 1.6,4 1.1,1.1 2.4,1.6 3.9,1.6 1.5,0 2.8,-0.5 3.9,-1.6 1.1,-1.1 1.6,-2.4 1.6,-4 0,-1.6 -0.5,-2.8 -1.6,-3.9 z" /></g></g>
</svg>